<svg xmlns="http://www.w3.org/2000/svg" viewBox="0 0 32 32"><path d="M5.16,21.67c.22,1,.58,1.58,2,1.58S9.11,23,9.38,21.76l2.47-11.62A5.38,5.38,0,0,0,12,9a1.22,1.22,0,0,0-1.38-1.27c-.94,0-1.23.59-1.38,1.47L7.4,20,5.21,9A1.24,1.24,0,0,0,3.8,7.75a1.37,1.37,0,0,0-1.43,1.3v0a7.76,7.76,0,0,0,.2,1.07Z" fill="#fff"/><path d="M14.5,21.79H12.37c-.56,0-.95.33-.95.72s.39.69.95.69H14.5v2.13c0,.55.29.92.69.92s.73-.37.73-.92V23.2h2.13c.56,0,.95-.31.95-.69s-.39-.72-.95-.72H15.92V19.63c0-.54-.32-.88-.72-.88s-.69.38-.69.92Z" fill="#fff"/><path d="M21,21.79a1.44,1.44,0,0,0,2.87,0h0V16.34H25.1a1.45,1.45,0,0,1,1.66,1.58l.14,3.9c0,1,.66,1.43,1.72,1.43S30,22.78,30,22.33c0-.76-.2-1.5-.2-2.35V18.35c0-1.78-.24-2.71-1.75-3.24,1.29-.52,1.83-1.45,1.83-3.46,0-2.16-.88-3.9-3.44-3.9h-3.9c-1,0-1.54.46-1.54,1.52ZM23.87,9.87H25.1c1.36,0,1.8.66,1.8,2.18S26.11,14.2,25,14.2H23.86Z" fill="#fff"/></svg>