<?xml version="1.0" encoding="UTF-8"?>
<svg id="Empty" xmlns="http://www.w3.org/2000/svg" viewBox="0 0 1200 1200">
  <g id="BackgroundT">
    <path d="M300.13,395.95c35.59.38,69.36,8.33,99.79,22.32,61.92,28.48,135.2,10.48,176.08-44.06,56.53-75.41,146.62-124.21,248.1-124.21,171.14,0,310.32,139.57,309.9,310.76-.42,170.84-139.01,309.2-309.9,309.2-127.55,0-405.12,17.04-526.62,17.04-135.57,0-245.47-109.93-245.47-245.53,0-135.7,112.47-246.96,248.13-245.52Z" fill="#b4b6ba" opacity=".25"/>
    <circle cx="463" cy="310" r="105" fill="#b4b6ba" opacity=".25"/>
  </g>
  <ellipse id="Ground" cx="600" cy="966.5" rx="542.5" ry="163.5" fill="#d1e7f2"/>
  <g id="Box">
    <polygon points="907 760 1000 793 920 823 827 790 907 760" fill="#e2e4e3"/>
    <polygon points="827 857 920 890 920 823 827 790 827 857" fill="#d1d4d4"/>
    <polygon points="1000 861 920 890 920 823 1000 793 1000 861" fill="#b4b6ba"/>
  </g>
  <g id="MainBox">
    <polygon points="595 572 896 671 896 931 595 818 595 572" fill="#78befa"/>
    <polygon points="294 685 294 931 595 818 595 572 294 685" fill="#367cc4"/>
    <polygon points="896 671 948 664 648 564 595 572 896 671" fill="#78befa"/>
    <polygon points="595 572 527 573 231 682 294 685 595 572" fill="#78befa"/>
    <polygon points="595 784 595 1044 896 931 896 671 595 784" fill="#367cc4"/>
    <polygon points="615 957.25 615 1016.5 683 990.75 683 931.5 615 957.25" fill="#d5e8f2"/>
    <polygon points="294 685 595 784 595 1044 294 931 294 685" fill="#78befa"/>
    <polygon points="896 671 948 664 648 564 595 572 896 671" fill="#d5e8f2" opacity=".5"/>
    <polygon points="595 572 527 573 231 682 294 685 595 572" fill="#d5e8f2" opacity=".5"/>
  </g>
  <g id="Butterfly">
    <g>
      <path d="M893.25,306.94c-2.79,3.74-8.25,12.42-3.15,16.31,5.11,3.89,18.86,1.51,21.64-2.23s-1.34-7.59-6.44-11.48c-5.11-3.89-9.27-6.35-12.05-2.6Z" fill="#a7d3f6"/>
      <path d="M898.64,309.95c-1.89,2.55-5.61,8.45-2.14,11.09,3.47,2.64,12.82,1.03,14.72-1.52s-.91-5.16-4.38-7.81c-3.47-2.64-6.3-4.32-8.19-1.77Z" fill="#d5e8f2" opacity=".5"/>
      <path d="M914.65,315.63c3.63-3.25-3.1-25.5-8.8-32.02-5.69-6.51-1.08,8.52-5.87,12.8s-7.92,6.79-2.22,13.31c5.69,6.51,13.26,9.16,16.89,5.91Z" fill="#78befa"/>
      <path d="M931.17,335.36c-2.79,3.74-9.52,11.46-14.63,7.57-5.11-3.89-6.65-17.91-3.87-21.65s7.58-.8,12.69,3.09c5.11,3.89,8.59,7.25,5.81,10.99Z" fill="#a7d3f6"/>
      <path d="M926.82,330.96c-1.89,2.55-6.47,7.79-9.95,5.15-3.47-2.64-4.53-12.18-2.63-14.72,1.89-2.55,5.16-.54,8.63,2.1,3.47,2.64,5.84,4.93,3.95,7.48Z" fill="#d5e8f2" opacity=".5"/>
      <path d="M917,316.96c2.08-4.43,25.09-4.04,32.85-.3,7.76,3.73-7.79,3.41-10.54,9.25s-4.26,9.58-12.03,5.84c-7.76-3.73-12.37-10.35-10.29-14.79Z" fill="#78befa"/>
      <path d="M916.97,317.89c1.52-3.23,18.31-2.95,23.98-.22,5.67,2.73-5.69,2.49-7.69,6.75-2,4.26-3.11,6.99-8.78,4.27-5.67-2.73-9.03-7.56-7.51-10.79Z" fill="#d5e8f2" opacity=".5"/>
      <path d="M913.77,315.91c2.65-2.37-2.26-18.61-6.42-23.37-4.16-4.75-.79,6.22-4.28,9.34-3.49,3.13-5.78,4.96-1.62,9.71,4.16,4.75,9.68,6.69,12.33,4.31Z" fill="#d5e8f2" opacity=".5"/>
      <ellipse cx="912.36" cy="321.04" rx="7.64" ry="3.61" transform="translate(111.83 863.83) rotate(-53.52)" fill="#367cc4"/>
    </g>
    <g>
      <path d="M577.34,801.76c-1.03-1.76-2.03-3.51-3-5.25l4.37-2.43c.96,1.71,1.94,3.43,2.95,5.16l-4.32,2.53Z" fill="#fff"/>
      <path d="M568.69,785.83c-1.83-3.65-3.56-7.33-5.14-10.94l4.58-2.01c1.55,3.53,3.25,7.14,5.03,10.72l-4.47,2.24ZM558.98,763.67c-1.44-3.83-2.75-7.69-3.91-11.47l4.78-1.46c1.13,3.68,2.41,7.44,3.81,11.18l-4.68,1.75ZM551.9,740.49c-.93-3.98-1.72-8-2.34-11.92l4.94-.78c.6,3.81,1.36,7.7,2.26,11.56l-4.87,1.14ZM548.16,716.48c-.26-3.5-.39-7.02-.39-10.46,0-.57,0-1.15.01-1.72l5,.07c0,.55-.01,1.1-.01,1.65,0,3.32.13,6.71.38,10.08l-4.99.37ZM553.46,692.68l-4.97-.53c.43-4.05,1.05-8.1,1.86-12.04l4.9,1c-.78,3.79-1.38,7.68-1.79,11.57ZM752.09,677.74c-1.38,0-2.77-.01-4.17-.04l.09-5c4.05.07,8.02.04,11.83-.11l.19,5c-2.58.1-5.25.15-7.94.15ZM735.83,677.19c-3.9-.25-7.95-.6-12.04-1.03l.52-4.97c4.02.42,8,.76,11.84,1.01l-.32,4.99ZM772.14,676.73l-.53-4.97c4.05-.43,7.96-1.02,11.62-1.73l.96,4.91c-3.8.75-7.85,1.35-12.05,1.8ZM711.82,674.68c-3.9-.55-7.91-1.18-11.91-1.88l.86-4.93c3.95.69,7.91,1.31,11.75,1.86l-.7,4.95ZM796.06,671.92l-1.52-4.76c3.87-1.24,7.48-2.69,10.71-4.33l2.25,4.46c-3.47,1.75-7.32,3.31-11.45,4.63ZM688.06,670.56c-3.88-.79-7.84-1.65-11.77-2.57l1.13-4.87c3.89.9,7.8,1.76,11.64,2.54l-1,4.9ZM558.16,669.77l-4.78-1.48c1.2-3.86,2.6-7.71,4.18-11.46l4.61,1.94c-1.51,3.59-2.86,7.29-4.01,10.99ZM664.6,665.12c-3.84-.99-7.75-2.05-11.62-3.15l1.37-4.81c3.83,1.09,7.71,2.14,11.5,3.12l-1.25,4.84ZM818,660.53l-3.17-3.86c3-2.46,5.55-5.23,7.6-8.23l4.13,2.82c-2.31,3.39-5.19,6.51-8.56,9.28ZM641.44,658.55c-3.8-1.17-7.66-2.41-11.46-3.68l1.58-4.74c3.77,1.26,7.59,2.48,11.35,3.64l-1.47,4.78ZM618.6,650.94c-3.75-1.34-7.55-2.74-11.29-4.17l1.78-4.67c3.71,1.41,7.47,2.81,11.19,4.13l-1.68,4.71ZM567.24,648.21l-4.4-2.38c1.91-3.53,4.02-7.05,6.29-10.44l4.16,2.77c-2.18,3.27-4.21,6.65-6.05,10.05ZM596.14,642.37c-3.71-1.51-7.45-3.07-11.1-4.65l1.98-4.59c3.62,1.56,7.32,3.11,11,4.6l-1.88,4.63ZM832,639.82l-4.79-1.44c1.04-3.44,1.63-7.19,1.76-11.13l5,.17c-.15,4.38-.81,8.55-1.97,12.41ZM574.03,632.84c-3.65-1.67-7.32-3.4-10.92-5.14l2.18-4.5c3.56,1.73,7.2,3.44,10.82,5.09l-2.08,4.55ZM580.22,628.69l-3.9-3.12c2.49-3.11,5.18-6.2,7.98-9.17l3.63,3.43c-2.71,2.87-5.31,5.85-7.71,8.86ZM552.34,622.33c-3.58-1.83-7.16-3.73-10.65-5.62l2.39-4.39c3.45,1.88,7,3.75,10.54,5.56l-2.28,4.45ZM828.29,615.78c-.58-3.84-1.53-7.56-2.82-11.07l4.69-1.73c1.41,3.82,2.44,7.88,3.07,12.05l-4.94.75ZM596.33,611.6l-3.36-3.7c2.95-2.68,6.06-5.31,9.26-7.83l3.09,3.93c-3.11,2.44-6.13,5-8.99,7.6ZM531.18,610.83c-3.49-2.01-6.98-4.08-10.36-6.14l2.61-4.27c3.34,2.04,6.79,4.09,10.25,6.08l-2.49,4.33ZM510.63,598.26c-3.39-2.21-6.76-4.47-10.01-6.72l2.85-4.11c3.21,2.22,6.53,4.45,9.88,6.63l-2.72,4.19ZM614.83,597.03l-2.82-4.13c3.28-2.25,6.72-4.44,10.21-6.52l2.56,4.29c-3.4,2.03-6.74,4.17-9.94,6.36ZM820.41,594.5c-2.01-3.15-4.41-6.16-7.12-8.93l3.57-3.5c2.95,3.01,5.56,6.29,7.76,9.73l-4.21,2.69ZM635.09,584.92l-2.31-4.44c3.54-1.84,7.21-3.62,10.9-5.28l2.05,4.56c-3.6,1.62-7.19,3.36-10.65,5.16ZM490.83,584.52c-3.26-2.42-6.48-4.89-9.56-7.36l3.12-3.91c3.04,2.43,6.21,4.87,9.42,7.25l-2.98,4.02ZM804.53,578.13c-3.04-2.15-6.38-4.15-9.93-5.95l2.25-4.46c3.78,1.91,7.33,4.04,10.57,6.33l-2.89,4.08ZM656.66,575.19l-1.81-4.66c3.74-1.45,7.58-2.82,11.41-4.08l1.56,4.75c-3.75,1.23-7.5,2.57-11.16,3.99ZM471.97,569.46c-3.09-2.67-6.11-5.39-8.98-8.09l3.43-3.64c2.82,2.65,5.78,5.32,8.82,7.94l-3.27,3.78ZM679.18,567.8l-1.31-4.83c3.88-1.05,7.84-2.02,11.76-2.87l1.06,4.89c-3.84.83-7.71,1.78-11.51,2.81ZM783.88,567.61c-3.55-1.27-7.32-2.4-11.21-3.36l1.2-4.85c4.06,1,8,2.18,11.7,3.51l-1.69,4.71ZM702.32,562.79l-.8-4.94c3.99-.65,8.03-1.19,12-1.62l.53,4.97c-3.88.42-7.83.95-11.73,1.58ZM761.15,561.94c-3.78-.59-7.72-1.05-11.7-1.36l.4-4.98c4.11.33,8.17.8,12.07,1.41l-.77,4.94ZM725.85,560.28l-.25-4.99c3.31-.16,6.59-.22,9.86-.25.76,0,1.51,0,2.26.01l-.06,5c-.74,0-1.49,0-2.23-.01-3.14,0-6.36.08-9.58.24ZM454.4,552.88c-2.85-2.95-5.6-5.96-8.17-8.94l3.78-3.27c2.51,2.91,5.2,5.85,7.98,8.73l-3.6,3.47ZM438.59,534.53c-2.49-3.28-4.85-6.62-7-9.92l4.19-2.73c2.09,3.2,4.37,6.44,6.79,9.62l-3.98,3.03ZM425.37,514.17c-1.97-3.64-3.74-7.34-5.27-10.98l4.61-1.94c1.47,3.5,3.18,7.05,5.07,10.55l-4.4,2.37ZM415.97,491.69c-1.17-3.96-2.1-7.97-2.76-11.91l4.93-.82c.62,3.74,1.5,7.55,2.62,11.31l-4.79,1.42ZM412.02,467.56c-.03-.86-.04-1.73-.04-2.59,0-3.23.18-6.49.54-9.7l4.97.55c-.34,3.02-.51,6.1-.51,9.15,0,.82.01,1.63.04,2.45l-5,.15ZM419.58,444.4l-4.84-1.24c.99-3.9,2.28-7.83,3.81-11.68l4.64,1.85c-1.45,3.65-2.67,7.37-3.61,11.06ZM428.15,422.78l-4.4-2.38c1.12-2.08,2.34-4.17,3.63-6.22.88-1.41,1.79-2.82,2.7-4.19l4.16,2.77c-.88,1.33-1.77,2.7-2.62,4.07-1.23,1.96-2.39,3.97-3.47,5.96ZM441.12,403.2l-3.94-3.07c2.51-3.21,5.15-6.34,7.85-9.28l3.68,3.38c-2.61,2.85-5.17,5.87-7.59,8.98ZM457.01,385.91l-3.39-3.68c2.98-2.75,6.1-5.39,9.29-7.86l3.06,3.95c-3.08,2.38-6.09,4.94-8.97,7.58ZM475.56,371.53l-2.71-4.2c3.37-2.18,6.9-4.26,10.48-6.18l2.36,4.41c-3.47,1.85-6.87,3.86-10.13,5.97ZM496.27,360.43l-2.01-4.58c3.64-1.59,7.44-3.1,11.29-4.46l1.67,4.71c-3.74,1.33-7.43,2.78-10.95,4.33ZM518.47,352.53l-1.36-4.81c3.8-1.07,7.75-2.06,11.75-2.94l1.07,4.88c-3.91.86-7.76,1.82-11.46,2.86ZM756.14,352.09l-.02-5c4.08-.02,8.08-.1,11.89-.24l.19,5c-3.86.14-7.91.23-12.05.25ZM744.1,351.99c-3.81-.08-7.85-.21-12.01-.38l.21-5c4.13.17,8.13.3,11.91.38l-.11,5ZM780.23,351.16l-.39-4.99c4.05-.31,8.01-.72,11.79-1.19l.63,4.96c-3.85.49-7.9.9-12.03,1.22ZM720.09,351.01c-3.77-.22-7.69-.46-11.97-.76l.34-4.99c4.27.29,8.17.54,11.92.75l-.29,4.99ZM696.16,349.38c-3.97-.3-7.95-.61-11.95-.93l.4-4.98c3.99.32,7.97.63,11.93.93l-.38,4.99ZM804.23,348.07l-.92-4.91c3.96-.75,7.83-1.61,11.5-2.58l1.28,4.83c-3.78,1-7.77,1.89-11.85,2.66ZM672.27,347.49c-3.97-.32-7.95-.63-11.93-.94l.38-4.99c3.99.31,7.97.62,11.94.94l-.4,4.98ZM541.56,347.44l-.82-4.93c3.87-.64,7.89-1.21,11.96-1.69l.59,4.96c-3.99.47-7.94,1.03-11.74,1.66ZM648.42,345.68c-3.97-.28-7.95-.54-11.92-.78l.3-4.99c3.99.24,7.98.51,11.97.79l-.35,4.99ZM565.1,344.62l-.39-4.98c3.89-.31,7.94-.55,12.03-.73l.22,5c-4.03.18-8.02.42-11.86.72ZM624.58,344.25c-4.09-.19-8.1-.35-11.92-.47l.15-5c3.84.12,7.88.28,12,.47l-.24,4.99ZM588.86,343.55l-.07-5c2.29-.03,4.59-.05,6.89-.05,1.71,0,3.42,0,5.13.03l-.05,5c-1.73-.02-3.44-.02-5.18-.03-2.25,0-4.49.02-6.72.05ZM827.71,341.81l-1.68-4.71c3.75-1.34,7.4-2.85,10.83-4.48l2.15,4.52c-3.58,1.7-7.38,3.27-11.29,4.67ZM849.74,331.29l-2.64-4.25c3.32-2.06,6.52-4.33,9.5-6.73l3.14,3.89c-3.15,2.53-6.51,4.92-10,7.09ZM868.79,315.93l-3.6-3.47c2.66-2.76,5.21-5.74,7.56-8.86l3.99,3.01c-2.47,3.28-5.15,6.42-7.95,9.32ZM883.54,296.44l-4.3-2.54c1.93-3.27,3.76-6.76,5.43-10.37l4.54,2.1c-1.74,3.76-3.65,7.4-5.66,10.81Z" fill="#fff"/>
      <path d="M893.94,274.03l-4.71-1.69c.65-1.81,1.28-3.7,1.88-5.6l4.77,1.5c-.62,1.96-1.27,3.9-1.94,5.78Z" fill="#fff"/>
    </g>
    <g>
      <path d="M866.62,231.75c-2.94,6.89-8.2,22.47,1.33,26.48,9.53,4.01,30.24-5.06,33.18-11.95,2.94-6.89-5.02-11.22-14.55-15.24-9.53-4.01-17.01-6.18-19.96.7Z" fill="#a7d3f6"/>
      <path d="M876.26,234.3c-2,4.68-5.58,15.28.9,18.01s20.56-3.44,22.56-8.12c2-4.68-3.42-7.63-9.9-10.36s-11.57-4.21-13.57.48Z" fill="#d5e8f2" opacity=".5"/>
      <path d="M903.63,236.8c4.47-6.46-14.69-38.25-26.15-46.1-11.46-7.85,1.57,13.61-4.31,22.11-5.88,8.51-9.84,13.63,1.62,21.47,11.46,7.85,24.38,8.97,28.84,2.51Z" fill="#78befa"/>
      <path d="M937.22,260.85c-2.94,6.89-10.56,21.47-20.09,17.46-9.53-4.01-17.36-25.11-14.42-32s11.62-4.22,21.15-.2c9.53,4.01,16.3,7.85,13.36,14.74Z" fill="#a7d3f6"/>
      <path d="M928.67,255.74c-2,4.68-7.18,14.6-13.66,11.87-6.48-2.73-11.8-17.07-9.8-21.76,2-4.68,7.9-2.87,14.38-.14,6.48,2.73,11.09,5.34,9.09,10.02Z" fill="#d5e8f2" opacity=".5"/>
      <path d="M907.84,237.94c1.57-7.68,37.9-16.1,51.55-13.37,13.65,2.73-10.94,8.34-13.01,18.45-2.07,10.11-3.02,16.5-16.67,13.77s-23.44-11.17-21.87-18.85Z" fill="#78befa"/>
      <path d="M908.16,239.39c1.15-5.6,27.66-11.75,37.63-9.76,9.96,1.99-7.99,6.08-9.5,13.46-1.51,7.38-2.21,12.04-12.17,10.05-9.96-1.99-17.11-8.15-15.96-13.76Z" fill="#d5e8f2" opacity=".5"/>
      <path d="M902.36,237.58c3.26-4.71-10.72-27.92-19.09-33.65-8.37-5.73,1.15,9.93-3.14,16.14s-7.18,9.95,1.18,15.67c8.37,5.73,17.79,6.55,21.05,1.83Z" fill="#d5e8f2" opacity=".5"/>
      <ellipse cx="902.11" cy="246.07" rx="12.27" ry="5.81" transform="translate(320.46 978.21) rotate(-66.79)" fill="#367cc4"/>
    </g>
  </g>
  <g id="Box-2" data-name="Box">
    <polygon points="343 793 175 850 304 899 472 842 343 793" fill="#e2e4e3"/>
    <polygon points="472 999 304 1062 304 899 472 842 472 999" fill="#b4b6ba"/>
    <polygon points="304 1062 175 1013 175 850 304 899 304 1062" fill="#d1d4d4"/>
    <polygon points="291 1045 257 1032.06 257 989 291 1001.94 291 1045" fill="#e2e4e3"/>
  </g>
  <g id="MainBox-2" data-name="MainBox">
    <polygon points="896 671 1035 768 718 886 595 784 896 671" fill="#78befa"/>
    <polygon points="595 784 527 903 215 799 294 685 595 784" fill="#78befa"/>
    <polygon points="896 671 1035 768 718 886 595 784 896 671" fill="#d5e8f2" opacity=".5"/>
    <polygon points="595 784 527 903 215 799 294 685 595 784" fill="#d5e8f2" opacity=".5"/>
  </g>
</svg>
