<?xml version="1.0" encoding="UTF-8"?>
<svg id="Layer_3" data-name="Layer 3" xmlns="http://www.w3.org/2000/svg" xmlns:xlink="http://www.w3.org/1999/xlink" viewBox="0 0 64 64">
  <defs>
    <linearGradient id="linear-gradient" x1="19.99" y1="11.57" x2="35.77" y2="38.91" gradientUnits="userSpaceOnUse">
      <stop offset="0" stop-color="#d7d7d7"/>
      <stop offset="1" stop-color="#969696"/>
    </linearGradient>
    <linearGradient id="linear-gradient-2" x1="18.53" y1="39.48" x2="27.27" y2="54.63" gradientUnits="userSpaceOnUse">
      <stop offset="0" stop-color="#f5f5f5"/>
      <stop offset="1" stop-color="#bebebe"/>
    </linearGradient>
    <linearGradient id="linear-gradient-3" x1="21.6" y1="13.31" x2="36.97" y2="39.92" gradientUnits="userSpaceOnUse">
      <stop offset="0" stop-color="#fff"/>
      <stop offset="1" stop-color="#d2d2d2"/>
    </linearGradient>
    <linearGradient id="linear-gradient-4" x1="30.48" y1="43.63" x2="35.34" y2="52.06" xlink:href="#linear-gradient-3"/>
    <linearGradient id="linear-gradient-5" x1="25.35" y1="35.54" x2="31.65" y2="46.46" gradientUnits="userSpaceOnUse">
      <stop offset="0" stop-color="#fff"/>
      <stop offset="1" stop-color="#f0f0f0"/>
    </linearGradient>
    <linearGradient id="linear-gradient-6" x1="20.63" y1="12.31" x2="43.37" y2="51.69" gradientUnits="userSpaceOnUse">
      <stop offset="0" stop-color="#3287af"/>
      <stop offset="1" stop-color="#285a78"/>
    </linearGradient>
    <linearGradient id="linear-gradient-7" x1="21.42" y1="18.9" x2="25.82" y2="26.52" xlink:href="#linear-gradient-6"/>
    <linearGradient id="linear-gradient-8" x1="34.68" y1="15.04" x2="39.63" y2="23.61" xlink:href="#linear-gradient-6"/>
    <linearGradient id="linear-gradient-9" x1="16.88" y1="35.86" x2="19.91" y2="41.09" xlink:href="#linear-gradient-6"/>
    <linearGradient id="linear-gradient-10" x1="18.38" y1="33.15" x2="22.41" y2="40.13" xlink:href="#linear-gradient-6"/>
    <linearGradient id="linear-gradient-11" x1="20.09" y1="31.31" x2="24.7" y2="39.3" xlink:href="#linear-gradient-6"/>
    <linearGradient id="linear-gradient-12" x1="21.8" y1="29.48" x2="26.99" y2="38.47" xlink:href="#linear-gradient-6"/>
    <linearGradient id="linear-gradient-13" x1="25.03" y1="33.77" x2="27.76" y2="38.52" xlink:href="#linear-gradient-6"/>
    <linearGradient id="linear-gradient-14" x1="27.38" y1="34.57" x2="29.4" y2="38.06" xlink:href="#linear-gradient-6"/>
    <linearGradient id="Dégradé_sans_nom_12" data-name="Dégradé sans nom 12" x1="32.34" y1="11.62" x2="13.44" y2="40.28" gradientUnits="userSpaceOnUse">
      <stop offset="0" stop-color="#fff" stop-opacity="0"/>
      <stop offset=".01" stop-color="#fff" stop-opacity=".05"/>
      <stop offset=".07" stop-color="#fff" stop-opacity=".27"/>
      <stop offset=".13" stop-color="#fff" stop-opacity=".47"/>
      <stop offset=".18" stop-color="#fff" stop-opacity=".63"/>
      <stop offset=".24" stop-color="#fff" stop-opacity=".76"/>
      <stop offset=".3" stop-color="#fff" stop-opacity=".87"/>
      <stop offset=".36" stop-color="#fff" stop-opacity=".94"/>
      <stop offset=".42" stop-color="#fff" stop-opacity=".99"/>
      <stop offset=".49" stop-color="#fff"/>
      <stop offset=".54" stop-color="#fff" stop-opacity=".98"/>
      <stop offset=".61" stop-color="#fff" stop-opacity=".93"/>
      <stop offset=".68" stop-color="#fff" stop-opacity=".83"/>
      <stop offset=".75" stop-color="#fff" stop-opacity=".7"/>
      <stop offset=".82" stop-color="#fff" stop-opacity=".54"/>
      <stop offset=".89" stop-color="#fff" stop-opacity=".33"/>
      <stop offset=".97" stop-color="#fff" stop-opacity=".1"/>
      <stop offset="1" stop-color="#fff" stop-opacity="0"/>
    </linearGradient>
    <radialGradient id="radial-gradient" cx="47" cy="35.05" fx="47" fy="35.05" r="5.02" gradientUnits="userSpaceOnUse">
      <stop offset="0" stop-color="#d7d7d7"/>
      <stop offset="1" stop-color="#969696"/>
    </radialGradient>
    <radialGradient id="radial-gradient-2" cx="49.62" cy="32.51" fx="49.62" fy="32.51" r="3.48" gradientTransform="translate(0 19.51) scale(1 .4)" gradientUnits="userSpaceOnUse">
      <stop offset=".35" stop-color="#141414"/>
      <stop offset="1" stop-color="#464646" stop-opacity="0"/>
    </radialGradient>
    <radialGradient id="radial-gradient-3" cx="48.55" cy="28.48" fx="48.55" fy="28.48" r="3.5" xlink:href="#radial-gradient"/>
    <radialGradient id="radial-gradient-4" cx="41" cy="39.05" fx="41" fy="39.05" r="5.02" gradientUnits="userSpaceOnUse">
      <stop offset="0" stop-color="#fff"/>
      <stop offset="1" stop-color="#d2d2d2"/>
    </radialGradient>
    <radialGradient id="radial-gradient-5" cx="43.62" cy="36.51" fx="43.62" fy="36.51" gradientTransform="translate(0 21.91) scale(1 .4)" xlink:href="#radial-gradient-2"/>
    <radialGradient id="radial-gradient-6" cx="42.52" cy="32.54" fx="42.52" fy="32.54" r="3.5" xlink:href="#radial-gradient-4"/>
    <linearGradient id="linear-gradient-15" x1="30.48" y1="43.63" x2="35.34" y2="52.06" xlink:href="#linear-gradient-3"/>
    <linearGradient id="linear-gradient-16" x1="33.62" y1="49.97" x2="35.38" y2="53.03" xlink:href="#linear-gradient-3"/>
    <linearGradient id="linear-gradient-17" x1="32.08" y1="45.22" x2="34.42" y2="49.28" gradientTransform="translate(16.65 -8.09) rotate(18.43)" xlink:href="#linear-gradient"/>
    <linearGradient id="linear-gradient-18" x1="21" y1="41" x2="35.5" y2="41" gradientUnits="userSpaceOnUse">
      <stop offset=".18" stop-color="#bebebe"/>
      <stop offset=".32" stop-color="#f5f5f5"/>
      <stop offset=".6" stop-color="#c6c6c6"/>
      <stop offset=".8" stop-color="#ddd"/>
      <stop offset=".96" stop-color="#a49f9f"/>
    </linearGradient>
    <linearGradient id="Dégradé_sans_nom_5" data-name="Dégradé sans nom 5" x1="34.04" y1="45.84" x2="35.33" y2="48.07" gradientUnits="userSpaceOnUse">
      <stop offset="0" stop-color="#fff"/>
      <stop offset="1" stop-color="#fff" stop-opacity="0"/>
    </linearGradient>
    <linearGradient id="linear-gradient-19" x1="24.19" y1="27.04" x2="32.58" y2="41.57" xlink:href="#linear-gradient-3"/>
    <linearGradient id="linear-gradient-20" x1="25.81" y1="32.88" x2="31.27" y2="42.33" xlink:href="#linear-gradient-6"/>
    <linearGradient id="linear-gradient-21" x1="26.98" y1="31.87" x2="30.02" y2="37.13" xlink:href="#linear-gradient-6"/>
    <linearGradient id="linear-gradient-22" x1="24.18" y1="27.75" x2="32.26" y2="41.75" xlink:href="#linear-gradient-3"/>
  </defs>
  <g>
    <path d="M50.9,46.19l-15.95,9.01c-1.83,1.04-4.07,1.04-5.91,0l-15.95-9.01c-1.92-1.08-3.1-3.1-3.1-5.29v-17.79c0-2.19,1.18-4.21,3.1-5.29l15.95-9.01c1.83-1.04,4.07-1.04,5.91,0l15.95,9.01c1.92,1.08,3.1,3.1,3.1,5.29v17.79c0,2.19-1.18,4.21-3.1,5.29Z" fill="none" stroke="url(#linear-gradient-6)" stroke-miterlimit="10" stroke-width="2"/>
    <path d="M32,10.02c-.68,0-1.36.17-1.97.51l-15.95,9.01c-1.29.73-2.08,2.09-2.08,3.55v17.79c0,1.46.8,2.82,2.08,3.55l15.95,9.01c1.21.69,2.72.69,3.94,0l15.95-9.01c1.29-.73,2.08-2.09,2.08-3.55v-17.79c0-1.46-.8-2.82-2.08-3.55l-15.95-9.01c-.61-.34-1.29-.51-1.97-.51Z" fill="#fff" opacity=".3"/>
  </g>
  <path d="M54.44,34.95s-.02-.09-.03-.13c-.04-.18-.09-.35-.17-.52,0,0,0,0,0-.01-.07-.17-.16-.33-.26-.48-.02-.03-.04-.07-.07-.1-.11-.16-.23-.31-.37-.46,0,0,0,0,0,0-.14-.15-.29-.28-.45-.41-.03-.02-.05-.04-.08-.07-.34-.26-.73-.49-1.15-.68-.03-.01-.05-.02-.08-.04-.22-.09-.45-.18-.68-.25h0c.2-.15.38-.32.55-.51.02-.03.05-.06.07-.08.13-.16.25-.34.35-.52.03-.05.06-.1.08-.16.09-.18.15-.36.21-.55.02-.06.04-.12.06-.19.06-.25.1-.51.1-.78,0-1.93-1.57-3.5-3.5-3.5s-3.5,1.57-3.5,3.5c0,.27.04.53.1.78.02.07.04.13.06.19.06.19.12.37.21.55.03.05.06.1.08.16.1.19.22.36.35.52.02.03.04.06.07.08.17.19.35.36.55.51h0c-.2.06-.39.13-.58.2,0,0,0,0,0,0,0,0,0,0,0,0-.16-.55-.45-1.05-.84-1.44V13.33c0-.28-.04-.55-.09-.8-.01-.05-.04-.1-.05-.15-.06-.2-.13-.39-.22-.56-.02-.03-.04-.06-.06-.1-.11-.19-.23-.36-.38-.52,0-.01-.02-.02-.03-.03-.16-.17-.35-.32-.55-.44v-.02s-2.5-1.49-2.5-1.49h-.01c-.63-.36-1.42-.5-2.29-.3l-23.71,5.37c-1.71.39-3.1,2.15-3.1,3.9v22.1c0,.97.33,1.75.86,2.28v.02s1.99,2.02,1.99,2.02h.02c.17.16.36.3.56.41.04.02.07.04.11.06.13.07.27.12.42.16.11.03.23.06.35.08.08.01.16.02.24.03.19.01.38.01.58,0,.05,0,.09-.01.14-.02.23-.03.47-.08.71-.17l.45-.16,8.57,9.52,14-5v-1l-2.2-4.39c.98.24,2.27.39,3.7.39,3.04,0,5.5-.67,5.5-1.5v-2.51c.16,0,.33,0,.5,0,3.04,0,5.5-.67,5.5-1.5v-3.5c0-.19-.02-.37-.06-.55Z" fill="#fff" opacity=".5" stroke="#fff" stroke-linejoin="round" stroke-width="3"/>
  <g>
    <path d="M44.12,10.71l-2.5-1.49h-.01c-.63-.36-1.42-.5-2.29-.3l-23.71,5.37c-1.71.39-3.1,2.15-3.1,3.9v22.1c0,.97.33,1.75.86,2.28v.02s1.99,2.02,1.99,2.02l25.85-8.93c1.96-.66,3.28-2.5,3.25-4.57l-.33-20.39Z" fill="url(#linear-gradient)" stroke="#787878" stroke-linejoin="round"/>
    <path d="M45.5,13.33v19.38c0,1.57-1.22,3.27-2.71,3.78l-24.31,8.65c-2.19.75-3.98-.53-3.98-2.84v-22.61c0-1.75,1.4-3.51,3.11-3.9l24.21-5.39c2.02-.46,3.68.85,3.68,2.92Z" fill="url(#linear-gradient-3)" stroke="#787878" stroke-linejoin="round"/>
    <g>
      <g>
        <path d="M17.5,27.5c.85-1.7,1.87-7.46,4-8s2.87,6.54,5,6c2.13-.54,3-8,3-8" fill="none" stroke="url(#linear-gradient-7)" stroke-linecap="round" stroke-linejoin="round"/>
        <path d="M17.5,24.5c.85-.85,1.87-1.46,4-2s2.87,1.54,5,1c2.13-.54,3-2,3-2" fill="none" opacity=".5" stroke="#646464" stroke-linecap="round" stroke-miterlimit="10"/>
      </g>
      <g>
        <path d="M42.65,18.12h0c0,2.74-2.16,5.58-4.81,6.33l-.21.06s-.08.02-.11.03c-.41.1-.81.16-1.21.16-2.28,0-3.92-1.76-3.92-4.18v-.28c0-2.86,2.26-5.76,4.61-6.31h0v5.66s5.66-1.46,5.66-1.46Z" fill="url(#linear-gradient-8)"/>
        <path d="M42.48,16.53l-4.47,1.29v-4.95s.15-.03.52-.03c2.3,0,3.95,2.06,3.95,3.7Z" fill="#646464" opacity=".5"/>
      </g>
      <path d="M18.5,35c.28,0,.5.22.5.5v6.11l-1,.33v-6.44c0-.28.22-.5.5-.5Z" fill="url(#linear-gradient-9)"/>
      <path d="M20.5,32c.28,0,.5.22.5.5v8.44l-1,.33v-8.77c0-.28.22-.5.5-.5Z" fill="url(#linear-gradient-10)"/>
      <path d="M22.5,30c.28,0,.5.22.5.5v9.78l-1,.33v-10.11c0-.28.22-.5.5-.5Z" fill="url(#linear-gradient-11)"/>
      <path d="M24.5,28c.28,0,.5.22.5.5v11.12l-1,.33v-11.45c0-.28.22-.5.5-.5Z" fill="url(#linear-gradient-12)"/>
      <path d="M26.5,33c.28,0,.5.22.5.5v5.46l-1,.33v-5.79c0-.28.22-.5.5-.5Z" fill="url(#linear-gradient-13)"/>
      <path d="M28.5,34c.28,0,.5.22.5.5v3.79l-1,.34v-4.13c0-.28.22-.5.5-.5Z" fill="url(#linear-gradient-14)"/>
    </g>
    <path d="M16.01,43.3v-22.61c0-1.51,1.25-3.08,2.73-3.41l24.21-5.39c.23-.05.46-.08.69-.08.39,0,.75.09,1.08.25-.15-.29-.34-.55-.59-.75-.41-.33-.93-.5-1.49-.5-.22,0-.45.03-.69.08l-24.21,5.39c-1.48.34-2.73,1.9-2.73,3.41v22.61c0,.95.34,1.72.96,2.16.1.07.21.12.32.17-.18-.38-.28-.83-.28-1.33Z" fill="url(#Dégradé_sans_nom_12)"/>
    <path d="M44.12,10.73v-.02s-2.5-1.49-2.5-1.49h-.01c-.63-.36-1.42-.5-2.29-.3l-23.71,5.37c-1.71.39-3.1,2.15-3.1,3.9v22.1c0,.97.33,1.75.86,2.28v.02s1.99,2.02,1.99,2.02h.02c.73.72,1.85.98,3.11.55l24.31-8.65c1.49-.51,2.71-2.21,2.71-3.78V13.33c0-1.18-.55-2.1-1.38-2.6Z" fill="none" stroke="#323232" stroke-linejoin="round"/>
    <path d="M43,31l-.02-6.94-5.98,3.94,2.35,1.17-.9,1.8-3.06-1.7c-.2-.11-.44-.14-.67-.07-.22.07-.41.22-.51.43l-2.21,4.42v3.23s.35-.11.35-.11l2.99-5.98,3.06,1.7c.2.11.44.14.67.07.22-.07.41-.22.51-.43l1.3-2.6,2.13,1.06Z" fill="#646464" opacity=".5"/>
  </g>
  <g>
    <g>
      <path d="M49,31.5c-3.04,0-5.5,1.79-5.5,4v3.5c0,.83,2.46,1.5,5.5,1.5s5.5-.67,5.5-1.5v-3.5c0-2.21-2.46-4-5.5-4Z" fill="url(#radial-gradient)" stroke="#787878" stroke-linejoin="round"/>
      <path d="M49,34c1.22,0,2.32-.45,3.18-1.18-.87-.51-1.97-.82-3.18-.82s-2.32.32-3.18.82c.87.72,1.97,1.18,3.18,1.18Z" fill="url(#radial-gradient-2)" opacity=".3"/>
      <circle cx="49" cy="29" r="3.5" fill="url(#radial-gradient-3)" stroke="#787878" stroke-linejoin="round"/>
    </g>
    <g>
      <path d="M43,35.5c-3.04,0-5.5,1.79-5.5,4v3.5c0,.83,2.46,1.5,5.5,1.5s5.5-.67,5.5-1.5v-3.5c0-2.21-2.46-4-5.5-4Z" fill="url(#radial-gradient-4)" stroke="#787878" stroke-linejoin="round"/>
      <path d="M43,38c1.22,0,2.32-.45,3.18-1.18-.87-.51-1.97-.82-3.18-.82s-2.32.32-3.18.82c.87.72,1.97,1.18,3.18,1.18Z" fill="url(#radial-gradient-5)" opacity=".3"/>
      <circle cx="43" cy="33" r="3.5" fill="url(#radial-gradient-6)" stroke="#787878" stroke-linejoin="round"/>
    </g>
    <path d="M51.08,31.8c.86-.64,1.42-1.65,1.42-2.8,0-1.93-1.57-3.5-3.5-3.5s-3.5,1.57-3.5,3.5c0,1.15.56,2.16,1.42,2.8-.2.06-.39.13-.58.2-.43-1.44-1.75-2.5-3.34-2.5-1.93,0-3.5,1.57-3.5,3.5,0,1.15.56,2.16,1.42,2.8-2,.6-3.42,2.03-3.42,3.7v3.5c0,.83,2.46,1.5,5.5,1.5s5.5-.67,5.5-1.5v-2.51c.16,0,.33,0,.5,0,3.04,0,5.5-.67,5.5-1.5v-3.5c0-1.67-1.41-3.1-3.42-3.7Z" fill="none" stroke="#323232" stroke-linejoin="round"/>
  </g>
  <g>
    <g>
      <polygon points="25.5 46.5 27.5 53.5 41.5 48.5 38.5 42.5 25.5 46.5" fill="url(#linear-gradient-15)" stroke="#787878" stroke-linejoin="round"/>
      <polygon points="41.5 48.5 41.5 49.5 27.5 54.5 27.5 53.5 41.5 48.5" fill="url(#linear-gradient-16)" stroke="#787878" stroke-linejoin="round"/>
      <polygon points="25.5 46.5 18.5 39.5 30.5 36.5 38.5 42.5 25.5 46.5" fill="url(#linear-gradient-5)" stroke="#787878" stroke-linejoin="round"/>
      <polygon points="27.5 54.5 27.5 53.5 25.5 46.5 18.5 39.5 18.5 44.5 27.5 54.5" fill="url(#linear-gradient-2)" stroke="#787878" stroke-linejoin="round"/>
      <rect x="29.3" y="45.67" width="7.91" height="3.16" transform="translate(-13.24 12.94) rotate(-18.43)" fill="url(#linear-gradient-17)" stroke="#787878" stroke-linejoin="round"/>
      <polygon points="25.5 44.5 35.5 41.5 30.5 37.5 21 40 25.5 44.5" fill="url(#linear-gradient-18)" stroke="#787878" stroke-linejoin="round"/>
      <polygon points="34 45.86 33 48.47 36.87 47.18 36.18 45.13 34 45.86" fill="url(#Dégradé_sans_nom_5)" opacity=".5"/>
    </g>
    <g>
      <path d="M28.5,27c-1.43,0-2.8.17-3.86.49l-3.49,1.3,1.81,4.52c.02.06.04.12.04.19v7c0,.51,1.94,1.5,5.5,1.5s5.5-.99,5.5-1.5v-12c0-.51-1.94-1.5-5.5-1.5Z" fill="url(#linear-gradient-19)" opacity=".8"/>
      <path d="M28.5,26.5c-1.54,0-2.94.19-4,.51,0,0-3.86,1.44-4,1.49.14.05,0,0,4,1.5h0c1.06.31,2.46.5,4,.5,3.31,0,6-.9,6-2s-2.69-2-6-2Z" fill="none" stroke="#787878" stroke-linejoin="round"/>
      <path d="M28.5,26.5c-1.54,0-2.94.19-4,.51,0,0-3.86,1.44-4,1.49l2,5v7c0,1.1,2.69,2,6,2s6-.9,6-2v-12c0-1.1-2.69-2-6-2Z" fill="none" stroke="#787878" stroke-linejoin="round"/>
      <g opacity=".75">
        <path d="M28.5,36c-3.04,0-5.5-.67-5.5-1.5v6c0,.51,1.94,1.5,5.5,1.5s5.5-.99,5.5-1.5v-6c0,.83-2.46,1.5-5.5,1.5Z" fill="url(#linear-gradient-20)"/>
      </g>
      <ellipse cx="28.5" cy="34.5" rx="5.5" ry="1.5" fill="url(#linear-gradient-21)" opacity=".85"/>
      <path d="M24.46,30.5s-.09-.01-.14-.03l-2.94-1.1,1.58,3.95c.02.06.04.12.04.19v7c0,.51,1.94,1.5,5.5,1.5s5.5-.99,5.5-1.5v-10.6c-2.05,1.23-6.76,1.4-9.54.6Z" fill="url(#linear-gradient-22)" opacity=".25"/>
      <path d="M24,33.08v6.92c1,1,3,1,4,1,0,0,0-4-1-4s-.5,2-1.5,2-.5-3-1.5-5.92Z" fill="#fff" opacity=".2"/>
      <path d="M33,32.36v1c-.71.28-1.77.49-3,.58v-1c1.23-.09,2.29-.3,3-.58Z" fill="#646464"/>
      <path d="M33,38.36v1c-.71.28-1.77.49-3,.58v-1c1.23-.09,2.29-.3,3-.58Z" fill="#646464"/>
      <path d="M31,35.83v1c.8-.11,1.49-.27,2-.47v-1c-.51.2-1.2.36-2,.47Z" fill="#646464"/>
    </g>
    <path d="M38.5,42.5l-4-3v-11c0-1.1-2.69-2-6-2-1.54,0-2.94.19-4,.51,0,0-3.86,1.44-4,1.49l2,5v5l-4,1v5l9,10,14-5v-1l-3-6Z" fill="none" stroke="#323232" stroke-linejoin="round"/>
  </g>
</svg>