<?xml version="1.0" encoding="UTF-8"?>
<svg xmlns="http://www.w3.org/2000/svg" xmlns:xlink="http://www.w3.org/1999/xlink" viewBox="0 0 64 64">
  <defs>
    <linearGradient id="linear-gradient" x1="12" y1="25.17" x2="17" y2="33.83" gradientUnits="userSpaceOnUse">
      <stop offset="0" stop-color="#aaa"/>
      <stop offset="1" stop-color="#5a5a5a"/>
    </linearGradient>
    <linearGradient id="linear-gradient-2" x1="22" y1="17.17" x2="27" y2="25.83" gradientUnits="userSpaceOnUse">
      <stop offset="0" stop-color="#fff"/>
      <stop offset="1" stop-color="#d4d5d3"/>
    </linearGradient>
    <radialGradient id="Nouvelle_nuance_de_dégradé_1" data-name="Nouvelle nuance de dégradé 1" cx="14.02" cy="13.15" fx="14.02" fy="13.15" r="9.05" gradientTransform="translate(16.7 13.93) scale(.5)" gradientUnits="userSpaceOnUse">
      <stop offset="0" stop-color="#000" stop-opacity="0"/>
      <stop offset="1" stop-color="#000"/>
    </radialGradient>
    <linearGradient id="Dégradé_sans_nom_26" data-name="Dégradé sans nom 26" x1="27.89" y1="19.43" x2="27.01" y2="22.34" gradientUnits="userSpaceOnUse">
      <stop offset=".09" stop-color="#fff" stop-opacity=".6"/>
      <stop offset=".34" stop-color="#fff" stop-opacity=".41"/>
      <stop offset=".64" stop-color="#fff" stop-opacity=".19"/>
      <stop offset=".87" stop-color="#fff" stop-opacity=".05"/>
      <stop offset="1" stop-color="#fff" stop-opacity="0"/>
    </linearGradient>
    <linearGradient id="Nouvelle_nuance_de_dégradé_2" data-name="Nouvelle nuance de dégradé 2" x1="22.96" y1="18.14" x2="21.89" y2="21.66" gradientUnits="userSpaceOnUse">
      <stop offset=".09" stop-color="#fff" stop-opacity=".6"/>
      <stop offset=".2" stop-color="#fff" stop-opacity=".57"/>
      <stop offset=".37" stop-color="#fff" stop-opacity=".49"/>
      <stop offset=".57" stop-color="#fff" stop-opacity=".37"/>
      <stop offset=".79" stop-color="#fff" stop-opacity=".19"/>
      <stop offset="1" stop-color="#fff" stop-opacity="0"/>
    </linearGradient>
    <radialGradient id="Dégradé_sans_nom_22" data-name="Dégradé sans nom 22" cx="13.56" cy="12.04" fx="13.56" fy="12.04" r="3.11" gradientTransform="translate(15.27 11.25) scale(.64)" gradientUnits="userSpaceOnUse">
      <stop offset="0" stop-color="#fff" stop-opacity=".6"/>
      <stop offset=".13" stop-color="#fff" stop-opacity=".52"/>
      <stop offset=".73" stop-color="#fff" stop-opacity=".15"/>
      <stop offset="1" stop-color="#fff" stop-opacity="0"/>
    </radialGradient>
    <linearGradient id="linear-gradient-3" x1="32" y1="9.17" x2="37" y2="17.83" gradientUnits="userSpaceOnUse">
      <stop offset="0" stop-color="#8cd7f5"/>
      <stop offset="1" stop-color="#376e8c"/>
    </linearGradient>
    <radialGradient id="Nouvelle_nuance_de_dégradé_1-2" data-name="Nouvelle nuance de dégradé 1" cx="23.24" cy="2.38" fx="23.24" fy="2.38" r="9.05" gradientTransform="translate(22.12 11.29) scale(.5)" xlink:href="#Nouvelle_nuance_de_dégradé_1"/>
    <linearGradient id="Dégradé_sans_nom_26-2" data-name="Dégradé sans nom 26" x1="37.89" y1="11.43" x2="37.01" y2="14.34" xlink:href="#Dégradé_sans_nom_26"/>
    <linearGradient id="Nouvelle_nuance_de_dégradé_2-2" data-name="Nouvelle nuance de dégradé 2" x1="32.96" y1="10.14" x2="31.89" y2="13.66" xlink:href="#Nouvelle_nuance_de_dégradé_2"/>
    <radialGradient id="Dégradé_sans_nom_22-2" data-name="Dégradé sans nom 22" cx="27.1" cy="3.16" fx="27.1" fy="3.16" r="3.11" gradientTransform="translate(16.55 8.97) scale(.64)" xlink:href="#Dégradé_sans_nom_22"/>
    <radialGradient id="Nouvelle_nuance_de_dégradé_1-3" data-name="Nouvelle nuance de dégradé 1" cx="5.21" cy="17.46" fx="5.21" fy="17.46" r="9.05" gradientTransform="translate(11.08 19.79) scale(.5)" xlink:href="#Nouvelle_nuance_de_dégradé_1"/>
    <linearGradient id="Dégradé_sans_nom_26-3" data-name="Dégradé sans nom 26" x1="17.89" y1="27.43" x2="17.01" y2="30.34" xlink:href="#Dégradé_sans_nom_26"/>
    <linearGradient id="Nouvelle_nuance_de_dégradé_2-3" data-name="Nouvelle nuance de dégradé 2" x1="12.96" y1="26.14" x2="11.89" y2="29.66" xlink:href="#Nouvelle_nuance_de_dégradé_2"/>
    <radialGradient id="Dégradé_sans_nom_22-3" data-name="Dégradé sans nom 22" cx="9.31" cy="15.91" fx="9.31" fy="15.91" gradientTransform="translate(8 16.76) scale(.64)" xlink:href="#Dégradé_sans_nom_22"/>
    <linearGradient id="linear-gradient-4" x1="21.35" y1="35.87" x2="22.65" y2="38.13" xlink:href="#linear-gradient-3"/>
    <linearGradient id="linear-gradient-5" x1="33.89" y1="46.1" x2="38.38" y2="53.87" gradientUnits="userSpaceOnUse">
      <stop offset=".15" stop-color="#73c3e1"/>
      <stop offset=".4" stop-color="#a0e1fa"/>
      <stop offset=".66" stop-color="#73c3e1"/>
      <stop offset=".8" stop-color="#a0e1fa"/>
    </linearGradient>
    <linearGradient id="linear-gradient-6" x1="18.97" y1="35.43" x2="31.34" y2="56.86" xlink:href="#linear-gradient-3"/>
    <radialGradient id="radial-gradient" cx="18.67" cy="46.93" fx="18.67" fy="46.93" r="19.8" gradientTransform="translate(1.17 30.45) rotate(4.23) scale(1 .32)" gradientUnits="userSpaceOnUse">
      <stop offset=".84" stop-color="#285a78"/>
      <stop offset="1" stop-color="#82bedc"/>
    </radialGradient>
    <linearGradient id="linear-gradient-7" x1="13.28" y1="52.44" x2="20.21" y2="53.11" gradientUnits="userSpaceOnUse">
      <stop offset=".53" stop-color="#3287af"/>
      <stop offset="1" stop-color="#285a78"/>
    </linearGradient>
    <linearGradient id="linear-gradient-8" x1="8.59" y1="42.91" x2="21.7" y2="36.68" gradientUnits="userSpaceOnUse">
      <stop offset="0" stop-color="#fff" stop-opacity="0"/>
      <stop offset=".71" stop-color="#fff" stop-opacity=".5"/>
    </linearGradient>
    <linearGradient id="linear-gradient-9" x1="23.87" y1="39.42" x2="26.06" y2="48.09" gradientUnits="userSpaceOnUse">
      <stop offset=".52" stop-color="#fff" stop-opacity="0"/>
      <stop offset=".84" stop-color="#fff" stop-opacity=".5"/>
    </linearGradient>
    <radialGradient id="radial-gradient-2" cx="19.3" cy="44.09" fx="19.3" fy="44.09" r="13.29" gradientTransform="translate(.2 34.8) scale(.99 .21)" gradientUnits="userSpaceOnUse">
      <stop offset=".75" stop-color="#646464" stop-opacity="0"/>
      <stop offset=".92" stop-color="#646464" stop-opacity=".5"/>
    </radialGradient>
    <linearGradient id="linear-gradient-10" x1="26.67" y1="31.45" x2="31.81" y2="36.54" gradientUnits="userSpaceOnUse">
      <stop offset=".21" stop-color="#82bedc"/>
      <stop offset=".21" stop-color="#81bddb"/>
      <stop offset=".4" stop-color="#5b92b0"/>
      <stop offset=".57" stop-color="#3f7391"/>
      <stop offset=".71" stop-color="#2e607e"/>
      <stop offset=".81" stop-color="#285a78"/>
    </linearGradient>
    <linearGradient id="linear-gradient-11" x1="23.09" y1="37.42" x2="28.79" y2="32.68" gradientUnits="userSpaceOnUse">
      <stop offset=".05" stop-color="#fff" stop-opacity="0"/>
      <stop offset=".89" stop-color="#fff" stop-opacity=".5"/>
    </linearGradient>
    <linearGradient id="linear-gradient-12" x1="40.27" y1="38.8" x2="40.92" y2="39.93" xlink:href="#linear-gradient-3"/>
    <linearGradient id="linear-gradient-13" x1="41.73" y1="40.09" x2="42.36" y2="41.19" gradientUnits="userSpaceOnUse">
      <stop offset="0" stop-color="#3287af"/>
      <stop offset="1" stop-color="#285a78"/>
    </linearGradient>
    <linearGradient id="linear-gradient-14" x1="53.94" y1="40.47" x2="55.83" y2="48.64" xlink:href="#linear-gradient-5"/>
    <linearGradient id="linear-gradient-15" x1="38.56" y1="48.58" x2="50.77" y2="44.85" gradientUnits="userSpaceOnUse">
      <stop offset=".29" stop-color="#fff" stop-opacity="0"/>
      <stop offset=".89" stop-color="#fff" stop-opacity=".5"/>
    </linearGradient>
    <linearGradient id="linear-gradient-16" x1="47.74" y1="34.72" x2="48.65" y2="41.65" gradientUnits="userSpaceOnUse">
      <stop offset=".61" stop-color="#fff" stop-opacity="0"/>
      <stop offset="1" stop-color="#fff" stop-opacity=".5"/>
    </linearGradient>
    <linearGradient id="linear-gradient-17" x1="40" y1="38.01" x2="44" y2="38.01" xlink:href="#linear-gradient-3"/>
    <linearGradient id="linear-gradient-18" x1="42.35" y1="38.5" x2="43.68" y2="40.81" xlink:href="#linear-gradient-13"/>
    <linearGradient id="linear-gradient-19" x1="40.64" y1="22.25" x2="45.06" y2="26.31" gradientUnits="userSpaceOnUse">
      <stop offset=".18" stop-color="#bebebe"/>
      <stop offset=".32" stop-color="#f5f5f5"/>
      <stop offset=".6" stop-color="#c6c6c6"/>
      <stop offset=".8" stop-color="#ddd"/>
      <stop offset=".96" stop-color="#a49f9f"/>
    </linearGradient>
    <radialGradient id="radial-gradient-3" cx="36.45" cy="27.46" fx="36.45" fy="27.46" r="3.21" gradientTransform="" gradientUnits="userSpaceOnUse">
      <stop offset="0" stop-color="#aaa"/>
      <stop offset="1" stop-color="#5a5a5a"/>
    </radialGradient>
    <linearGradient id="linear-gradient-20" x1="47.66" y1="14.42" x2="52.46" y2="19.37" gradientUnits="userSpaceOnUse">
      <stop offset="0" stop-color="#8cd7f5"/>
      <stop offset=".52" stop-color="#376e8c"/>
    </linearGradient>
  </defs>
  <g id="Apparence">
    <g>
      <circle cx="24.5" cy="21.5" r="5" style="fill: url(#linear-gradient-2); stroke: #323232; stroke-linejoin: round;"/>
      <circle cx="24.5" cy="21.5" r="4.5" style="fill: url(#Nouvelle_nuance_de_dégradé_1); opacity: .3;"/>
      <path d="M28.73,20.23c-.57-.96-1.7-1.47-2.3-1.13s-.56,1.51.01,2.47c.57.96,1.23,1.68,1.83,1.34s1.03-1.72.46-2.68Z" style="fill: url(#Dégradé_sans_nom_26); opacity: .4;"/>
      <path d="M22.72,21.03c0-.88.44-1.64,1.08-2,.23-.13.26-.43.09-.62-.05-.06-.11-.11-.16-.17-.27-.26-.71-.32-1.04-.12-1.01.61-1.69,1.69-1.69,2.91,0,.22.02.43.06.64s.25.35.47.33c.31-.03.6-.07.88-.13.22-.05.37-.24.33-.46-.02-.13-.03-.26-.03-.39Z" style="fill: url(#Nouvelle_nuance_de_dégradé_2); opacity: .75;"/>
      <circle cx="24" cy="19" r="2" style="fill: url(#Dégradé_sans_nom_22);"/>
    </g>
    <g>
      <circle cx="34.5" cy="13.5" r="5" style="fill: url(#linear-gradient-3); stroke: #003755; stroke-linejoin: round;"/>
      <circle cx="34.5" cy="13.5" r="4.5" style="fill: url(#Nouvelle_nuance_de_dégradé_1-2); opacity: .3;"/>
      <path d="M38.73,12.23c-.57-.96-1.7-1.47-2.3-1.13s-.56,1.51.01,2.47c.57.96,1.23,1.68,1.83,1.34s1.03-1.72.46-2.68Z" style="fill: url(#Dégradé_sans_nom_26-2); opacity: .4;"/>
      <path d="M32.72,13.03c0-.88.44-1.64,1.08-2,.23-.13.26-.43.09-.62-.05-.06-.11-.11-.16-.17-.27-.26-.71-.32-1.04-.12-1.01.61-1.69,1.69-1.69,2.91,0,.22.02.43.06.64s.25.35.47.33c.31-.03.6-.07.88-.13.22-.05.37-.24.33-.46-.02-.13-.03-.26-.03-.39Z" style="fill: url(#Nouvelle_nuance_de_dégradé_2-2); opacity: .75;"/>
      <circle cx="34" cy="11" r="2" style="fill: url(#Dégradé_sans_nom_22-2);"/>
    </g>
    <g>
      <circle cx="14.5" cy="29.5" r="5" style="fill: url(#linear-gradient); stroke: #323232; stroke-linejoin: round;"/>
      <circle cx="14.5" cy="29.5" r="4.5" style="fill: url(#Nouvelle_nuance_de_dégradé_1-3); opacity: .3;"/>
      <path d="M18.73,28.23c-.57-.96-1.7-1.47-2.3-1.13s-.56,1.51.01,2.47c.57.96,1.23,1.68,1.83,1.34s1.03-1.72.46-2.68Z" style="fill: url(#Dégradé_sans_nom_26-3); opacity: .4;"/>
      <path d="M12.72,29.03c0-.88.44-1.64,1.08-2,.23-.13.26-.43.09-.62-.05-.06-.11-.11-.16-.17-.27-.26-.71-.32-1.04-.12-1.01.61-1.69,1.69-1.69,2.91,0,.22.02.43.06.64s.25.35.47.33c.31-.03.6-.07.88-.13.22-.05.37-.24.33-.46-.02-.13-.03-.26-.03-.39Z" style="fill: url(#Nouvelle_nuance_de_dégradé_2-3); opacity: .75;"/>
      <circle cx="14" cy="27" r="2" style="fill: url(#Dégradé_sans_nom_22-3);"/>
    </g>
  </g>
  <g id="Car_SVG" data-name="Car SVG">
    <g>
      <path d="M44.93,50.42l-5.11,1.58c-.64,2.46-2.25,4.1-3.99,4h0c-.29.05-.73.08-1.41.08-.63,0-1.46-.03-2.57-.08-.73-.04-1.42-.38-2.01-.97-1.26-.01-3.09-.05-5.16-.13-3.1-.12-7.51-.36-10.97-.86-6.28-.9-7.39-1.76-7.66-2.55-.1-.3-.11-.77.42-1.3.06-.06.13-.24.14-.43.02-.38-.09-.94-.22-1.6-.13-.64-.27-1.37-.32-2.13-.03-.37-.03-.74-.01-1.1.03-.51.14-1.11.29-1.56.08-.24.18-.48.29-.7,1.95-3.92,8.32-5.14,12.37-5.52-.01-.05-.01-.1-.01-.15,0-1.12,1.32-2,3-2,.36,0,.72.04,1.06.13,2.07-2,6.55-5.09,14.44-5.13-1.29.8-2.85,2.43-3.29,3.83-.49,1.55.04,2.97,1.46,3.92,1.27.85,2.79,1,4.14,1.13,1.16.12,2.26.23,2.64.74.2.28.49,1.05.08,3.09-.71,3.56-.36,5.88,1.07,7.06.43.36.89.55,1.33.65Z" style="fill: #003755;"/>
      <path d="M22,36c-1.14,0-2,.53-2,1s.86,1,2,1,2-.53,2-1-.86-1-2-1Z" style="fill: url(#linear-gradient-4);"/>
      <g>
        <path d="M36.45,43.98s-.15,0-.15,0h-3.97c-2.15,0-3.96,2.55-4.13,5.8-.17,3.37,1.43,6.1,3.65,6.21,1.1.05,1.94.08,2.56.08.67,0,1.51-.02,1.55-.02.74,0,1.46-.35,2.1-.93,1.17-1.05,1.92-2.89,2.03-4.92.17-3.37-1.43-6.1-3.65-6.22Z" style="fill: #003755;"/>
        <path d="M38.89,47.85c-.29-1.13-.83-2.03-1.51-2.52-.3-.21-.64-.34-.98-.36h-.09c-.22,0-.44.04-.65.13-.49.18-.96.57-1.37,1.14-.23.32-.42.69-.58,1.09-.21.47-.36,1-.45,1.55-.05.31-.08.61-.1.93-.05.99.08,1.94.36,2.75.2.6.47,1.12.8,1.52.43.54.96.87,1.55.9.61,0,1.2-.3,1.72-.83.37-.39.7-.91.94-1.51.32-.73.52-1.58.57-2.51,0-.19,0-.38,0-.56,0-.61-.09-1.2-.23-1.73ZM38,48.46l-1.89,1.27c-.03-.2-.1-.36-.18-.48l1.06-2.89c.42.39.81,1.11,1,2.09ZM35.1,46.88c.18-.24.36-.44.55-.59v2.75c-.18,0-.32.18-.41.44l-.81-1.14c.17-.55.4-1.05.68-1.45ZM34.16,49.93c0-.19.03-.39.06-.57l.94.45c0,.08-.02.15-.02.23,0,.19.03.35.08.5l-.94,1.12c-.1-.51-.15-1.09-.12-1.73ZM35.97,54.05h-.04c-.4-.02-.86-.43-1.22-1.13l.67-2.05c.08.11.17.18.27.18.13,0,.25-.11.34-.28l1.16,2.45c-.38.54-.81.83-1.17.83ZM36.09,50.45c.03-.13.05-.26.05-.41,0-.02,0-.04,0-.06l2-.26c0,.13,0,.28,0,.42-.04.69-.16,1.3-.35,1.82l-1.68-1.51Z" style="fill: url(#linear-gradient-5);"/>
      </g>
      <path d="M43.61,49.78s0,0,0,0c-1.43-1.19-1.78-3.5-1.07-7.07.41-2.04.12-2.81-.08-3.09-.38-.51-1.47-.62-2.64-.74-.43-.04-.87-.09-1.32-.16-10.28.92-16.09-.53-16.83-.73-.99.01-12.58.29-14.37,5.68-.49,1.49-.18,3.03.07,4.27.25,1.22.46,2.28-.19,2.94-.14.14-.19.25-.18.29.07.22.78,1,6.85,1.88,5.29.76,12.97.94,16.02.98.74,0,1.39-.54,1.49-1.29.37-2.75,1.36-7.6,3.79-9.25.79-.53,1.66-.69,2.6-.45.94.24,1.66.78,2.15,1.62,1.07,1.86.69,4.71.4,6.14l3.31-1.03Z" style="fill: url(#linear-gradient-6);"/>
      <path d="M39.9,43.67c-.49-.85-1.21-1.4-2.16-1.64-.94-.23-1.81-.08-2.61.46-2.42,1.65-3.4,6.5-3.77,9.24-.1.75-.75,1.28-1.49,1.29-3.06-.04-10.74-.22-16.02-.98-4.13-.59-5.77-1.15-6.43-1.51-.06.13-.14.25-.24.35-.15.15-.19.25-.18.28.07.22.78,1,6.85,1.88,5.29.76,12.97.94,16.02.98.74,0,1.39-.55,1.49-1.29.37-2.74,1.35-7.59,3.77-9.24.79-.54,1.67-.69,2.61-.46.94.24,1.67.79,2.16,1.64.46.81.64,1.8.69,2.79.06-1.28-.06-2.7-.69-3.79Z" style="fill: #003755; opacity: .5;"/>
      <path d="M36.44,38.16c-2.38.49-4.75,1.03-7.09,1.68-2.96.92-6.19,1.65-8.61,3.69,2.51-1.9,5.75-2.44,8.73-3.2,3-.65,6.04-1.18,9.07-1.59-.71-.1-1.42-.27-2.1-.57Z" style="fill: #003755; opacity: .5;"/>
      <path d="M13.85,53.05c3.38.49,7.72.73,10.79.85.71-.19,1.1-.41,1.6-.68.21-.12.44-.24.71-.37-.61-.86-1.17-1.5-1.44-1.78-1.1.08-5.73.35-11.8-.52-4.19-.6-5.62-1.03-6.13-1.37.08.71.02,1.31-.4,1.73-.14.14-.19.25-.18.29.07.22.78,1,6.85,1.88Z" style="fill: url(#radial-gradient);"/>
      <path d="M21.3,51.15l-.07,1.89-.69.64c-2.26-.14-4.65-.34-6.7-.64-2.13-.31-3.6-.6-4.61-.86l1.06-.64.03-1.56c.85.17,1.96.36,3.38.56,2.95.42,5.56.57,7.59.61Z" style="fill: #003755;"/>
      <g style="opacity: .5;">
        <path d="M21.23,53.05l-.69.64c-2.26-.14-4.65-.34-6.7-.64-2.13-.31-3.6-.6-4.61-.86l1.06-.64,2.98.5,7.95,1Z" style="fill: url(#linear-gradient-7);"/>
      </g>
      <path d="M9.74,43.93c.59-1.16,1.99-3.16,4.92-3.9l7.52-1.9c-.25-.06-.42-.1-.51-.12-.91.01-11.34.25-13.99,4.83.25.28.82.68,2.06,1.08Z" style="fill: url(#linear-gradient-8);"/>
      <path d="M42.45,39.62c-.25-.34-.83-.5-1.54-.61-.52,0-1.11,0-1.79,0-7.95,0-4.97,4.01-14.9,6.01-4.97,1-14.07-.02-14.07-.02-.02,0-.04,0-.06-.02-1.16-.36-2.08-.78-2.58-1.2l-.34.42c-.21.99-.11,1.98.05,2.88.59.28,1.25.54,2.01.77,1.64.51,3.6.86,5.52,1,1.94.14,3.78.2,5.5.2.67,0,1.31-.01,1.94-.03,1.96-.05,3.83-.18,5.71-.39,1.52-.18,3.62-1.38,4.83-2.57.58-1.51,1.36-2.86,2.43-3.58.79-.54,1.67-.69,2.61-.46.69.17,1.26.52,1.71,1.02l3.12-.63c.33-1.82.07-2.54-.13-2.81Z" style="fill: url(#linear-gradient-9);"/>
      <g>
        <path d="M27.75,45.03h0c-.75.08-1.54.18-2.38.29-1.48.19-3.15.41-4.93.53-2.01.14-3.86.15-5.63.02-1.56-.11-3.18-.38-4.57-.75-1-.27-2.2-.7-2.97-1.31-.09.29-.15.6-.18.92.62.45,1.56.87,2.72,1.23,1.49.46,3.3.79,5.08.92,2.62.18,5.06.24,7.25.17,1.9-.05,3.71-.17,5.52-.38,1.21-.15,2.28-.74,3.01-1.67l.03-.04c-.79-.04-1.83-.05-2.95.07Z" style="fill: #fff;"/>
        <path d="M27.74,45.03c-.67.07-1.41.17-2.21.27-2.95.38-6.62.86-10.73.57-.25-.02-5.52-.42-7.54-2.05-.09.29-.15.59-.18.91,1.67,1.21,5.16,1.96,7.79,2.15,4.51.32,8.82.25,12.78-.21,1.21-.15,2.28-.74,3.02-1.67l.03-.04c-.79-.04-1.83-.05-2.95.07Z" style="fill: url(#radial-gradient-2); opacity: .5;"/>
        <path d="M32.13,44.33c-.07-.17-.23-.28-.41-.3-.78-.08-2.34-.18-4.08,0-.76.08-1.56.18-2.41.29-1.46.19-3.12.41-4.87.53-1.97.14-3.76.15-5.49.02-1.5-.11-3.05-.36-4.38-.71-1.57-.43-2.68-.99-2.96-1.51-.09-.17-.26-.29-.45-.26-.19,0-.36.11-.44.28-.11.22-.22.47-.3.71-.16.49-.26,1-.29,1.56-.01.16.06.32.18.42.71.59,1.84,1.13,3.26,1.56,1.56.49,3.45.83,5.3.96,1.92.13,3.74.2,5.44.2.66,0,1.3-.01,1.91-.03,1.93-.05,3.76-.17,5.61-.38,1.47-.18,2.78-.9,3.68-2.04l.62-.78c.11-.14.14-.34.07-.5ZM7.26,43.81c.64.51,1.57.88,2.44,1.15l-.34.85c-.95-.32-1.74-.69-2.28-1.08.03-.32.09-.62.18-.92ZM14.87,46.88c-1.58-.12-3.17-.39-4.55-.78l.35-.87c1.29.31,2.73.54,4.13.64,1.7.12,3.46.12,5.37,0l.95,1.2c-1.93.03-4.02-.03-6.25-.19ZM30.66,45c-.74.93-1.81,1.52-3.01,1.67-1.74.2-3.47.32-5.28.37l-1-1.26c1.43-.13,2.78-.3,3.99-.46.84-.11,1.63-.21,2.38-.29h0c1.12-.12,2.16-.11,2.95-.07l-.03.04Z" style="fill: #003755;"/>
      </g>
      <path d="M35.67,37.75c-1.42-.95-1.95-2.37-1.46-3.92.3-.93,1.08-1.96,1.96-2.79-8.46.44-12.43,4.61-13.61,6.14,1.66.36,6.28,1.13,13.39.73-.09-.05-.19-.1-.28-.16Z" style="fill: url(#linear-gradient-10);"/>
      <path d="M43.61,49.78l-3.31,1.03c.29-1.43.67-4.28-.4-6.14-.49-.84-1.21-1.39-2.15-1.62-.93-.24-1.81-.08-2.6.45-2.43,1.64-3.41,6.5-3.79,9.25-.1.75-.75,1.3-1.49,1.29-.74,0-1.76-.03-2.94-.06.27-.15.56-.3.95-.47.14-.06.24-.17.28-.32s.02-.29-.06-.42c-1.01-1.53-2.01-2.54-2.05-2.58-.11-.11-.26-.16-.4-.14-.05,0-4.98.48-11.8-.5-3.96-.57-5.18-.96-5.55-1.12,0-.04-.02-.07-.04-.11l-1.21-2.45c-.04-.71,0-1.45.24-2.18,1.78-5.4,13.41-5.67,14.37-5.68.56.15,4.08,1.03,10.28,1.03,1.92,0,4.11-.09,6.55-.3-.87-.13-1.75-.36-2.55-.82-7.11.4-11.73-.37-13.38-.72.77-1,2.71-3.1,6.29-4.58.81.2,3.7.33,5.75.38.67-1.17,1.86-2.34,2.9-2.98-10.88.05-15.21,5.74-16.04,7-1.95.04-13.17.51-15.1,6.37-.57,1.74-.23,3.42.04,4.78.18.91.35,1.76.08,2.04-.53.53-.52,1-.42,1.3.26.79,1.37,1.64,7.65,2.55,5.34.77,13.08.95,16.15.99h.04c1.24,0,2.29-.92,2.46-2.16.22-1.62,1.11-7.03,3.36-8.55.55-.38,1.14-.48,1.8-.31.68.17,1.18.55,1.53,1.16,1.24,2.14.11,6.2.1,6.24-.05.18,0,.37.13.49.13.13.33.17.5.12l5.16-1.6c-.44-.1-.89-.28-1.32-.64ZM24.64,53.9c-3.42-.13-7.55-.38-10.79-.84-6.07-.87-6.78-1.66-6.85-1.88-.01-.04.04-.14.18-.29.42-.43.48-1.03.4-1.74.5.34,1.92.77,6.13,1.38,6.07.88,10.7.61,11.8.52.26.29.83.93,1.44,1.78-.27.13-.5.26-.71.37-.5.27-.9.49-1.6.68Z" style="fill: #003755;"/>
      <path d="M43.6,49.77c-.26-.22-.48-.49-.67-.79l-2.45.76c-.05.4-.12.76-.18,1.06l3.31-1.03s0,0,0,0Z" style="fill: #003755; opacity: .5;"/>
      <path d="M28.86,32.61c-3.59,1.48-5.54,3.58-6.3,4.59.38.08.91.18,1.58.29,1.03-1.18,3-3.11,5.81-4.72-.48-.04-.87-.09-1.1-.15Z" style="fill: url(#linear-gradient-11);"/>
      <path d="M40.8,39.12s.09-.07.13-.1c-.27-.04-.56-.07-.86-.1.1.62.28,1.09.43,1.09.25,0,.36-.04.4-.05-.02-.02-.04-.12-.13-.29-.09-.17-.08-.38.03-.54Z" style="fill: url(#linear-gradient-12);"/>
      <path d="M42.45,39.62c-.25-.34-.82-.5-1.52-.6-.05.03-.1.06-.13.1-.12.16-.13.37-.03.54.1.17.12.27.13.29-.04.02-.15.05-.4.05-.15,0-.33-.46-.43-1.09-.09,0-.18-.02-.26-.03-.25-.03-.5-.05-.76-.08.1.91.43,2.2,1.45,2.2.63,0,1.05-.18,1.26-.53.08-.14.13-.3.13-.47.25,0,.49,0,.72-.04-.05-.16-.11-.27-.16-.34Z" style="fill: #003755;"/>
      <g style="opacity: .5;">
        <path d="M42.61,39.96c-.23.03-.47.05-.72.04,0,.17-.04.33-.13.47-.11.19-.3.33-.54.42.31.07.66.12,1.03.12.17,0,.33,0,.48-.02,0-.47-.05-.79-.12-1.02Z" style="fill: url(#linear-gradient-13);"/>
      </g>
    </g>
    <g style="opacity: .25;">
      <path d="M57.96,43.71c.05.51.05,1.04,0,1.56-.16,1.81-.84,3.36-1.83,4.17-.57.5-1.15.58-1.61.56h-1.97c-.63-.06-1.2-.43-1.65-1.08l-.21-.29-5.77,1.79c-.44-.1-.9-.29-1.33-.65-1.43-1.18-1.78-3.5-1.07-7.06.41-2.04.12-2.81-.08-3.09-.38-.51-1.48-.62-2.64-.74-1.35-.13-2.87-.28-4.14-1.13-1.42-.95-1.95-2.37-1.46-3.92.44-1.4,2-3.03,3.29-3.83l1.26.02c3.44-.12,10.27.89,12.81,3.7l.12.12.16.03c2.49.46,4.21,1.62,5.11,3.43.82,1.65,1,4.47,1.04,6.01,0,.08-.01.16-.02.24l-.02.08v.08Z" style="fill: #003755;"/>
      <g>
        <path d="M55.43,40.01c-.06,0-.19,0-.19,0l-1.98.02c-1.61,0-3,2.03-3.23,4.72-.24,2.8.87,5.11,2.53,5.25.03,0,.06,0,2.17,0h0c.49,0,.99-.2,1.43-.57.97-.82,1.64-2.37,1.8-4.17.24-2.8-.87-5.11-2.53-5.25Z" style="fill: #003755;"/>
        <path d="M55.35,41c-1.43,0-2.2,2.37-2.32,3.82-.08.9,0,1.71.18,2.37h0c.2.73.7,1.74,1.44,1.81,1.35.09,2.2-2.33,2.32-3.82.15-1.38-.3-4.04-1.62-4.18ZM55.83,46.01l-.83-1.01.5,2.01c-.28.62-.6.96-.73.99-.1-.04-.25-.22-.39-.52h0s.62-2.48.62-2.48l-.96,1.18c-.07-.66-.02-1.15.02-1.63l.94.45-.7-1.47c.2-.65.49-1.09.7-1.33v2.8l.74-2.17c.1.27.18.61.22,1l-.96,1.17.98-.04c0,.1-.05.58-.15,1.05Z" style="fill: url(#linear-gradient-14);"/>
      </g>
      <path d="M55.51,39.02c.43,0,.78.13,1.07.35-.13-.61-.3-1.18-.53-1.63-1.24-2.5-3.61-2.73-4.3-2.74-.7.68-3.64,2.85-13.09,3.72-.06,0-.11,0-.17.01.45.07.89.12,1.32.16,1.17.12,2.26.23,2.64.74.21.28.49,1.05.08,3.09-.71,3.57-.36,5.88,1.07,7.07,0,0,0,0,0,0l7.58-2.35c.54-.17.94-.63,1.03-1.2,1.19-7.21,2.77-7.21,3.29-7.21Z" style="fill: #46809e;"/>
      <path d="M49.55,41.02l-.99,4.01,3.74-.22c.35-2.01.73-3.43,1.11-4.43l-3.85.64Z" style="fill: #fff; opacity: .2;"/>
      <path d="M48.56,45.03s-3.48,1-5.46,2.51c0,0,8.81-2.41,9.21-2.72l-3.74.22Z" style="fill: url(#linear-gradient-15);"/>
      <path d="M37.63,31c-.5,0-.99.02-1.46.04-.87.83-1.66,1.86-1.96,2.79-.49,1.54.04,2.97,1.46,3.92.09.06.19.11.28.16.84-.05,1.71-.11,2.63-.19,8.52-.78,11.49-2.62,12.31-3.28-.75-.87-3.78-3.44-13.25-3.44Z" style="fill: #285a78;"/>
      <path d="M55.57,38.02c-.47-.88-1.32-2.01-2.54-2.01-1.99,0-.99,1-4.97,2-3.42.86-3.91.98-7.15,1,.7.1,1.28.27,1.54.61.2.26.45.99.13,2.81l6.97-1.41,3.85-.64c.89-2.36,1.75-2.37,2.11-2.37.02,0,.03,0,.05,0Z" style="fill: url(#linear-gradient-16);"/>
      <path d="M57,43.53h0c0,.28.22.5.5.5s.48-.21.5-.47c0,0,0-.01,0-.02h0c0-.19-.01-4.16-1.04-6.25-1.46-2.95-4.23-3.27-5.15-3.29-.7-.95-3.75-4-14.18-4-.05,0-.09,0-.13,0-1.04.64-2.23,1.81-2.9,2.98.52.01.99.02,1.36.02,2.91,0,4.94-.1,6.51-.24-2.27,1.37-3.74,4.1-4.17,4.98-.81.07-1.59.12-2.35.17.8.46,1.68.69,2.55.82.06,0,.11,0,.17-.01,3.95-.36,6.75-.95,8.74-1.57,0,0,0,0,0,0,.66.66,1.26,1.46,1.59,2.33.39.94.22,2.04.02,3.11-.19,1.06-.64,2.16-.61,3.29-.12.88-.37,1.75-.65,2.61l.06-.02c.33-.83.64-1.67.83-2.56.06-1.12.56-2.1.85-3.2.15-.54.28-1.1.35-1.68.08-.56.04-1.22-.14-1.79-.28-.9-.74-1.69-1.31-2.42,0,0,0,0,0,0,2.08-.75,3.01-1.48,3.37-1.83.69,0,3.06.24,4.3,2.74.23.45.4,1.02.53,1.63-.29-.22-.65-.35-1.07-.35-.52,0-2.11,0-3.29,7.21-.09.57-.49,1.03-1.03,1.2l-7.58,2.35c.43.35.88.54,1.32.64l6.56-2.04c.91-.28,1.57-1.04,1.72-1.99.72-4.38,1.7-6.38,2.31-6.38,1.18,0,1.47,2.49,1.49,3.45v.06h0ZM39.48,37.63c.78-1.42,2.66-4.28,5.17-4.63.19-.03.4-.04.63-.05l1.57,3.32c-1.73.51-4.12,1.01-7.37,1.35ZM47.81,35.97l-1.4-2.97c1.89.21,3.52,1.07,4.31,1.57-.46.33-1.34.86-2.91,1.4Z" style="fill: #003755;"/>
      <path d="M55.51,39.02c.41,0,.75.11,1.07.35-.08-.46-.2-.78-.32-1.13-.22-.13-.48-.22-.75-.22-.52,0-2.1,0-3.29,7.21-.09.57-.49,1.03-1.03,1.2l-8.26,2.56c.19.3.41.57.67.79,0,0,0,0,0,0l7.58-2.35c.54-.17.94-.63,1.03-1.2,1.19-7.21,2.77-7.21,3.29-7.21Z" style="fill: #003755; opacity: .5;"/>
      <path d="M42,37c-1.14,0-2,.53-2,1,0,.32.03.63.07.91.3.03.59.06.86.1.11-.07.23-.12.37-.09.25.05.48.08.7.08,1.14,0,2-.53,2-1s-.86-1-2-1Z" style="fill: url(#linear-gradient-17);"/>
      <g style="opacity: .5;">
        <path d="M42.25,39c-.33,0-.64.03-.92.09.51.11.92.26,1.12.53.13.18.29.56.29,1.36,1.01-.1,1.77-.5,1.77-.98,0-.55-1.01-1-2.25-1Z" style="fill: url(#linear-gradient-18);"/>
      </g>
      <path d="M42,36c-1.68,0-3,.88-3,2,0,.14,0,.44.05.8.26.03.51.06.76.08.09,0,.18.02.26.03-.04-.28-.07-.59-.07-.91,0-.47.86-1,2-1s2,.53,2,1-.86,1-2,1c-.22,0-.45-.02-.7-.08-.13-.03-.26.02-.37.09.7.11,1.27.27,1.52.6.05.07.11.18.16.34,1.37-.18,2.39-.98,2.39-1.96,0-1.12-1.32-2-3-2Z" style="fill: #003755;"/>
    </g>
  </g>
  <g id="Brush">
    <path d="M55.21,10.79c-.39-.39-1.02-.39-1.41,0l-6.51,4.7c-1.84,1.33-3.43,2.98-4.69,4.87l-.1.14-3,4s-2.27-.64-4,1-1,2.66-1,4.3-1,2.7-1,2.7c2.59,0,5.19-1,6.92-2.64,1.73-1.64,1.08-3.36,1.08-3.36l4-3,.14-.1c1.89-1.26,3.54-2.85,4.87-4.69l4.7-6.51c.39-.39.39-1.02,0-1.41Z" style="fill: #fff; opacity: .5; stroke: #fff; stroke-linejoin: round; stroke-width: 3px;"/>
    <polygon points="42.5 20.5 39.5 24.5 41.5 26.5 45.5 23.5 42.5 20.5" style="fill: url(#linear-gradient-19); stroke: #323232; stroke-linejoin: round;"/>
    <path d="M39.5,24.5l2,2s.65,1.72-1.08,3.36-4.32,2.64-6.92,2.64c0,0,1-1.06,1-2.7s-.73-2.66,1-4.3c1.73-1.64,4-1,4-1Z" style="fill: url(#radial-gradient-3); stroke: #323232; stroke-linejoin: round;"/>
    <path d="M55.21,10.79c-.39-.39-1.02-.39-1.41,0l-6.51,4.7c-1.84,1.33-3.43,2.98-4.69,4.87l-.1.14,3,3,.14-.1c1.89-1.26,3.54-2.85,4.87-4.69l4.7-6.51c.39-.39.39-1.02,0-1.41Z" style="fill: url(#linear-gradient-20); stroke: #003755; stroke-linejoin: round;"/>
  </g>
</svg>