<?xml version="1.0" encoding="UTF-8"?>
<svg xmlns="http://www.w3.org/2000/svg" xmlns:xlink="http://www.w3.org/1999/xlink" viewBox="0 0 64 64">
  <defs>
    <linearGradient id="b" x1="11.28" y1="12.82" x2="20.72" y2="29.18" gradientUnits="userSpaceOnUse">
      <stop offset="0" stop-color="#fff"/>
      <stop offset="1" stop-color="#d4d5d3"/>
    </linearGradient>
    <linearGradient id="d" x1="37.27" y1="30.34" x2="50.73" y2="53.66" xlink:href="#b"/>
    <linearGradient id="g" data-name="Dégradé sans nom 4" x1="16" y1="24.82" x2="16" y2="16.11" gradientUnits="userSpaceOnUse">
      <stop offset="0" stop-color="#000" stop-opacity="0"/>
      <stop offset="1" stop-color="#000"/>
    </linearGradient>
    <linearGradient id="h" data-name="Dégradé sans nom 11" x1="16" y1="24.82" x2="16" y2="16.11" gradientUnits="userSpaceOnUse">
      <stop offset="0" stop-color="#fff"/>
      <stop offset=".29" stop-color="#fff" stop-opacity=".59"/>
      <stop offset=".54" stop-color="#fff" stop-opacity=".27"/>
      <stop offset=".72" stop-color="#fff" stop-opacity=".08"/>
      <stop offset=".8" stop-color="#fff" stop-opacity="0"/>
    </linearGradient>
    <linearGradient id="i" x1="37.27" y1="30.34" x2="50.73" y2="53.66" xlink:href="#b"/>
    <linearGradient id="j" data-name="Dégradé sans nom 4" x1="44" y1="46.58" x2="44" y2="36.13" xlink:href="#g"/>
    <linearGradient id="k" data-name="Dégradé sans nom 11" x1="44" y1="46.58" x2="44" y2="36.13" xlink:href="#h"/>
    <linearGradient id="m" x1="24.39" y1="19.31" x2="39.61" y2="45.68" gradientUnits="userSpaceOnUse">
      <stop offset="0" stop-color="#8cd7f5"/>
      <stop offset=".76" stop-color="#376e8c"/>
    </linearGradient>
    <radialGradient id="n" cx="20.88" cy="22.44" fx="20.88" fy="22.44" r="22.51" gradientUnits="userSpaceOnUse">
      <stop offset="0" stop-color="#8cd7f5"/>
      <stop offset="1" stop-color="#376e8c"/>
    </radialGradient>
    <filter id="p" x="6" y="12" width="52" height="41" color-interpolation-filters="sRGB" filterUnits="userSpaceOnUse">
      <feColorMatrix result="cm" values="-1 0 0 0 1 0 -1 0 0 1 0 0 -1 0 1 0 0 0 1 0"/>
    </filter>
    <radialGradient id="q" cx="14.21" cy="42.68" fx="14.21" fy="42.68" r="33.09" gradientUnits="userSpaceOnUse">
      <stop offset="0" stop-color="#fff"/>
      <stop offset=".38" stop-color="#fdfdfd"/>
      <stop offset=".52" stop-color="#f6f6f6"/>
      <stop offset=".62" stop-color="#eaeaea"/>
      <stop offset=".7" stop-color="#dad9d9"/>
      <stop offset=".77" stop-color="#c4c3c3"/>
      <stop offset=".83" stop-color="#a9a8a8"/>
      <stop offset=".88" stop-color="#8a8788"/>
      <stop offset=".93" stop-color="#656262"/>
      <stop offset=".98" stop-color="#3c3939"/>
      <stop offset="1" stop-color="#231f20"/>
    </radialGradient>
    <mask id="o" data-name="mask" x="6" y="12" width="52" height="41" maskUnits="userSpaceOnUse">
      <g filter="url(#p)">
        <path d="M21,53c-8.27,0-15-6.73-15-15,0-5.67,3.15-10.79,8.22-13.37l22.06-11.03c2.12-1.06,4.38-1.6,6.72-1.6,8.27,0,15,6.73,15,15,0,5.7-3.17,10.83-8.28,13.4l-21.79,10.9c-2.16,1.13-4.49,1.7-6.92,1.7Z" fill="url(#q)"/>
      </g>
    </mask>
    <linearGradient id="r" x1="37.28" y1="13.91" x2="50.83" y2="36.31" gradientUnits="userSpaceOnUse">
      <stop offset=".08" stop-color="#003755" stop-opacity=".2"/>
      <stop offset=".48" stop-color="#003755"/>
    </linearGradient>
    <linearGradient id="s" x1="28.31" y1="22.04" x2="42.3" y2="43.88" gradientUnits="userSpaceOnUse">
      <stop offset="0" stop-color="#003755" stop-opacity=".2"/>
      <stop offset=".56" stop-color="#003755"/>
    </linearGradient>
    <linearGradient id="t" x1="38.2" y1="13.67" x2="50.75" y2="37.47" gradientUnits="userSpaceOnUse">
      <stop offset=".05" stop-color="#003755" stop-opacity=".2"/>
      <stop offset=".51" stop-color="#003755"/>
    </linearGradient>
    <linearGradient id="u" x1="26.86" y1="20.71" x2="42.25" y2="45.12" gradientUnits="userSpaceOnUse">
      <stop offset="0" stop-color="#003755" stop-opacity=".2"/>
      <stop offset=".32" stop-color="#003755"/>
    </linearGradient>
  </defs>
  <g id="f" data-name="Cog">
    <path d="M25.36,19.45h-.93c-1.09,0-1.94-.87-1.94-1.96,0-.51.18-.98.56-1.36l.66-.66c-.61-.85-1.34-1.58-2.19-2.19l-.66.66c-.38.38-.85.56-1.36.56-1.15,0-1.96-.92-1.96-1.94v-.93c-.51-.08-1.03-.13-1.55-.13s-1.04.06-1.55.13v.93c0,1.02-.8,1.94-1.96,1.94-.51,0-.98-.19-1.36-.56l-.66-.66c-.85.61-1.58,1.34-2.19,2.19l.66.66c.38.38.56.85.56,1.36,0,1.09-.85,1.96-1.94,1.96h-.93c-.08.51-.14,1.04-.14,1.55s.06,1.04.14,1.55h.93c1.04,0,1.94.82,1.94,1.96,0,.51-.19.98-.56,1.36l-.66.66c.61.85,1.34,1.58,2.19,2.19l.66-.66c.38-.38.85-.56,1.36-.56,1.14,0,1.96.9,1.96,1.94v.93c.52.08,1.02.14,1.55.14s1.03-.06,1.55-.14v-.93c0-1.04.82-1.94,1.96-1.94.51,0,.98.19,1.36.56l.66.66c.85-.61,1.58-1.34,2.19-2.19l-.66-.66c-.38-.38-.56-.85-.56-1.36,0-1.14.9-1.96,1.94-1.96h.93c.08-.51.14-1.04.14-1.55s-.06-1.05-.14-1.55ZM16,24.5c-1.92,0-3.5-1.58-3.5-3.5s1.58-3.5,3.5-3.5,3.5,1.58,3.5,3.5-1.58,3.5-3.5,3.5Z" fill="url(#b)" stroke="#323232" stroke-linejoin="round"/>
    <g>
      <path d="M16,16c-2.76,0-5,2.24-5,5s2.24,5,5,5,5-2.24,5-5-2.24-5-5-5ZM16,25c-2.21,0-4-1.79-4-4s1.79-4,4-4,4,1.79,4,4-1.79,4-4,4Z" fill="url(#g)" opacity=".3"/>
      <path d="M16,16c-2.76,0-5,2.24-5,5s2.24,5,5,5,5-2.24,5-5-2.24-5-5-5ZM16,25c-2.21,0-4-1.79-4-4s1.79-4,4-4,4,1.79,4,4-1.79,4-4,4Z" fill="url(#h)" opacity=".75"/>
    </g>
    <path d="M57.5,27c0-8.01-6.49-14.5-14.5-14.5-2.34,0-4.54.57-6.5,1.55l-22.06,11.03c-4.71,2.39-7.95,7.28-7.95,12.92,0,8.01,6.49,14.5,14.5,14.5,2.42,0,4.69-.6,6.7-1.65l21.79-10.9c4.74-2.38,8.01-7.28,8.01-12.95Z" fill="#fff" opacity=".75" stroke="#fff" stroke-linejoin="round" stroke-width="3"/>
    <path d="M57.27,39.5h-1.82c-.89,0-1.66-.57-2.01-1.39,0-.01,0-.02-.01-.03-.34-.83-.2-1.78.44-2.41l1.28-1.29c-.95-1.38-2.15-2.58-3.53-3.53l-1.29,1.28c-.63.64-1.58.78-2.41.44-.01-.01-.02-.01-.03-.01-.82-.35-1.39-1.12-1.39-2.01v-1.82c-.81-.15-1.65-.23-2.5-.23s-1.69.08-2.5.23v1.82c0,.89-.57,1.66-1.39,2.01-.01,0-.02,0-.03.01-.83.34-1.78.2-2.41-.44l-1.29-1.28c-1.38.95-2.58,2.15-3.53,3.53l1.28,1.29c.64.63.78,1.58.44,2.41-.01.01-.01.02-.01.03-.35.82-1.12,1.39-2.01,1.39h-1.82c-.15.81-.23,1.65-.23,2.5s.08,1.69.23,2.5h1.82c.89,0,1.66.57,2.01,1.39,0,0,0,.02.01.03.34.83.2,1.78-.44,2.41l-1.28,1.29c.95,1.38,2.15,2.58,3.53,3.53l1.29-1.28c.63-.64,1.58-.78,2.41-.44.01.01.02.01.03.01.82.35,1.39,1.12,1.39,2.01v1.82c.81.15,1.65.23,2.5.23s1.69-.08,2.5-.23v-1.82c0-.89.57-1.66,1.39-2.01.01,0,.02,0,.03-.01.83-.34,1.78-.2,2.41.44l1.29,1.28c1.38-.95,2.58-2.15,3.53-3.53l-1.28-1.29c-.64-.63-.78-1.58-.44-2.41.01-.01.01-.02.01-.03.35-.82,1.12-1.39,2.01-1.39h1.82c.15-.81.23-1.65.23-2.5s-.08-1.69-.23-2.5ZM44,46.5c-2.49,0-4.5-2.01-4.5-4.5s2.01-4.5,4.5-4.5,4.5,2.01,4.5,4.5-2.01,4.5-4.5,4.5Z" fill="url(#i)" stroke="#323232" stroke-linejoin="round"/>
    <g>
      <path d="M44,36c-3.31,0-6,2.69-6,6s2.69,6,6,6,6-2.69,6-6-2.69-6-6-6ZM44,47c-2.76,0-5-2.24-5-5s2.24-5,5-5,5,2.24,5,5-2.24,5-5,5Z" fill="url(#j)" opacity=".3"/>
      <path d="M44,36c-3.31,0-6,2.69-6,6s2.69,6,6,6,6-2.69,6-6-2.69-6-6-6ZM44,47c-2.76,0-5-2.24-5-5s2.24-5,5-5,5,2.24,5,5-2.24,5-5,5Z" fill="url(#k)" opacity=".75"/>
    </g>
    <path d="M52.98,38.31s-.01-.03-.02-.04c-.42-1.04-.21-2.2.55-2.95l.98-.99c-.8-1.08-1.74-2.03-2.83-2.83l-.99.98c-.75.76-1.9.98-2.95.55-.01,0-.03,0-.04-.02-1.03-.44-1.69-1.41-1.69-2.47v-1.4c-1.32-.2-2.68-.2-4,0v1.4c0,1.06-.67,2.03-1.69,2.47-.01,0-.03.01-.04.02-1.04.42-2.2.21-2.95-.55l-.99-.98c-1.08.8-2.03,1.74-2.83,2.83l.98.99c.76.75.98,1.9.55,2.95,0,.01,0,.03-.02.04-.44,1.03-1.41,1.69-2.47,1.69h-1.4c-.1.66-.15,1.33-.15,2s.05,1.34.15,2h1.4c1.06,0,2.03.67,2.47,1.69,0,.01.01.03.02.04.42,1.04.21,2.2-.55,2.95l-.98.99c.2.27.43.5.64.75l7.78-3.89c-1.72-.79-2.92-2.52-2.92-4.53,0-2.76,2.24-5,5-5s5,2.24,5,5c0,.36-.04.71-.12,1.05l1.73-.87c1.35-.68,2.57-1.52,3.66-2.48-.56-.29-1.03-.78-1.29-1.4Z" fill="#646464" opacity=".5"/>
  </g>
  <g id="l" data-name="Vessel">
    <path d="M57.5,27c0-8.01-6.49-14.5-14.5-14.5-2.34,0-4.54.57-6.5,1.55l-22.06,11.03c-4.71,2.39-7.95,7.28-7.95,12.92,0,8.01,6.49,14.5,14.5,14.5,2.42,0,4.69-.6,6.7-1.65l21.79-10.9c4.74-2.38,8.01-7.28,8.01-12.95Z" fill="url(#m)" stroke="#003755" stroke-linejoin="round"/>
    <path d="M21,24c-7.72,0-14,6.28-14,14s6.28,14,14,14,14-6.28,14-14-6.28-14-14-14Z" fill="url(#n)"/>
    <g mask="url(#o)">
      <g>
        <path d="M47.57,39.92h0c-.09.19-.18.38-.26.56h-.01l-1.52.76-1.75.88c.53-.79,1-1.59,1.42-2.42h0c.45-.93.83-1.87,1.14-2.82,1.37-4.14,1.5-8.57,1.08-12.59-.11-1.07-.26-2.11-.43-3.1-.58-3.27-1.43-6.1-2.09-8.03.8.13,1.58.32,2.33.58.82,2.52,1.74,5.99,2.19,9.87.13,1.18.23,2.41.26,3.66.11,4.16-.47,8.57-2.36,12.65Z" fill="url(#r)"/>
        <path d="M40.57,29.33c0,.82-.02,1.66-.09,2.52-.35,4.46-1.76,9.39-4.97,14.54l-3.67,1.84c4.86-6.43,6.63-12.54,6.82-17.84.03-.82.02-1.62-.02-2.41-.22-4.37-1.46-8.06-2.7-10.72-.32-.71-.65-1.34-.96-1.89l.53-.26,1.22-.61c.19.36.4.76.6,1.18.35.73.7,1.54,1.05,2.43,1.16,2.99,2.16,6.82,2.19,11.22Z" fill="url(#s)"/>
        <path d="M54.67,34.72c-.5.78-1.09,1.5-1.76,2.15-.29-3.87-1.4-7.03-2.98-9.6-.68-1.1-1.44-2.09-2.26-2.98-2.75-3.02-6.18-4.95-9.29-6.18-.84-.33-1.66-.61-2.44-.85-1.16-.36-2.22-.62-3.11-.8l2.15-1.09.53-.26c.58.16,1.19.35,1.82.57,3.11,1.07,6.75,2.78,9.91,5.51.85.73,1.66,1.53,2.43,2.42,2.42,2.81,4.3,6.44,5,11.11Z" fill="url(#t)"/>
        <path d="M47.65,40.31l-.34.17h-.01l-1.52.76c-.09-.53-.2-1.04-.33-1.54h0c-.86-3.19-2.65-5.76-4.97-7.85-.58-.52-1.18-1-1.82-1.46-6.09-4.42-14.59-6.21-19.86-6.93l3.08-1.53c4.99.9,11.49,2.66,16.76,6.05.66.42,1.31.87,1.93,1.35,2.57,2,4.71,4.48,6.02,7.55.42.95.74,1.97.98,3.04h0c.03.13.05.26.08.39Z" fill="url(#u)"/>
      </g>
    </g>
    <path d="M8,37.5c0-3.59,1.57-6.5,3.5-6.5s.5,2.91.5,6.5,1.43,6.5-.5,6.5-3.5-2.91-3.5-6.5Z" fill="#fff" opacity=".1"/>
  </g>
</svg>