<?xml version="1.0" encoding="UTF-8"?><svg xmlns="http://www.w3.org/2000/svg" xmlns:xlink="http://www.w3.org/1999/xlink" viewBox="0 0 64 64"><defs><linearGradient id="a" x1="32" y1="38.5" x2="36" y2="38.5" gradientUnits="userSpaceOnUse"><stop offset="0" stop-color="#464646"/><stop offset="1" stop-color="#141414"/></linearGradient><linearGradient id="t" x1="40" y1="37.99" x2="40" y2="42" gradientUnits="userSpaceOnUse"><stop offset="0" stop-color="#8cd7f5"/><stop offset=".2" stop-color="#7fc7e5"/><stop offset=".59" stop-color="#5e9ebc"/><stop offset="1" stop-color="#376e8c"/></linearGradient><linearGradient id="v" x1="33.1" y1="36.94" x2="34.89" y2="40.05" gradientUnits="userSpaceOnUse"><stop offset="0" stop-color="#f5f5f5"/><stop offset="1" stop-color="#bebebe"/></linearGradient><linearGradient id="w" x1="38" x2="42" xlink:href="#a"/><linearGradient id="y" x1="39.1" y1="36.94" x2="40.89" y2="40.05" xlink:href="#v"/><linearGradient id="z" x1="44" x2="48" xlink:href="#a"/><linearGradient id="ab" x1="45.1" y1="36.94" x2="46.89" y2="40.05" xlink:href="#v"/><linearGradient id="ac" x1="42.46" y1="46.21" x2="47.95" y2="55.71" gradientUnits="userSpaceOnUse"><stop offset="0" stop-color="#f5f5f5"/><stop offset=".99" stop-color="#d2d2d2"/></linearGradient><clipPath id="ad"><path d="M50.55,50.74c0-3.02-2.45-5.47-5.47-5.47s-5.47,2.45-5.47,5.47,2.45,5.47,5.47,5.47,5.47-2.45,5.47-5.47Z" fill="none"/></clipPath><linearGradient id="ae" x1="48.06" y1="55.24" x2="43.6" y2="47.52" gradientUnits="userSpaceOnUse"><stop offset="0" stop-color="#151515"/><stop offset="1" stop-color="#474647"/></linearGradient></defs><g id="c"><rect x="16.5" y="10.5" width="4" height="4" fill="none" stroke="#000" stroke-miterlimit="10"/><line x1="16.5" y1="10.5" x2="20.5" y2="14.5" fill="none" stroke="#000" stroke-miterlimit="10"/><line x1="20.5" y1="10.5" x2="16.5" y2="14.5" fill="none" stroke="#000" stroke-miterlimit="10"/><polygon points="29.5 6.5 33.5 6.5 33.5 50.5 29.5 50.5 29.5 14.5 29.5 10.5 29.5 6.5" fill="none" stroke="#000" stroke-miterlimit="10"/><polygon points="41.5 10.5 41.5 14.5 16.5 14.5 12.5 14.5 16.5 10.5 41.5 10.5" fill="none" stroke="#000" stroke-miterlimit="10"/><rect x="24.5" y="10.5" width="4" height="4" fill="none" stroke="#000" stroke-miterlimit="10"/><line x1="24.5" y1="10.5" x2="28.5" y2="14.5" fill="none" stroke="#000" stroke-miterlimit="10"/><line x1="28.5" y1="10.5" x2="24.5" y2="14.5" fill="none" stroke="#000" stroke-miterlimit="10"/><rect x="29.5" y="6.5" width="4" height="4" fill="none" stroke="#000" stroke-miterlimit="10"/><line x1="29.5" y1="6.5" x2="33.5" y2="10.5" fill="none" stroke="#000" stroke-miterlimit="10"/><line x1="33.5" y1="6.5" x2="29.5" y2="10.5" fill="none" stroke="#000" stroke-miterlimit="10"/><rect x="33.5" y="10.5" width="4" height="4" fill="none" stroke="#000" stroke-miterlimit="10"/><line x1="33.5" y1="10.5" x2="37.5" y2="14.5" fill="none" stroke="#000" stroke-miterlimit="10"/><line x1="37.5" y1="10.5" x2="33.5" y2="14.5" fill="none" stroke="#000" stroke-miterlimit="10"/><rect x="29.5" y="14.5" width="4" height="4" fill="none" stroke="#000" stroke-miterlimit="10"/><line x1="29.5" y1="14.5" x2="33.5" y2="18.5" fill="none" stroke="#000" stroke-miterlimit="10"/><line x1="33.5" y1="14.5" x2="29.5" y2="18.5" fill="none" stroke="#000" stroke-miterlimit="10"/><rect x="20.5" y="10.5" width="4" height="4" fill="none" stroke="#000" stroke-miterlimit="10"/><line x1="20.5" y1="10.5" x2="24.5" y2="14.5" fill="none" stroke="#000" stroke-miterlimit="10"/><line x1="24.5" y1="10.5" x2="20.5" y2="14.5" fill="none" stroke="#000" stroke-miterlimit="10"/><rect x="29.5" y="10.5" width="4" height="4" fill="none" stroke="#000" stroke-miterlimit="10"/><line x1="29.5" y1="10.5" x2="33.5" y2="14.5" fill="none" stroke="#000" stroke-miterlimit="10"/><line x1="33.5" y1="10.5" x2="29.5" y2="14.5" fill="none" stroke="#000" stroke-miterlimit="10"/><rect x="29.5" y="18.5" width="4" height="4" fill="none" stroke="#000" stroke-miterlimit="10"/><line x1="29.5" y1="18.5" x2="33.5" y2="22.5" fill="none" stroke="#000" stroke-miterlimit="10"/><line x1="33.5" y1="18.5" x2="29.5" y2="22.5" fill="none" stroke="#000" stroke-miterlimit="10"/><rect x="29.5" y="22.5" width="4" height="4" fill="none" stroke="#000" stroke-miterlimit="10"/><line x1="29.5" y1="22.5" x2="33.5" y2="26.5" fill="none" stroke="#000" stroke-miterlimit="10"/><line x1="33.5" y1="22.5" x2="29.5" y2="26.5" fill="none" stroke="#000" stroke-miterlimit="10"/><rect x="29.5" y="26.5" width="4" height="4" fill="none" stroke="#000" stroke-miterlimit="10"/><line x1="29.5" y1="26.5" x2="33.5" y2="30.5" fill="none" stroke="#000" stroke-miterlimit="10"/><line x1="33.5" y1="26.5" x2="29.5" y2="30.5" fill="none" stroke="#000" stroke-miterlimit="10"/><rect x="29.5" y="30.5" width="4" height="4" fill="none" stroke="#000" stroke-miterlimit="10"/><line x1="29.5" y1="30.5" x2="33.5" y2="34.5" fill="none" stroke="#000" stroke-miterlimit="10"/><line x1="33.5" y1="30.5" x2="29.5" y2="34.5" fill="none" stroke="#000" stroke-miterlimit="10"/><rect x="29.5" y="34.5" width="4" height="4" fill="none" stroke="#000" stroke-miterlimit="10"/><line x1="29.5" y1="34.5" x2="33.5" y2="38.5" fill="none" stroke="#000" stroke-miterlimit="10"/><line x1="33.5" y1="34.5" x2="29.5" y2="38.5" fill="none" stroke="#000" stroke-miterlimit="10"/><rect x="29.5" y="38.5" width="4" height="4" fill="none" stroke="#000" stroke-miterlimit="10"/><line x1="29.5" y1="38.5" x2="33.5" y2="42.5" fill="none" stroke="#000" stroke-miterlimit="10"/><line x1="33.5" y1="38.5" x2="29.5" y2="42.5" fill="none" stroke="#000" stroke-miterlimit="10"/><rect x="29.5" y="42.5" width="4" height="4" fill="none" stroke="#000" stroke-miterlimit="10"/><line x1="29.5" y1="42.5" x2="33.5" y2="46.5" fill="none" stroke="#000" stroke-miterlimit="10"/><line x1="33.5" y1="42.5" x2="29.5" y2="46.5" fill="none" stroke="#000" stroke-miterlimit="10"/><rect x="29.5" y="46.5" width="4" height="4" fill="none" stroke="#000" stroke-miterlimit="10"/><line x1="29.5" y1="46.5" x2="33.5" y2="50.5" fill="none" stroke="#000" stroke-miterlimit="10"/><line x1="33.5" y1="46.5" x2="29.5" y2="50.5" fill="none" stroke="#000" stroke-miterlimit="10"/><rect x="16.5" y="10.5" width="4" height="4" fill="none" stroke="#323232" stroke-linejoin="round"/><line x1="16.5" y1="10.5" x2="20.5" y2="14.5" fill="none" stroke="#323232" stroke-linejoin="round"/><line x1="20.5" y1="10.5" x2="16.5" y2="14.5" fill="none" stroke="#323232" stroke-linejoin="round"/><polygon points="29.5 6.5 33.5 6.5 33.5 50.5 29.5 50.5 29.5 14.5 29.5 10.5 29.5 6.5" fill="none" stroke="#323232" stroke-linejoin="round"/><polygon points="41.5 10.5 41.5 14.5 16.5 14.5 12.5 14.5 16.5 10.5 41.5 10.5" fill="none" stroke="#323232" stroke-linejoin="round"/><rect x="24.5" y="10.5" width="4" height="4" fill="none" stroke="#323232" stroke-linejoin="round"/><line x1="24.5" y1="10.5" x2="28.5" y2="14.5" fill="none" stroke="#323232" stroke-linejoin="round"/><line x1="28.5" y1="10.5" x2="24.5" y2="14.5" fill="none" stroke="#323232" stroke-linejoin="round"/><rect x="29.5" y="6.5" width="4" height="4" fill="none" stroke="#323232" stroke-linejoin="round"/><line x1="29.5" y1="6.5" x2="33.5" y2="10.5" fill="none" stroke="#323232" stroke-linejoin="round"/><line x1="33.5" y1="6.5" x2="29.5" y2="10.5" fill="none" stroke="#323232" stroke-linejoin="round"/><rect x="33.5" y="10.5" width="4" height="4" fill="none" stroke="#323232" stroke-linejoin="round"/><line x1="33.5" y1="10.5" x2="37.5" y2="14.5" fill="none" stroke="#323232" stroke-linejoin="round"/><line x1="37.5" y1="10.5" x2="33.5" y2="14.5" fill="none" stroke="#323232" stroke-linejoin="round"/><rect x="29.5" y="14.5" width="4" height="4" fill="none" stroke="#323232" stroke-linejoin="round"/><line x1="29.5" y1="14.5" x2="33.5" y2="18.5" fill="none" stroke="#323232" stroke-linejoin="round"/><line x1="33.5" y1="14.5" x2="29.5" y2="18.5" fill="none" stroke="#323232" stroke-linejoin="round"/><rect x="20.5" y="10.5" width="4" height="4" fill="none" stroke="#323232" stroke-linejoin="round"/><line x1="20.5" y1="10.5" x2="24.5" y2="14.5" fill="none" stroke="#323232" stroke-linejoin="round"/><line x1="24.5" y1="10.5" x2="20.5" y2="14.5" fill="none" stroke="#323232" stroke-linejoin="round"/><rect x="29.5" y="10.5" width="4" height="4" fill="none" stroke="#323232" stroke-linejoin="round"/><line x1="29.5" y1="10.5" x2="33.5" y2="14.5" fill="none" stroke="#323232" stroke-linejoin="round"/><line x1="33.5" y1="10.5" x2="29.5" y2="14.5" fill="none" stroke="#323232" stroke-linejoin="round"/><rect x="29.5" y="18.5" width="4" height="4" fill="none" stroke="#323232" stroke-linejoin="round"/><line x1="29.5" y1="18.5" x2="33.5" y2="22.5" fill="none" stroke="#323232" stroke-linejoin="round"/><line x1="33.5" y1="18.5" x2="29.5" y2="22.5" fill="none" stroke="#323232" stroke-linejoin="round"/><rect x="29.5" y="22.5" width="4" height="4" fill="none" stroke="#323232" stroke-linejoin="round"/><line x1="29.5" y1="22.5" x2="33.5" y2="26.5" fill="none" stroke="#323232" stroke-linejoin="round"/><line x1="33.5" y1="22.5" x2="29.5" y2="26.5" fill="none" stroke="#323232" stroke-linejoin="round"/><rect x="29.5" y="26.5" width="4" height="4" fill="none" stroke="#323232" stroke-linejoin="round"/><line x1="29.5" y1="26.5" x2="33.5" y2="30.5" fill="none" stroke="#323232" stroke-linejoin="round"/><line x1="33.5" y1="26.5" x2="29.5" y2="30.5" fill="none" stroke="#323232" stroke-linejoin="round"/><rect x="29.5" y="30.5" width="4" height="4" fill="none" stroke="#323232" stroke-linejoin="round"/><line x1="29.5" y1="30.5" x2="33.5" y2="34.5" fill="none" stroke="#323232" stroke-linejoin="round"/><line x1="33.5" y1="30.5" x2="29.5" y2="34.5" fill="none" stroke="#323232" stroke-linejoin="round"/><rect x="29.5" y="34.5" width="4" height="4" fill="none" stroke="#323232" stroke-linejoin="round"/><line x1="29.5" y1="34.5" x2="33.5" y2="38.5" fill="none" stroke="#323232" stroke-linejoin="round"/><line x1="33.5" y1="34.5" x2="29.5" y2="38.5" fill="none" stroke="#323232" stroke-linejoin="round"/><rect x="29.5" y="38.5" width="4" height="4" fill="none" stroke="#323232" stroke-linejoin="round"/><line x1="29.5" y1="38.5" x2="33.5" y2="42.5" fill="none" stroke="#323232" stroke-linejoin="round"/><line x1="33.5" y1="38.5" x2="29.5" y2="42.5" fill="none" stroke="#323232" stroke-linejoin="round"/><rect x="29.5" y="42.5" width="4" height="4" fill="none" stroke="#323232" stroke-linejoin="round"/><line x1="29.5" y1="42.5" x2="33.5" y2="46.5" fill="none" stroke="#323232" stroke-linejoin="round"/><line x1="33.5" y1="42.5" x2="29.5" y2="46.5" fill="none" stroke="#323232" stroke-linejoin="round"/><rect x="29.5" y="46.5" width="4" height="4" fill="none" stroke="#323232" stroke-linejoin="round"/><line x1="29.5" y1="46.5" x2="33.5" y2="50.5" fill="none" stroke="#323232" stroke-linejoin="round"/><line x1="33.5" y1="46.5" x2="29.5" y2="50.5" fill="none" stroke="#323232" stroke-linejoin="round"/></g><g id="d"><polygon id="e" points="34.46 53.79 17.47 55 6.27 54.06 6.27 33.84 17.47 30.04 34.46 34.13 34.46 53.79" fill="#fff" opacity=".5"/><polygon id="f" points="34.46 55.12 17.47 57.04 6.27 55.56 6.27 23.68 17.47 17.68 34.46 24.13 34.46 55.12" fill="none" opacity=".2"/><g opacity=".5"><polygon points="17.68 54.87 7.1 53.25 17.68 54.25 17.68 52.31 33.67 52.21 17.68 54.87"/><polygon points="17.68 49.79 7.1 48.61 17.68 49.18 17.68 47.24 33.7 48.42 17.68 49.79"/><polygon points="17.68 44.42 7.1 44.08 17.68 43.81 17.68 41.87 33.73 44.14 17.68 44.42"/><polygon points="17.68 39.25 7.1 39.54 17.68 38.63 17.68 36.7 33.76 40.45 17.68 39.25"/><polygon points="17.68 33.49 7.1 36.27 17.68 32.87 17.68 30.83 33.91 37.23 17.68 33.49"/></g><g id="g" opacity=".5"><polyline points="34.74 51.29 34.74 53.29 32.75 53.43" fill="none" stroke="#323232" stroke-linejoin="round"/><polyline points="29.23 53.67 17.43 54.5 9.86 53.85" fill="none" stroke="#323232" stroke-dasharray="3.53 3.53" stroke-linejoin="round"/><polyline points="8.1 53.7 6.11 53.53 6.11 51.53" fill="none" stroke="#323232" stroke-linejoin="round"/><line x1="6.11" y1="48.42" x2="6.11" y2="37.53" fill="none" stroke="#323232" stroke-dasharray="3.11 3.11" stroke-linejoin="round"/><polyline points="6.11 35.97 6.11 33.97 8.01 33.36" fill="none" stroke="#323232" stroke-linejoin="round"/><polyline points="11.5 32.24 17.43 30.34 31.01 33.43" fill="none" stroke="#323232" stroke-dasharray="3.66 3.66" stroke-linejoin="round"/><polyline points="32.79 33.83 34.74 34.28 34.74 36.28" fill="none" stroke="#323232" stroke-linejoin="round"/><line x1="34.74" y1="41.28" x2="34.74" y2="48.79" fill="none" stroke="#323232" stroke-dasharray="5 5" stroke-linejoin="round"/></g><polygon id="h" points="57.49 54.79 44.45 56.79 37.01 55.11 37.01 12.95 44.45 6.74 57.49 15.38 57.49 54.79" fill="#fff" opacity=".5"/><polygon points="56.84 54.83 44.41 57.04 44.41 7.23 56.84 15.66 56.84 54.83" fill="#82bddb" opacity=".92"/><polygon points="57.34 54.95 44.44 56.94 37.57 55.37 37.57 24.4 44.57 49.42 57.34 54.95" fill="#5a9ab8" opacity=".56"/><polygon points="57.34 54.95 44.44 56.94 44.57 49.42 57.34 54.95" fill="#5a9ab8" opacity=".56"/><polygon points="44.6 56.49 37.46 54.79 44.6 55.68 44.6 53.94 56.82 54.31 44.6 56.49" fill="#003755"/><polygon points="44.6 50.22 37.46 49.73 44.6 49.42 44.6 47.67 56.82 49.88 44.6 50.22" fill="#003755"/><polygon points="44.6 44.63 37.46 44.93 44.6 43.83 44.6 42.08 56.82 45.17 44.6 44.63" fill="#003755"/><polygon points="44.6 38.87 37.46 39.96 44.6 38.07 44.6 36.32 56.82 40.29 44.6 38.87" fill="#003755"/><polygon points="44.6 33.11 37.46 34.99 44.6 32.31 44.6 30.56 56.82 35.42 44.6 33.11" fill="#003755"/><polygon points="44.6 27.35 37.46 30.02 44.6 26.55 44.6 24.8 56.82 30.54 44.6 27.35" fill="#003755"/><polygon points="44.6 21.59 37.46 25.05 44.6 20.79 44.6 19.04 56.82 25.66 44.6 21.59" fill="#003755"/><polygon points="44.6 15.83 37.46 20.07 44.6 15.02 44.6 13.28 56.82 20.78 44.6 15.83" fill="#003755"/><polygon points="44.6 10.07 37.46 15.1 44.6 9.26 44.6 7.52 56.82 15.7 44.6 10.07" fill="#003755"/><g id="i"><path d="M44.32,7.34l12.5,8.39v38.63l-12.27,2.03-7.02-1.57V13.54l6.79-6.2M44.23,6.04l-7.72,7.04v42.57l8.02,1.79,13.32-2.21V15.19l-13.62-9.15h0Z" fill="#003755"/></g><line id="j" x1="22.88" y1="30.48" x2="22.88" y2="25.85" fill="none" opacity=".5" stroke="#000" stroke-linecap="round" stroke-linejoin="round"/><line id="k" x1="28.18" y1="32.44" x2="28.18" y2="24.93" fill="none" opacity=".5" stroke="#000" stroke-linecap="round" stroke-linejoin="round"/><line id="l" x1="31.18" y1="33.84" x2="31.18" y2="22.83" fill="none" opacity=".5" stroke="#000" stroke-linecap="round" stroke-linejoin="round"/><line id="m" x1="14.79" y1="29.94" x2="14.79" y2="20.97" fill="none" opacity=".5" stroke="#000" stroke-linecap="round" stroke-linejoin="round"/><line id="n" x1="10.19" y1="32.46" x2="10.19" y2="23.37" fill="none" opacity=".5" stroke="#000" stroke-linecap="round" stroke-linejoin="round"/><polyline id="o" points="6.98 31.4 17.45 25.34 33.17 32.56" fill="none" opacity=".5" stroke="#000" stroke-linecap="round" stroke-linejoin="round"/></g><g id="p"><g id="q"><rect x="31" y="38" width="18" height="17" fill="#f1f0f0"/><path d="M49,38v17h-18v-17h18M31,37.02c-.67,0-1,.41-1,.98v17.03c0,.42.47.97,1.06.97h18.03c.52,0,.89-.47.89-1.02l.02-16.95c0-.58-.44-1.03-.99-1.03l-18.02.02Z" fill="#323232"/></g><path id="r" d="M38,50h-2v-2h2v2ZM39,50v-2h2v2h-2ZM45,47v-3h-1v3h-2v-3h-1v3h-2v-3h-1v3h-2v-3h-1v3h-2v1h2v2h-2v1h2v3h1v-3h2v3h1v-3h2v3h1v-3h2v3h1v-3h2v-1h-2v-2h2v-1h-2ZM44,50h-2v-2h2v2Z" fill="#797979"/><path d="M47,53h-14v-8h14v8ZM48,44h-16v10h16v-10Z" fill="#797979"/><path id="s" d="M49.99,37.99c0-.56-.43-.99-.99-.99h-18c-.55.01-1,.44-1,.99v4.01c0,.47.51,1,.98,1h18.02c.55,0,1-.45,1-1v-4.01ZM48.98,42h-17.98v-4h17.99v4Z" fill="#053755"/><rect x="31" y="37.99" width="17.99" height="4.01" fill="url(#t)"/><path id="u" d="M36,36.99c0-.56-.44-.99-1-.99h-2c-.55.01-1,.44-1,.99v3.01c0,.47.51,1,.98,1h2.02c.55,0,1-.45,1-1v-3.01ZM34.98,40h-1.98v-3h1.99v3Z" fill="url(#a)"/><rect x="33" y="36.99" width="1.99" height="3.01" fill="url(#v)"/><path id="x" d="M42,36.99c0-.56-.44-.99-1-.99h-2c-.55.01-1,.44-1,.99v3.01c0,.47.51,1,.98,1h2.02c.55,0,1-.45,1-1v-3.01ZM40.98,40h-1.98v-3h1.99v3Z" fill="url(#w)"/><rect x="39" y="36.99" width="1.99" height="3.01" fill="url(#y)"/><path id="aa" d="M48,36.99c0-.56-.44-.99-1-.99h-2c-.55.01-1,.44-1,.99v3.01c0,.47.51,1,.98,1h2.02c.55,0,1-.45,1-1v-3.01ZM46.98,40h-1.98v-3h1.99v3Z" fill="url(#z)"/><rect x="45" y="36.99" width="1.99" height="3.01" fill="url(#ab)"/><path d="M45.08,57.34c-3.64,0-6.6-2.96-6.6-6.6s2.96-6.6,6.6-6.6,6.6,2.96,6.6,6.6-2.96,6.6-6.6,6.6Z" fill="url(#ac)"/><path d="M45.08,44.68c3.34,0,6.06,2.72,6.06,6.06s-2.72,6.06-6.06,6.06-6.06-2.72-6.06-6.06,2.72-6.06,6.06-6.06M45.08,44.43c-3.49,0-6.31,2.83-6.31,6.31s2.83,6.31,6.31,6.31,6.32-2.83,6.32-6.31-2.83-6.31-6.32-6.31h0Z" fill="#82bddb"/><path d="M45.08,44.43c3.48,0,6.32,2.83,6.32,6.31s-2.83,6.31-6.32,6.31-6.31-2.83-6.31-6.31,2.83-6.31,6.31-6.31M45.08,43.86c-3.8,0-6.88,3.08-6.88,6.88s3.08,6.88,6.88,6.88,6.88-3.08,6.88-6.88-3.08-6.88-6.88-6.88h0Z"/><g clip-path="url(#ad)"><polygon points="44 48 44.5 47 45 48 45 50.59 49.18 54.25 49.05 54.67 44 51.15 44 48" fill="url(#ae)"/></g></g></svg>