<?xml version="1.0" encoding="UTF-8"?><svg xmlns="http://www.w3.org/2000/svg" xmlns:xlink="http://www.w3.org/1999/xlink" viewBox="0 0 64 64"><defs><linearGradient id="a" x1="25.95" y1="29.03" x2="35.47" y2="45.52" gradientUnits="userSpaceOnUse"><stop offset="0" stop-color="#82bedc"/><stop offset="1" stop-color="#285a78"/></linearGradient><linearGradient id="c" x1="42.12" y1="31.13" x2="49.58" y2="44.05" gradientUnits="userSpaceOnUse"><stop offset="0" stop-color="#8cd7f5"/><stop offset="1" stop-color="#376e8c"/></linearGradient><linearGradient id="e" x1="31.24" y1="25.32" x2="37.58" y2="36.3" gradientUnits="userSpaceOnUse"><stop offset="0" stop-color="#a0e1fa"/><stop offset="1" stop-color="#73c3e1"/></linearGradient><linearGradient id="g" x1="38" y1="41.95" x2="41" y2="41.95" gradientUnits="userSpaceOnUse"><stop offset="0" stop-color="#464646"/><stop offset="1" stop-color="#141414"/></linearGradient><linearGradient id="j" x1="28.01" y1="17.81" x2="33.99" y2="28.19" gradientUnits="userSpaceOnUse"><stop offset="0" stop-color="#fff"/><stop offset="1" stop-color="#d2d2d2"/></linearGradient><linearGradient id="l" x1="30.24" y1="16.18" x2="31.76" y2="18.82" gradientUnits="userSpaceOnUse"><stop offset="0" stop-color="#fff"/><stop offset="1" stop-color="#f0f0f0"/></linearGradient><linearGradient id="o" x1="6.5" y1="-27.06" x2="57.5" y2="-27.06" gradientTransform="translate(0 18) scale(1 -1)" gradientUnits="userSpaceOnUse"><stop offset="0" stop-color="#f5f5f5"/><stop offset="1" stop-color="#bebebe"/></linearGradient><linearGradient id="p" x1="6.5" y1="-27.08" x2="57.5" y2="-27.08" gradientTransform="translate(0 18) scale(1 -1)" gradientUnits="userSpaceOnUse"><stop offset="0" stop-color="#fff"/><stop offset="1" stop-color="#f0f0f0"/></linearGradient><linearGradient id="q" x1="27.36" y1="-26.63" x2="40.67" y2="-26.63" gradientTransform="translate(0 18) scale(1 -1)" gradientUnits="userSpaceOnUse"><stop offset="0" stop-color="#464646"/><stop offset="1" stop-color="#141414"/></linearGradient><linearGradient id="s" x1="36.99" y1="16.79" x2="43.01" y2="27.21" xlink:href="#j"/><linearGradient id="t" x1="39.24" y1="15.18" x2="40.76" y2="17.82" xlink:href="#l"/><linearGradient id="u" x1="40.23" y1="23.53" x2="46.1" y2="33.71" xlink:href="#e"/><linearGradient id="v" x1="47.65" y1="23.46" x2="52.74" y2="32.28" xlink:href="#e"/><linearGradient id="w" x1="45" y1="40.09" x2="48" y2="40.09" xlink:href="#g"/><linearGradient id="x" x1="52" y1="38.24" x2="55" y2="38.24" xlink:href="#g"/><linearGradient id="ac" x1="11.88" y1="5.28" x2="24.53" y2="-16.63" gradientTransform="translate(0 18) scale(1 -1)" gradientUnits="userSpaceOnUse"><stop offset="0" stop-color="#8cd7f5"/><stop offset="1" stop-color="#376e8c"/></linearGradient><radialGradient id="ae" cx="-64.9" cy="-502.39" fx="-64.9" fy="-502.39" r="2.22" gradientTransform="translate(97.4 -189.01) rotate(.23) scale(1.12 -.4) skewX(.68)" gradientUnits="userSpaceOnUse"><stop offset="0" stop-color="#fff"/><stop offset="1" stop-color="#fff" stop-opacity="0"/></radialGradient><radialGradient id="af" cx="-41.13" cy="-544.91" fx="-41.13" fy="-544.91" r="2.22" gradientTransform="translate(57.65 -202) rotate(.61) scale(.81 -.4) skewX(1.15)" xlink:href="#ae"/><radialGradient id="ag" cx="-46.18" cy="-547.59" fx="-46.18" fy="-547.59" r="1.55" gradientTransform="translate(59.19 -198.61) rotate(.61) scale(.81 -.4) skewX(1.15)" xlink:href="#ae"/><radialGradient id="ah" cx="33.76" cy="-126.39" fx="33.76" fy="-126.39" r="1.55" gradientTransform="translate(66.06 -17.24) rotate(89.82) scale(1.12 -.4) skewX(-.51)" xlink:href="#ae"/><radialGradient id="ai" cx="-161.64" cy="-666.74" fx="-161.64" fy="-666.74" r="1.55" gradientTransform="translate(162.93 -229.93) rotate(.77) scale(.82 -.39) skewX(1.51)" xlink:href="#ae"/><radialGradient id="aj" cx="-186.19" cy="-604.22" fx="-186.19" fy="-604.22" r="2.19" gradientTransform="translate(44.04 -275.15) rotate(-30.53) scale(1.22 -.41) skewX(-4.17)" xlink:href="#ae"/><radialGradient id="ak" cx="-90.08" cy="-874.46" fx="-90.08" fy="-874.46" r="2.39" gradientTransform="translate(-51.62 -256.21) rotate(-32.59) scale(.83 -.31) skewX(1.05)" xlink:href="#ae"/><radialGradient id="al" cx="1.95" cy="-1485.26" fx="1.95" fy="-1485.26" r="2.92" gradientTransform="translate(-51.06 -225.84) rotate(-17.65) scale(.82 -.17) skewX(.36)" xlink:href="#ae"/><linearGradient id="an" x1="10.68" y1="-7.71" x2="10.62" y2="-8.92" gradientTransform="translate(0 18) scale(1 -1)" gradientUnits="userSpaceOnUse"><stop offset=".28" stop-color="#000" stop-opacity="0"/><stop offset="1" stop-color="#000"/></linearGradient><linearGradient id="ao" x1="17.54" y1=".1" x2="18.03" y2="-1.5" gradientTransform="translate(0 18) scale(1 -1)" gradientUnits="userSpaceOnUse"><stop offset=".13" stop-color="#000" stop-opacity="0"/><stop offset="1" stop-color="#000"/></linearGradient><linearGradient id="ap" x1="19.42" y1="5.08" x2="19.4" y2="2.94" gradientTransform="translate(0 18) scale(1 -1)" gradientUnits="userSpaceOnUse"><stop offset=".12" stop-color="#000" stop-opacity="0"/><stop offset="1" stop-color="#000"/></linearGradient><linearGradient id="aq" x1="16.95" y1="-4.28" x2="18.53" y2="-7.02" gradientTransform="translate(0 18) scale(1 -1)" gradientUnits="userSpaceOnUse"><stop offset=".45" stop-color="#000" stop-opacity="0"/><stop offset="1" stop-color="#000"/></linearGradient><linearGradient id="ar" x1="13.53" y1="-12.16" x2="13.65" y2="-13.85" gradientTransform="translate(0 18) scale(1 -1)" gradientUnits="userSpaceOnUse"><stop offset=".25" stop-color="#000" stop-opacity="0"/><stop offset="1" stop-color="#000"/></linearGradient><radialGradient id="as" cx="-141.6" cy="-813.79" fx="-141.6" fy="-813.79" r="2.94" gradientTransform="translate(-55.15 -284.38) rotate(-41.71) scale(.88 -.35) skewX(2.33)" gradientUnits="userSpaceOnUse"><stop offset="0" stop-color="#000"/><stop offset="1" stop-color="#000" stop-opacity="0"/></radialGradient><linearGradient id="at" x1="17.82" y1="-16.04" x2="17.66" y2="-17.64" xlink:href="#ao"/><linearGradient id="au" x1="26.16" y1="6.94" x2="28.68" y2="2.57" gradientTransform="translate(0 18) scale(1 -1)" gradientUnits="userSpaceOnUse"><stop offset="0" stop-color="#fff"/><stop offset="1" stop-color="#d4d5d3"/></linearGradient><linearGradient id="av" x1="25.43" y1="-10.77" x2="29.94" y2="-18.6" xlink:href="#au"/><linearGradient id="aw" x1="27.71" y1="1.49" x2="31.22" y2="-4.58" xlink:href="#au"/><linearGradient id="ax" x1="27.08" y1="-4.7" x2="31.85" y2="-12.97" xlink:href="#au"/><linearGradient id="ay" x1="26.8" y1="3.6" x2="25.71" y2="2.89" gradientTransform="translate(0 18) scale(1 -1)" gradientUnits="userSpaceOnUse"><stop offset="0" stop-color="#42a2da"/><stop offset="1" stop-color="#78befa" stop-opacity="0"/></linearGradient><linearGradient id="az" x1="29.45" y1="-8.91" x2="27" y2="-8.91" xlink:href="#ay"/><linearGradient id="ba" x1="24.73" y1="-13.03" x2="22.6" y2="-13.03" xlink:href="#ay"/></defs><g id="n"><polygon points="57.5 40.28 38.24 57.5 6.5 44.55 25.76 32.62 57.5 40.28" fill="url(#o)"/><path d="M25.93,33.69l29.48,7.11-17.41,15.54-29.3-11.97,17.23-10.68M25.76,32.62l-19.26,11.93,31.74,13,19.26-17.27-31.74-7.66Z" fill="url(#p)"/><path d="M25.8,32.89l31.2,7.52-18.81,16.8-31.14-12.7,18.75-11.62M25.8,32.62l-19.3,11.93,31.74,13,19.26-17.27-31.74-7.66h.04Z" fill="#323232"/><path d="M32.26,40.55l-3,2.06M36.72,47.8l2.72-2.21-10.08-2.9-5.52-1.69-2.66,1.78" fill="none" stroke="#323232" stroke-linecap="round" stroke-miterlimit="10"/><path d="M32,46.26l8.67,2.74-4.67,3.69-8.6-3.19,4.6-3.24ZM27.4,39.18l8.66,2.52,4.07-2.83-8.79-2.3-3.94,2.61Z" fill="url(#q)"/><path d="M13.25,44.23l7.15,2.69,4.65-2.92-7.58-2.46-4.22,2.69Z" fill="none" stroke="#000" stroke-miterlimit="10"/></g><g id="r"><rect x="28.5" y="17.53" width="5" height="10.95" fill="url(#j)" stroke="#787878" stroke-linejoin="round"/><ellipse cx="31" cy="17.5" rx="2.5" ry="1" fill="url(#l)" stroke="#787878" stroke-linejoin="round"/><path d="M33.5,17.5c0-.55-1.12-1-2.5-1s-2.5.45-2.5,1c0,0,0,.02,0,.03h0v10.95h5v-10.95h0s0-.02,0-.03Z" fill="none" stroke="#323232" stroke-linejoin="round"/><rect x="37.5" y="16.5" width="5" height="11" fill="url(#s)" stroke="#787878" stroke-linejoin="round"/><ellipse cx="40" cy="16.5" rx="2.5" ry="1" fill="url(#t)" stroke="#787878" stroke-linejoin="round"/><path d="M40,15.5c-1.38,0-2.5.45-2.5,1v11h5v-11c0-.55-1.12-1-2.5-1Z" fill="none" stroke="#323232" stroke-linejoin="round"/><polygon points="35.5 37.5 35.5 45.5 55.5 40.64 55.5 28.47 49.5 34.15 49.5 29.28 42.5 35.77 42.5 30.91 35.5 37.5" fill="url(#c)" stroke="#003755" stroke-linejoin="round"/><polygon points="42.5 30.91 32.8 24.42 25.5 29.28 35.5 37.5 42.5 30.91" fill="url(#e)" stroke="#003755" stroke-linejoin="round"/><polygon points="42.5 30.91 42.53 35.77 49.5 29.28 40.09 23.61 36.04 26.58 42.5 30.91" fill="url(#u)" stroke="#003755" stroke-linejoin="round"/><polygon points="55.5 28.47 49.5 34.15 49.5 29.28 44.15 25.97 47.39 23.61 55.5 28.47" fill="url(#v)" stroke="#003755" stroke-linejoin="round"/><polygon points="35.5 37.5 35.5 45.5 25.5 36.33 25.5 29.28 35.5 37.5" fill="url(#a)" stroke="#003755" stroke-linejoin="round"/><polygon points="38 39.75 41 39 41 44.17 38 44.89 38 39.75" fill="url(#g)"/><polygon points="45 37.75 48 37 48 42.46 45 43.19 45 37.75" fill="url(#w)"/><polygon points="52 35.75 55 35 55 40.76 52 41.49 52 35.75" fill="url(#x)"/></g><g id="y"><g id="z"><g id="aa"><g id="ab"><path d="M21.29,9.5c-2.91,0-7.11.76-7.11,2.92,0,.31.22.54.22.81,0,.18-.08.37-.27.37-2.09,0-3.5,1.45-3.5,3.21,0,.93.48,1.06.48,1.4,0,.79-2.62.38-2.62,4.8s2.62,4.01,2.62,4.8c0,.34-.48.47-.48,1.4,0,1.75,1.35,3.22,3.61,3.22.19,0,.18.21.18.38,0,.32-.24.26-.24.77,0,2.16,4.2,2.92,7.11,2.92V9.5Z" fill="url(#ac)" stroke="#003755" stroke-linejoin="round"/><path d="M21.29,15c-1.02,0-1.42.61-2.33.61s-1.23-1-1.23-1" fill="none" stroke="#003755" stroke-linecap="round" stroke-linejoin="round"/><path d="M17.74,13.15c.12.8-.12,2.38-1.42,2.92" fill="none" stroke="#003755" stroke-linecap="round" stroke-linejoin="round"/><path d="M21.29,18.66c-2.99-.19-2.97,1.83-5.23,1.83-1.61,0-1.74-.76-1.74-.76" fill="none" stroke="#003755" stroke-linecap="round" stroke-linejoin="round"/><path d="M14.18,18.26c.23.82.46,2.85-1.42,3.65" fill="none" stroke="#003755" stroke-linecap="round" stroke-linejoin="round"/><path d="M21.29,23.36c-1.76,0-2.45,2.93-4.8,3.52" fill="none" stroke="#003755" stroke-linecap="round" stroke-linejoin="round"/><path d="M14.89,26.28c1.15.17,2.12.47,2.13,2.19" fill="none" stroke="#003755" stroke-linecap="round" stroke-linejoin="round"/><path d="M21.29,30.66c-1.16,0-2.81-.23-3.55,1.46" fill="none" stroke="#003755" stroke-linecap="round" stroke-linejoin="round"/><path d="M14.39,32.52c.08-.95.63-1.86,1.21-1.86" fill="none" stroke="#003755" stroke-linecap="round" stroke-linejoin="round"/><path d="M11.09,27.99c.16-.73.97-.98.97-.98" fill="none" stroke="#003755" stroke-linecap="round" stroke-linejoin="round"/><g id="ad" opacity=".5"><ellipse cx="17.37" cy="11.64" rx="2.72" ry=".9" transform="translate(-2.9 6.52) rotate(-19.65)" fill="url(#ae)"/><ellipse cx="13.14" cy="15.54" rx="1.96" ry=".89" transform="translate(-5.37 7.09) rotate(-25.25)" fill="url(#af)"/><ellipse cx="10.54" cy="19.96" rx="1.37" ry=".63" transform="translate(-7.5 6.4) rotate(-25.25)" fill="url(#ag)"/><ellipse cx="15.63" cy="21.87" rx=".63" ry="1.89" transform="translate(-9.4 31.66) rotate(-75.82)" fill="url(#ah)"/><ellipse cx="12.5" cy="28.06" rx="1.39" ry=".62" transform="translate(-15.86 16.26) rotate(-43.4)" fill="url(#ai)"/><path d="M20.93,24.96v2.3c-1.26.59-2.53.71-2.88.26-.39-.48.36-1.41,1.67-2.08.4-.21.82-.37,1.21-.47h0Z" fill="url(#aj)"/><path d="M20.93,18.49v1.54c-.15.16-.32.3-.52.43-.83.56-1.69.68-1.93.28-.24-.39.23-1.17,1.05-1.73.5-.34,1.02-.52,1.4-.52Z" fill="url(#ak)"/><path d="M20.93,15.7v.91c-.3.13-.63.26-.98.39-1.39.49-2.59.68-2.66.43-.08-.25.98-.85,2.38-1.34.46-.16.89-.29,1.27-.38h-.01Z" fill="url(#al)"/></g><g id="am" opacity=".3"><path d="M10.38,26.4c.05,0,.88.07.93.07.41,0,.86.09.91.23-.04-.02-.12-.07-.22-.04-.17.04-.58.16-.88.56-.64-.37-1.59-.49-2.01-1.92.34.58.77,1.1,1.28,1.1h0Z"/><path d="M20.93,17.69v.84-.22c-2.82,0-2.83,1.83-4.92,1.83-.96,0-1.25-.24-1.37-.4.08-.26.02-.34.01-.71s-.11-.62-.18-.82c-.07-.15,1.06,1.3,1.82,1.3,1.25,0,2.26-1.82,4.64-1.82Z"/><path d="M20.93,13.97v.69c-.85.09-1.26.59-2.04.59-.46,0-.81-.61-.89-.85.06-.35.12-.42.12-.7,0-.89-.17-.79-.22-.88.03-.02.14-.04.18-.04.78,0,1.07,1.44,2.07,1.44.08,0,.24,0,.77-.25h.01Z"/><path d="M20.93,21.3v1.77c-1.61.14-2.33,2.7-4.35,3.42-.72-.52-1.5-.52-1.65-.52-.08,0-.26,0-.34.1.03-.52.47-.95.81-.95.28,0,.58.15,1.13.15,2.1,0,2.13-3.82,4.4-3.98h0Z"/><path d="M15.42,30.16c.24,0,.45.19.54.41-.08-.09-.22-.27-.33-.27-.72,0-1.29.79-1.52,1.78-1.58,0-2.56-.84-2.98-1.9.46.45.96.68,1.5.68,1.21,0,2.07-.7,2.79-.7Z"/><path d="M20.93,28.84v1.46c-1.21,0-2.89-.03-3.55,1.82.04-1.41,1.41-3.08,3.55-3.28Z"/><path d="M20.93,34.29v1.83c-2.49.1-6.39-.85-6.39-2.51,0-.24.09-.37.09-.37.23.55,1.33,1.28,2.58,1.37,1.32.09,2.75.11,3.72-.32Z"/><path d="M10.38,26.4c.05,0,.88.07.93.07.41,0,.86.09.91.23-.04-.02-.12-.07-.22-.04-.17.04-.58.16-.88.56-.64-.37-1.59-.49-2.01-1.92.34.58.77,1.1,1.28,1.1h0Z" fill="url(#an)"/><path d="M20.93,17.69v.84-.22c-2.82,0-2.83,1.83-4.92,1.83-.96,0-1.25-.24-1.37-.4.08-.26.02-.34.01-.71s-.11-.62-.18-.82c-.07-.15,1.06,1.3,1.82,1.3,1.25,0,2.26-1.82,4.64-1.82Z" fill="url(#ao)"/><path d="M20.93,13.97v.69c-.85.09-1.26.59-2.04.59-.46,0-.81-.61-.89-.85.06-.35.12-.42.12-.7,0-.89-.17-.79-.22-.88.03-.02.14-.04.18-.04.78,0,1.07,1.44,2.07,1.44.08,0,.24,0,.77-.25h.01Z" fill="url(#ap)"/><path d="M20.93,21.3v1.77c-1.61.14-2.33,2.7-4.35,3.42-.72-.52-1.5-.52-1.65-.52-.08,0-.26,0-.34.1.03-.52.47-.95.81-.95.28,0,.58.15,1.13.15,2.1,0,2.13-3.82,4.4-3.98h0Z" fill="url(#aq)"/><path d="M15.42,30.16c.24,0,.45.19.54.41-.08-.09-.22-.27-.33-.27-.72,0-1.29.79-1.52,1.78-1.58,0-2.56-.84-2.98-1.9.46.45.96.68,1.5.68,1.21,0,2.07-.7,2.79-.7Z" fill="url(#ar)"/><path d="M20.93,28.84v1.46c-1.21,0-2.89-.03-3.55,1.82.04-1.41,1.41-3.08,3.55-3.28Z" fill="url(#as)"/><path d="M20.93,34.29v1.83c-2.49.1-6.39-.85-6.39-2.51,0-.24.09-.37.09-.37.23.55,1.33,1.28,2.58,1.37,1.32.09,2.75.11,3.72-.32Z" fill="url(#at)"/></g></g></g></g><path d="M29.35,9.5c-.85.04-1.59.59-2.03,1.33-.44.74-.4,1.45-.2,2.05l-.81.67c-.25.21-.57.32-.89.32h-2v2.19h2.37c.31,0,.61-.1.85-.29l1.81-1.39c.5.23,1.07.3,1.68.13.89-.25,1.59-1.02,1.77-1.95.32-1.68-.96-3.14-2.55-3.07h0Z" fill="url(#au)" stroke="#323232" stroke-linejoin="round"/><path d="M30.13,31.49c-.61-.17-1.18-.1-1.68.13l-1.81-1.39c-.25-.19-.55-.29-.85-.29h-2.37v2.19h2c.32,0,.64.11.89.32l.81.67c-.2.6-.25,1.28.2,2.05s1.18,1.3,2.03,1.33c1.59.07,2.87-1.39,2.55-3.07-.18-.93-.88-1.69-1.77-1.95h0Z" fill="url(#av)" stroke="#323232" stroke-linejoin="round"/><path d="M28.61,34.94c-.87-.93-.61-1.82-.41-2.42l-1.17-1.17c-.25-.21-.57-.32-.89-.32h-2.71v1.09h2c.32,0,.64.11.89.32l.81.67c-.2.6-.25,1.28.2,2.05.43.75,1.18,1.3,2.03,1.33,1.15.05,2.12-.7,2.46-1.74-.46.42-2.34,1.12-3.2.19h0Z" fill="#646464" isolation="isolate" opacity=".5"/><path d="M33.59,16.13c-1.23-.28-2.34.37-2.81,1.39h-1.95c-.28,0-.55.09-.79.25l-1.42.97c-.23.16-.51.25-.79.25h-2.41v2.19h3.12c.28,0,.55-.09.79-.25l1.42-.97c.23-.16.51-.25.79-.25h1.24c.4.86,1.25,1.46,2.24,1.46,1.57,0,2.79-1.49,2.42-3.16-.21-.93-.94-1.67-1.84-1.88h0Z" fill="url(#aw)" stroke="#323232" stroke-linejoin="round"/><path d="M33.01,20.08c-.99,0-1.4-.6-1.8-1.46h-1.68c-.28,0-.55.09-.79.25l-1.42.97c-.23.16-.51.25-.79.25h-3.12v1.09h3.12c.28,0,.55-.09.79-.25l1.42-.97c.23-.16.51-.25.79-.25h1.24c.4.86,1.25,1.46,2.24,1.46,1.55,0,2.76-1.45,2.43-3.11-.24,1.15-1.23,2.01-2.43,2.01h0Z" fill="#646464" isolation="isolate" opacity=".5"/><path d="M33.59,24.89c-1.23-.28-2.34.37-2.81,1.39h-1.24c-.28,0-.55-.09-.79-.25l-1.42-.97c-.23-.16-.51-.25-.79-.25h-3.12v2.19h2.41c.28,0,.55.09.79.25l1.42.97c.23.16.51.25.79.25h1.95c.4.86,1.25,1.46,2.24,1.46,1.57,0,2.79-1.49,2.42-3.16-.21-.93-.94-1.67-1.84-1.88h-.01Z" fill="url(#ax)" stroke="#323232" stroke-linejoin="round"/><path d="M33.01,28.84c-.99,0-1.53-.6-1.93-1.46h-2.26c-.28,0-.55-.09-.79-.25l-1.42-.97c-.23-.16-.51-.25-.79-.25h-2.41v1.09h2.41c.28,0,.55.09.79.25l1.42.97c.23.16.51.25.79.25h1.95c.4.86,1.25,1.46,2.24,1.46,1.55,0,2.76-1.45,2.43-3.11-.24,1.15-1.23,2.01-2.43,2.01h0Z" fill="#646464" isolation="isolate" opacity=".5"/><path d="M31.88,11.53c-.2.9-.89,1.64-1.75,1.88-.61.17-1.18.1-1.68-.13l-1.81,1.39c-.25.19-.55.29-.85.29h-2.37v1.09h2.37c.31,0,.61-.1.85-.29l1.81-1.39c.5.23,1.07.3,1.68.13.89-.25,1.59-1.02,1.77-1.95.07-.36.05-.71-.02-1.03h0Z" fill="#646464" isolation="isolate" opacity=".5"/><path d="M27.2,13.22l.73,1.14s-1.3,1.34-2.01,1.34v-1.46l1.29-1.02h0Z" fill="url(#ay)"/><path d="M30.88,26.65h-1.61c-.13,0-.26-.04-.37-.11l-1.31-.83-.58,1.3,1.4.97c.12.08.26.13.4.13h2.07v-1.46Z" fill="url(#az)"/><rect x="23.78" y="30.3" width="2.13" height="1.46" fill="url(#ba)" isolation="isolate" opacity=".6"/></g></svg>