<?xml version="1.0" encoding="UTF-8"?><svg xmlns="http://www.w3.org/2000/svg" xmlns:xlink="http://www.w3.org/1999/xlink" viewBox="0 0 64 64"><defs><linearGradient id="a" x1="13.25" y1="41.63" x2="40.67" y2="41.63" gradientUnits="userSpaceOnUse"><stop offset="0" stop-color="#464646"/><stop offset="1" stop-color="#141414"/></linearGradient><linearGradient id="d" x1="6.5" y1="42.06" x2="57.5" y2="42.06" gradientUnits="userSpaceOnUse"><stop offset="0" stop-color="#f5f5f5"/><stop offset="1" stop-color="#bebebe"/></linearGradient><linearGradient id="e" x1="6.5" y1="42.06" x2="57.5" y2="42.06" gradientUnits="userSpaceOnUse"><stop offset="0" stop-color="#fff"/><stop offset="1" stop-color="#f0f0f0"/></linearGradient><linearGradient id="h" x1="35.28" y1="6.17" x2="51.25" y2="33.83" gradientUnits="userSpaceOnUse"><stop offset="0" stop-color="#fff"/><stop offset="1" stop-color="#d4d5d3"/></linearGradient><linearGradient id="i" x1="47.1" y1="10.38" x2="51.15" y2="17.4" xlink:href="#h"/><linearGradient id="j" x1="35.57" y1="20.54" x2="40.47" y2="29.02" gradientUnits="userSpaceOnUse"><stop offset="0" stop-color="#8dd7f4"/><stop offset="1" stop-color="#386e8c"/></linearGradient><linearGradient id="l" x1="12.26" y1="14.34" x2="15.73" y2="20.34" gradientUnits="userSpaceOnUse"><stop offset="0" stop-color="#fff"/><stop offset="1" stop-color="#f0f0f0"/></linearGradient><linearGradient id="m" x1="14.27" y1="20.89" x2="17.74" y2="26.9" xlink:href="#l"/><linearGradient id="n" x1="18.58" y1="27.18" x2="22.4" y2="33.79" xlink:href="#l"/><linearGradient id="o" x1="4.47" y1="18.76" x2="16.47" y2="39.54" gradientUnits="userSpaceOnUse"><stop offset="0" stop-color="#f4f5f5"/><stop offset=".99" stop-color="#bebdbd"/></linearGradient><linearGradient id="p" x1="13.68" y1="17.78" x2="16.51" y2="22.68" gradientUnits="userSpaceOnUse"><stop offset="0" stop-color="#fff"/><stop offset="1" stop-color="#d2d2d2"/></linearGradient><linearGradient id="q" x1="16.64" y1="25.08" x2="18.8" y2="28.82" xlink:href="#p"/><linearGradient id="r" x1="21.52" y1="30.8" x2="24.04" y2="35.17" xlink:href="#p"/><linearGradient id="s" x1="19.21" y1="14.51" x2="24.34" y2="23.4" gradientUnits="userSpaceOnUse"><stop offset="0" stop-color="#a2ddf7"/><stop offset="1" stop-color="#73c3e1"/></linearGradient><linearGradient id="t" x1="14.46" y1="19.2" x2="34.37" y2="53.67" gradientUnits="userSpaceOnUse"><stop offset="0" stop-color="#82bddc"/><stop offset="1" stop-color="#275a78"/></linearGradient><linearGradient id="u" x1="20.06" y1="16.01" x2="34.03" y2="40.21" gradientUnits="userSpaceOnUse"><stop offset="0" stop-color="#8bd6f4"/><stop offset="1" stop-color="#376e8c"/></linearGradient><linearGradient id="w" x1="42.95" y1="-29.55" x2="47.08" y2="-25.42" gradientTransform="translate(0 18) scale(1 -1)" gradientUnits="userSpaceOnUse"><stop offset=".04" stop-color="#a39f9f"/><stop offset=".2" stop-color="#ddd"/><stop offset=".4" stop-color="#c6c6c5"/><stop offset=".68" stop-color="#f5f5f5"/><stop offset="1" stop-color="#bebebe"/></linearGradient><linearGradient id="x" x1="26.5" y1="-4.37" x2="40.5" y2="-28.63" gradientTransform="translate(0 18) scale(1 -1)" xlink:href="#p"/><linearGradient id="y" x1="27.25" y1="-5.67" x2="39.75" y2="-27.33" gradientTransform="translate(0 18) scale(1 -1)" gradientUnits="userSpaceOnUse"><stop offset="0" stop-color="#000"/><stop offset="1" stop-color="#fff"/></linearGradient><linearGradient id="z" x1="46.3" y1="-26.4" x2="53.51" y2="-38.88" gradientTransform="translate(0 18) scale(1 -1)" xlink:href="#j"/><linearGradient id="aa" x1="46.83" y1="-27.31" x2="52.77" y2="-37.6" gradientTransform="translate(0 18) scale(1 -1)" gradientUnits="userSpaceOnUse"><stop offset="0" stop-color="#8dd7f4"/><stop offset=".26" stop-color="#8bd4f1"/><stop offset=".44" stop-color="#83cbe8"/><stop offset=".61" stop-color="#76bbd8"/><stop offset=".76" stop-color="#64a4c2"/><stop offset=".9" stop-color="#4d88a6"/><stop offset="1" stop-color="#386e8c"/></linearGradient></defs><g id="c"><polygon points="57.5 37.28 38.24 54.5 6.5 41.55 25.76 29.62 57.5 37.28" fill="url(#d)"/><path d="M25.93,30.69l29.48,7.11-17.37,15.54-29.35-11.97,17.23-10.68M25.76,29.62l-19.26,11.93,31.74,12.95,19.26-17.22-31.74-7.66h0Z" fill="url(#e)"/><path d="M25.76,29.62s0,0-.02.01h0s-.01,0-.02.01h0s-.01,0-.02.01h0s0,0,0,0h0s0,0,0,0h0s0,0,0,0h0s0,0,0,0h0s0,0,0,0h0s0,0,0,0h0s0,0,0,0h0s0,0,0,0h0s0,0,0,0h-.01s0,0,0,.01h-.02s0,.01,0,.01l-1.55.96.13.21,1.7-1.05-.13-.21h0ZM22.36,31.73l-1.7,1.05.13.21,1.7-1.05-.13-.21h0ZM18.96,33.84l-1.7,1.05.13.21,1.7-1.05-.13-.21h0ZM15.56,35.94l-1.7,1.05.13.21,1.7-1.05-.13-.21h0ZM12.16,38.05l-1.7,1.05.13.21,1.7-1.05-.13-.21h0ZM8.76,40.16l-1.7,1.05.13.21,1.7-1.05-.13-.21h0ZM7.84,41.83l-.09.23,1.85.76.09-.23-1.85-.76h0ZM11.54,43.34l-.09.23,1.85.76.09-.23-1.85-.76h0ZM15.25,44.85l-.09.23,1.85.76.09-.23-1.85-.76h0ZM18.95,46.36l-.09.23,1.85.76.09-.23-1.85-.76h0ZM22.66,47.87l-.09.23s.43.17.87.36h0s0,0,0,0h0s0,0,0,0l.98.4.09-.23-1.85-.76h0ZM26.36,49.38l-.09.23,1.85.76.09-.23-1.85-.76h0ZM30.06,50.89l-.09.23,1.85.76.09-.23-1.85-.76h0ZM33.77,52.4l-.09.23,1.85.76.09-.23-1.85-.76h0ZM38.87,53.6l-.68.61-.72-.29-.09.23.84.34s0,0,0,0h0s0,0,0,0h0s0,0,0,0h0s0,0,0,0h0s0,0,0,0h0s0,0,0,0h0s0,0,0,0h0s0,0,0,0h0s0,0,0,0h0s0,0,0,0h0s0,0,0,0h0s0,0,0,0h0s0,0,0,0h0s0,0,0,0h0s0,0,0,0h0s0,0,0,0h0s0,0,0,0h0s0,0,0,0h0s0,0,0,0h0s0,0,0,0h0s0,0,0,0h0s0,0,0,0h0s0,0,0,0h0s0,0,0,0h0s0,0,0,0h0s0,0,0,0l.77-.69-.17-.19h0ZM41.85,50.94l-1.49,1.33.17.19s.14-.13.34-.31h0s0,0,0,0h0s0,0,0,0h0s0,0,0-.01l1.12-1-.17-.19h0ZM44.83,48.27l-1.49,1.33.17.19s.42-.37.81-.73h0s0,0,0,0h0s0,0,0,0l.67-.6-.17-.19h0ZM47.81,45.6l-1.49,1.33.17.19s.84-.75,1.26-1.12h0s0,0,.01-.01h0s0,0,.01-.01h0s0,0,0,0h0s0,0,0,0l.2-.18-.17-.19h0ZM50.8,42.94l-1.49,1.33.17.19,1.49-1.33-.17-.19h0ZM53.78,40.27l-1.49,1.33.17.19.96-.86c.29-.26.53-.47.53-.47l-.17-.19h0ZM56.76,37.6l-1.49,1.33.17.19.6-.54s0,0,0,0h0c.41-.37.88-.79.88-.79l-.17-.19h0ZM54.36,36.52l-.06.24,1.94.47.06-.24s-1.28-.31-1.76-.43h0s0,0,0,0h0s0,0,0,0h0s0,0,0,0h0s0,0,0,0h0s0,0,0,0h0s0,0,0,0h0s0,0,0,0h-.01s0,0,0,0h-.01s0,0,0,0h0s0,0,0,0h0s0,0,0,0h0s0,0,0,0h0s0,0,0,0h0s0,0,0,0h0s0,0,0,0h0s0,0,0,0h0s0,0,0,0l-.11-.03h0ZM50.47,35.58l-.06.24,1.94.47.06-.24-1.94-.47h0ZM46.58,34.64l-.06.24,1.94.47.06-.24-1.94-.47h0ZM42.7,33.71l-.06.24,1.94.47.06-.24-1.94-.47h0ZM38.81,32.77l-.06.24,1.94.47.06-.24-1.94-.47h0ZM34.92,31.83l-.06.24,1.94.47.06-.24s-.23-.06-.53-.13h0s0,0,0,0h0s0,0,0,0h0s0,0,0,0h0s0,0,0,0h0s0,0,0,0h0s0,0,0,0h0s0,0,0,0h0s0,0,0,0h0s0,0,0,0h0s0,0,0,0h0s0,0,0,0h0s0,0,0,0l-1.36-.33h0ZM31.03,30.89l-.06.24,1.94.47.06-.24-1.2-.29s0,0,0,0h0c-.4-.1-.74-.18-.74-.18h0ZM27.14,29.96l-.06.24,1.94.47.06-.24s-.07-.02-.18-.04h0s-.07-.02-.11-.03h0s-.01,0-.02,0h0s-.01,0-.02,0h0s-.04,0-.05-.01h0s-.05-.01-.07-.02h0s0,0,0,0h0s0,0,0,0h0s0,0,0,0h0s-.05-.01-.07-.02h0s-.04-.01-.07-.02h0s0,0-.01,0h0s0,0,0,0h0s0,0,0,0h0s0,0,0,0h0s0,0-.01,0h0s0,0,0,0h0s0,0,0,0h0s0,0,0,0h0s-.01,0-.02,0h0s0,0,0,0h0s0,0,0,0h0s0,0,0,0h0s0,0,0,0h0s0,0,0,0h0s0,0,0,0h0s0,0,0,0h0s0,0,0,0h0s0,0,0,0h0s0,0,0,0h0s-.01,0-.02,0h0s0,0,0,0h0s0,0,0,0h0s0,0,0,0h-.01s0,0,0,0h0s0,0,0,0h0s-.01,0-.02,0h0s0,0,0,0h0s-.01,0-.02,0h0s0,0,0,0h0s0,0,0,0h-.01s0,0,0,0h0s0,0,0,0h-.04s0-.01,0-.01h0s0,0,0,0h-.05s0-.01,0-.01h0s0,0,0,0h0s0,0,0,0h0s0,0,0,0h-.02s0,0,0,0h0s0,0,0,0h0s0,0,0,0h0s0,0,0,0h-.03s0,0,0,0h0s0,0,0,0h0s0,0,0,0h0s0,0,0,0h0s0,0,0,0h0s0,0,0,0h-.02s0,0,0,0h0s0,0,0,0h-.01s0,0,0,0h-.03s0,0,0,0h-.01s0,0,0,0h0s0,0,0,0h-.02s0,0,0,0h0s0,0,0,0h0s0,0,0,0h0s0,0,0,0h-.02s0,0,0,0h-.02s0,0,0,0h0s0,0,0,0h0s0,0,0,0h0s0,0,0,0h0s0,0,0,0h0s0,0,0,0l-.17-.04s0,0,0,0l-.5-.12h0Z" fill="#323232"/><line x1="32.26" y1="37.55" x2="31.43" y2="38.11" fill="none" stroke="#323232" stroke-linecap="round" stroke-miterlimit="10"/><line x1="30.05" y1="39.05" x2="29.22" y2="39.61" fill="none" stroke="#323232" stroke-linecap="round" stroke-miterlimit="10"/><line x1="36.68" y1="44.8" x2="37.45" y2="44.17" fill="none" stroke="#323232" stroke-linecap="round" stroke-miterlimit="10"/><polyline points="38.62 43.23 39.4 42.59 38.44 42.32" fill="none" stroke="#323232" stroke-linecap="round" stroke-miterlimit="10"/><polyline points="36.48 41.75 29.32 39.69 25.76 38.56" fill="none" stroke="#323232" stroke-dasharray="2.03 2.03" stroke-linecap="round" stroke-miterlimit="10"/><polyline points="24.79 38.26 23.84 37.95 23.01 38.51" fill="none" stroke="#323232" stroke-linecap="round" stroke-miterlimit="10"/><line x1="22.01" y1="39.17" x2="21.18" y2="39.73" fill="none" stroke="#323232" stroke-linecap="round" stroke-miterlimit="10"/><path d="M31.96,43.26l8.72,2.74-4.71,3.69-8.6-3.2,4.6-3.24ZM13.25,41.23l7.15,2.68,4.65-2.93-7.58-2.46-4.22,2.71ZM27.4,36.18l8.66,2.52,4.07-2.83-8.79-2.31-3.94,2.62Z" fill="url(#a)"/></g><g id="g"><polygon points="35.91 13.38 35.91 10.44 34.44 8.97 32.97 7.5 37.38 7.5 38.85 8.97 38.85 11.91 40.32 13.38 50.62 23.68 55.03 23.68 56.5 25.15 56.5 26.62 56.5 29.56 55.03 28.09 53.56 26.62 50.62 26.62 50.62 29.56 53.56 32.5 50.62 32.5 49.15 32.5 47.68 31.03 47.68 28.09 47.68 26.62 37.38 16.32 31.5 16.32 30.03 14.85 30.03 13.38 30.03 10.44 31.5 11.91 32.97 13.38 35.91 13.38" fill="url(#h)" stroke="#323232" stroke-linejoin="round"/><polyline points="55.03 7.5 52.09 7.5 43.03 16.51 41.79 17.79 44.74 21.1 46.21 19.26 55.03 10.44 55.03 7.5" fill="url(#i)" stroke="#323232" stroke-linecap="round" stroke-linejoin="round"/><polygon points="43.26 17.79 40.32 17.79 30.03 28.09 34.44 32.5 44.74 22.21 44.74 19.26 43.26 17.79" fill="url(#j)" stroke="#053755" stroke-linejoin="round"/></g><g id="k"><line x1="11.53" y1="15.68" x2="11.53" y2="24.06" fill="none" stroke="#063755" stroke-linejoin="round"/><g opacity=".5"><path d="M28.72,32.45h0c-2.52-1.53-6.4-2.52-10.8-2.52s-8.45,1.02-10.87,2.57l10.71,6.49,10.96-6.55Z"/></g><path d="M28.72,32.45h0c-2.52-1.53-6.4-2.52-10.8-2.52s-8.45,1.02-10.87,2.57l10.71,6.49,10.96-6.55Z"/><polygon points="6.92 20.71 6.92 17.42 17.66 14 22.33 16.15 20.18 17.77 11.01 21.13 6.92 20.71" fill="url(#l)"/><polygon points="9.85 27.94 9.85 23.43 21.04 19.5 23.68 22.49 22.19 24.32 12.14 29.15 9.85 27.94" fill="url(#m)" stroke="#797979" stroke-linecap="round" stroke-linejoin="round"/><polygon points="13.94 33.1 13.55 30.09 25.05 25.48 27.78 29.15 24.01 32.87 16.93 34.96 13.94 33.1" fill="url(#n)" stroke="#797979" stroke-linecap="round" stroke-linejoin="round"/><polygon points="6.5 17.58 6.5 32.31 17.4 39 17.4 33.29 14.05 31.61 14.05 26.58 10.69 24.9 10.69 19.5 6.5 17.58" fill="url(#o)" stroke="#797979" stroke-linecap="round" stroke-linejoin="round"/><polygon points="19.92 16.41 10.69 19.5 10.69 24.76 19.92 20.71 19.92 16.41" fill="url(#p)" stroke="#797979" stroke-linecap="round" stroke-linejoin="round"/><polygon points="14.05 26.58 21.59 22.91 21.59 27.21 14.05 31.35 14.05 26.58" fill="url(#q)" stroke="#797979" stroke-linecap="round" stroke-linejoin="round"/><polygon points="17.4 33.18 28.3 27.21 28.3 32.45 17.4 39 17.4 33.18" fill="url(#r)" stroke="#797979" stroke-linecap="round" stroke-linejoin="round"/><polygon points="26.63 26.44 24.83 25.48 21.59 26.74 21.59 24.48 22.07 24.32 23.66 22.49 21 19.5 19.92 19.86 19.92 17.77 22.2 16.15 17.39 14 6.5 17.42 6.5 20.71 6.5 32.45 17.32 39 28.3 32.45 28.3 27.21 26.63 26.44" fill="none" stroke="#323232" stroke-linecap="round" stroke-linejoin="round"/><polygon points="13.21 20.15 13.21 17.97 23.19 14.49 29.98 17.14 29.98 20.15 18.82 25.47 13.21 20.15" fill="url(#s)" stroke="#063755" stroke-linecap="round" stroke-linejoin="round"/><polygon points="13.21 23.74 13.21 17.97 19.92 21.54 19.92 31.8 16.56 29.93 16.56 25.47 13.21 23.74" fill="url(#t)" stroke="#063755" stroke-linecap="round" stroke-linejoin="round"/><polygon points="29.98 17.14 19.92 21.54 19.92 31.8 29.98 26.31 29.98 17.14" fill="url(#u)" stroke="#063755" stroke-linecap="round" stroke-linejoin="round"/></g><g id="v"><g opacity=".5"><path d="M53.45,57c-.81,0-1.59-.31-2.16-.88l-8.14-8.28-1.42-1.42c-2.41,1.68-5.28,2.58-8.22,2.57-8.02,0-14.52-6.48-14.53-14.5,0-8.02,6.48-14.52,14.5-14.53,8.02,0,14.52,6.48,14.53,14.5,0,2.7-.75,5.35-2.17,7.65l1.53,1.52,8.27,8.13c1.2,1.19,1.2,3.12.01,4.32-.58.58-1.37.91-2.19.9ZM33.5,24c-5.8,0-10.5,4.7-10.5,10.5s4.7,10.5,10.5,10.5,10.5-4.7,10.5-10.5c0-5.8-4.7-10.49-10.5-10.5Z" fill="#fff"/><path d="M33.5,20.5c7.73,0,14,6.26,14,13.99,0,2.74-.8,5.42-2.31,7.71l1.81,1.81,8.27,8.14c.97,1.02.97,2.62,0,3.63-1.01.98-2.62.98-3.63,0l-8.14-8.27-1.72-1.72c-6.23,4.57-14.99,3.23-19.56-3-4.57-6.23-3.23-14.99,3-19.56,2.4-1.76,5.31-2.71,8.29-2.71M33.5,45.5c6.08,0,11-4.92,11-11s-4.92-11-11-11-11,4.92-11,11,4.92,11,11,11M33.5,19.5c-8.28,0-15,6.72-15,15s6.72,15,15,15c2.9,0,5.73-.84,8.16-2.43l1.13,1.13,8.13,8.27c.67.67,1.58,1.03,2.52,1.03,1.96.02,3.57-1.56,3.58-3.52,0-.96-.37-1.87-1.05-2.55l-8.28-8.14-1.24-1.24c4.17-7.15,1.75-16.33-5.4-20.5-2.29-1.34-4.9-2.04-7.56-2.04ZM33.5,44.5c-5.52,0-10-4.48-10-10s4.48-10,10-10,10,4.48,10,10c0,5.52-4.48,9.99-10,10Z" fill="#fff"/></g><path d="M45,49l-3.5-3.5,3.5-3.5,3.5,3.5-3.5,3.5Z" fill="url(#w)"/><polygon points="45 47.29 42.71 45 42.21 45.5 45 48.29 47.79 45.5 47.29 45 45 47.29" isolation="isolate" opacity=".3"/><polygon points="45 43.71 47.29 46 47.79 45.5 45 42.71 42.21 45.5 42.71 46 45 43.71" fill="#fff" isolation="isolate" opacity=".3"/><path d="M45.83,43.53l-.83-.83-2.79,2.79,1.15,1.15c.95-.93,1.78-1.98,2.47-3.12Z" fill="#646565" isolation="isolate" opacity=".5"/><circle cx="33.5" cy="34.5" r="12.5" fill="#fff" isolation="isolate" opacity=".2"/><path d="M33.5,20.5c-7.73,0-14,6.27-14,14s6.27,14,14,14,14-6.27,14-14-6.27-14-14-14ZM33.5,45.5c-6.08,0-11-4.92-11-11s4.92-11,11-11,11,4.92,11,11-4.92,11-11,11Z" fill="url(#x)" stroke="#787979" stroke-linejoin="round"/><path d="M41.04,35.86h0c-.82-.23-1.69.15-2.09.9-.61,1.14-1.54,2.07-2.68,2.68-.75.4-1.13,1.27-.9,2.09h0c.27.97,1.28,1.54,2.25,1.26.13-.04.25-.09.37-.15,1.77-.95,3.22-2.4,4.16-4.16.48-.89.14-1.99-.75-2.47-.12-.06-.24-.11-.37-.15Z" fill="#fff" isolation="isolate" opacity=".3"/><path d="M24,34.68h3.64c0-3.62,2.93-6.55,6.55-6.55v-3.64c-5.62,0-10.18,4.56-10.18,10.18Z" fill="#fff" isolation="isolate" opacity=".5"/><path d="M33.5,22c-6.9,0-12.5,5.6-12.5,12.5s5.6,12.5,12.5,12.5,12.5-5.6,12.5-12.5-5.6-12.5-12.5-12.5ZM33.5,46c-6.35,0-11.5-5.15-11.5-11.5s5.15-11.5,11.5-11.5,11.5,5.15,11.5,11.5c0,6.35-5.15,11.49-11.5,11.5Z" fill="url(#y)" isolation="isolate" opacity=".3"/><path d="M48.5,45.5l-3.31-3.31c4.3-6.49,2.52-15.23-3.96-19.52-6.49-4.3-15.23-2.52-19.52,3.96-4.3,6.49-2.52,15.23,3.96,19.52,4.92,3.26,11.35,3.11,16.11-.38l3.22,3.23,3.5-3.5Z" fill="none" stroke="#323232" stroke-linejoin="round"/><path d="M55.27,52.14l-8.27-8.14-3.5,3.5,8.14,8.27c1.02.99,2.65.97,3.64-.05.97-1,.97-2.59,0-3.59Z" fill="url(#z)"/><path d="M55.27,52.14l-8.27-8.14-3.5,3.5,8.14,8.27c1.02.99,2.65.97,3.64-.05.97-1,.97-2.59,0-3.59Z" fill="none" stroke="#053755" stroke-linejoin="round"/><path d="M54.91,54.41c-.39.38-.92.59-1.46.59h0c-.54,0-1.06-.2-1.45-.58l-7.3-7.42-.5.5,7.79,7.92c.39.38.91.59,1.46.58h0c1.11.02,2.03-.86,2.05-1.97,0-.03,0-.05,0-.08,0-.17-.02-.34-.07-.5-.08.36-.26.7-.52.96Z" isolation="isolate" opacity=".3"/><path d="M47,45.7l7.92,7.79c.26.27.43.6.52.96.04-.16.06-.33.07-.5,0-.54-.2-1.07-.58-1.46l-7.92-7.78-2.8,2.8.5.5,2.3-2.3Z" fill="#fff" isolation="isolate" opacity=".3"/><path d="M54,53l-2-2-5.5-5.5-1.5,1.5,7.5,7.5c.54.54.57.5,1,.5.52.03.97-.36,1-.88,0-.04,0-.08,0-.12-.04-.38-.22-.74-.5-1Z" fill="url(#aa)"/></g></svg>