<?xml version="1.0" encoding="UTF-8"?><svg xmlns="http://www.w3.org/2000/svg" xmlns:xlink="http://www.w3.org/1999/xlink" viewBox="0 0 64 64"><defs><radialGradient id="c" cx="38.66" cy="25.81" fx="38.66" fy="25.81" r="34.39" gradientTransform="translate(2.39 0)" gradientUnits="userSpaceOnUse"><stop offset="0" stop-color="#dcdcda"/><stop offset=".17" stop-color="#d7d7d5"/><stop offset=".35" stop-color="#cacac8"/><stop offset=".54" stop-color="#b4b4b3"/><stop offset=".74" stop-color="#969695"/><stop offset=".86" stop-color="#7f7f7e"/></radialGradient><radialGradient id="d" cx="41.35" cy="28.29" fx="41.35" fy="28.29" r="197.47" gradientUnits="userSpaceOnUse"><stop offset=".05" stop-color="#fff"/><stop offset=".13" stop-color="#d7d7d7"/><stop offset=".22" stop-color="#afafaf"/><stop offset=".3" stop-color="#929292"/><stop offset=".37" stop-color="gray"/><stop offset=".43" stop-color="#7a7a7a"/></radialGradient><linearGradient id="e" x1="51.02" y1="22.96" x2="45.24" y2="31.1" gradientUnits="userSpaceOnUse"><stop offset="0" stop-color="#92d5ee"/><stop offset=".67" stop-color="#599bb4"/><stop offset="1" stop-color="#3c7e96"/></linearGradient><linearGradient id="f" x1="45.4" y1="26.54" x2="40.51" y2="33.39" xlink:href="#e"/><linearGradient id="g" x1="50.01" y1="24.61" x2="37.93" y2="39.38" gradientUnits="userSpaceOnUse"><stop offset="0" stop-color="#92d5ee"/><stop offset=".48" stop-color="#599bb3"/><stop offset="1" stop-color="#185971"/></linearGradient><linearGradient id="h" x1="54.34" y1="27.85" x2="33.18" y2="59.58" xlink:href="#g"/><linearGradient id="i" x1="23.32" y1="13.24" x2="17.53" y2="21.38" xlink:href="#e"/><linearGradient id="j" x1="17.69" y1="16.82" x2="12.8" y2="23.66" xlink:href="#e"/><linearGradient id="k" x1="22.3" y1="14.88" x2="10.22" y2="29.66" xlink:href="#g"/><linearGradient id="l" x1="26.63" y1="18.12" x2="5.47" y2="49.86" xlink:href="#g"/><linearGradient id="r" x1="35.5" y1="-12.52" x2="35.5" y2="-15.59" gradientTransform="translate(0 18) scale(1 -1)" gradientUnits="userSpaceOnUse"><stop offset="0" stop-color="#8cd7f5"/><stop offset=".2" stop-color="#7fc7e5"/><stop offset=".59" stop-color="#5e9fbd"/><stop offset="1" stop-color="#376e8c"/></linearGradient><clipPath id="v"><polygon points="44.3 52.71 36.65 52.71 36.65 46.59 32.83 45.06 31.3 42.51 31.3 35.88 32.83 35.88 44.3 35.88 44.3 52.71" fill="none"/></clipPath></defs><g id="a"><g id="b"><path d="M36.28,52.63c-10.37,0-18.81-8.44-18.81-18.82s8.44-18.81,18.81-18.81,18.81,8.44,18.81,18.81-8.44,18.82-18.81,18.82Z" fill="url(#c)"/><path d="M36.28,15.5c10.11,0,18.31,8.2,18.31,18.31s-8.2,18.32-18.31,18.32-18.31-8.2-18.31-18.32,8.2-18.31,18.31-18.31M36.28,14.5c-10.65,0-19.31,8.66-19.31,19.31s8.66,19.32,19.31,19.32,19.31-8.66,19.31-19.32-8.66-19.31-19.31-19.31h0Z" fill="#343434"/><path d="M37.85,50.01c-.72,0-.88-.43-.91-.69-.01,0-.25-.17-.25-.17-.3-.22-.35-.58-.38-.85,0-.07-.02-.18-.03-.22-.03-.05-.15-.21-.23-.31-.2-.25-.38-.49-.46-.73-.04-.13-.17-.51.47-1.41v-.02c-.11-.21-.09-.41-.07-.57,0-.06.02-.12.02-.19-.01-.03-.13-.2-.21-.29-.56-.91-.67-1.39-.44-1.73-.09,0-.18-.02-.27-.04-.33-.08-.65-.3-.93-.51-.08.02-.19.07-.24.11-.2.2-.52.23-.69.23s-.49-.03-.74-.25c-.08.01-.15.02-.24.03-.08,0-.17.02-.27.03-.11,0-.2.01-.28.01-.44,0-.71-.19-.82-.57-.06-.11-.58-.67-.85-.97l-.23-.25c-.4-.45-.72-.8-.51-1.53.18-.6.18-.88.15-1.02-.07-.3-.2-.92.3-1.46.19-.2,1.16-1.11,1.52-1.26-.03,0,.09-.22.16-.34.11-.2.21-.37.32-.49.15-.15.36-.23.55-.27-.08-.01-.15-.03-.22-.06-.17-.07-.3-.22-.35-.41-.1-.36.11-.8.22-1-.02-.12-.09-.34-.13-.42-.11-.19-.1-.48.03-.71.14-.24.38-.38.64-.38h.06l.12.02c.18.04.86.16,1.29.21-.05-.02-.1-.03-.15-.04h-.07s-.06-.05-.06-.05c-.16-.08-.42-.27-.45-.59l-.02-.25c-.17-.12-.3-.31-.31-.5h-.01c-.16,0-.31-.05-.44-.15-.5-.26-.47-.64-.42-.84.09-.33.3-.53.44-.65.09-.13.27-.41.64-.41h.07l.13.03h.01c-.02-.15,0-.26.02-.33l.02-.11c.04-.28.21-.62.81-.62.32,0,.59.13.72.34.07.03.14.08.22.14.35.29.32.57.26.72-.04.1-.09.18-.16.24.06.08.1.18.11.31.04.05.08.12.12.21.03.02.07.05.1.07.05.04.09.07.11.08.11.08.19.15.26.3.07-.1.16-.21.31-.28.12-.05.26-.07.41-.08.05,0,.14-.02.14-.02-.06-.21-.05-.38,0-.52-.21-.07-.39-.21-.48-.42-.16-.37-.06-.63,0-.76-.05-.26-.01-.51.11-.73.1-.17.29-.38.68-.48.53-.12,1.04-.31,1.14-.4.15-.26.76-.93,1.79-1.46.21-.11.39-.21.55-.3.45-.25.81-.45,1.33-.54.14-.02.25-.03.35-.03.24,0,.4.05.52.12.12-.01.33-.03.55-.03.31,0,.53.04.69.11.09.03.55.07.82.1.61.06.8.08.96.17.03.01.09.04.15.07.26.11.51.22.65.38.11-.05.21-.09.32-.12l.19-.05c.17-.04.26-.06.4-.17.15-.12.28-.19.41-.25s.2-.1.3-.21c.15-.16.31-.27.47-.38.2-.13.37-.25.48-.45l.15-.26c.13-.23.27-.46.35-.67l.3-.79.55.64c2.91,3.39,4.51,7.72,4.51,12.19v.07l-.02.18-.03.14c-.02.1-.05.23-.1.38-.12.41-.63,1.49-.86,1.78-.03.06-.07.3-.1.48-.01.08-.03.17-.04.26l.16.06.14.27c.13.35-.06.74-.1.81-.14.55-.41.65-.62.65h-.1s-.14-.05-.14-.05c-.03-.01-.06-.03-.09-.04-.14.15-.29.24-.46.24-.11,0-.66-.04-.66-.87,0,0-.03-.04-.06-.08-.05-.08-.12-.18-.19-.32-.16-.32-.18-.71-.18-.94-.22-.05-.39-.21-.51-.33,0,0-.02-.01-.02-.02h-.07c-.26,0-.56.03-.7.06-.13.03-.24.05-.34.06-.04,0-.11.01-.12.02-.05.04-.13.09-.22.13,0,0,0,0,0,0,.14.47-.32,1.18-.7,1.46-.23.17-.31.34-.31.35-.46.68-.94.84-1.18.91-.06.09-.17.19-.34.25.02.03.04.06.05.09.26.56-.21,1.63-.81,2.34-.45.53-.89.86-1.21,1.11-.13.1-.29.22-.32.27-.07.28-.4.51-.76.74-.13.09-.31.2-.36.26-.07.08-.08.27.07.99.03.14.04.26.03.38.11-.1.3-.23.54-.23h.05s.02-.02.03-.02c.09-.08.16-.12.22-.16.04-.06.05-.1.06-.14.04-.14.15-.48.53-.55l.12-.08h.12c.11,0,.45.04.54.51.16.25.05.51-.03.7l-.15.34c-.07.17-.11.27-.14.33l-.03.09c-.13.48-.21.7-.35.84-.12.18-.26.29-.56.35,0,0-.03.03-.06.05-.12.08-.3.21-.54.21h0c-.15,0-.3-.05-.42-.14-.04-.03-.07-.05-.1-.06-.12-.06-.37-.19-.42-.57-.11-.27-.05-.47.06-.61-.27.2-.59.32-.78.39-.1.04-.19.07-.26.1.02.01.04.18.05.25.02.15.04.29-.02.45l-.12.32-.4.03c-.06,0-.12,0-.18-.02-.16.3-.44.52-.65.68l-.08.09c-.12.18-.25.3-.57.46-.53.26-1.6.42-2.06.45-.12,0-.21.01-.3.01ZM43.54,46.48s-.06.08-.1.12c.04-.03.08-.05.11-.07,0-.02,0-.04-.01-.06ZM37.57,35c.45,0,.68.15.89.58.04.01.25.05.41.08.02-.07.04-.13.07-.18.11-.2.38-.38.65-.46l-.61-.7c-.18.19-.38.3-.44.33l-.29.16-.26-.21c-.32-.27-.32-.52-.26-.69l.05-.13c-.36-.3-.94-.75-1.07-.84,0,0-.06-.01-.11-.02-.12.14-.29.22-.48.22-.14,0-.28-.04-.4-.13,0,.02,0,.04-.01.05-.11.35-.45.46-.77.5,0,.07-.03.13-.05.19,0,.02-.02.04-.03.07.38-.03.76-.04,1.04-.04.18,0,1.09,0,1.39.1.27.08.38.26.42.37.12.3-.02.57-.13.77ZM40.43,35.24c.08.03.2.08.37.18.23.13.46.14.76.16.16,0,.32.02.48.05.1.02.18.02.25.02.12,0,.14-.02.19-.05.05-.03.14-.14.21-.22.09-.1.18-.21.28-.3,0,0,0-.09.02-.16-.03,0-.06,0-.1,0-.11,0-.22-.02-.34-.06-.11.13-.28.23-.57.23s-.59-.1-.83-.26c-.06-.04-.12-.09-.16-.13-.14.07-.3.08-.41.09l-.12.03c-.07.04-.16.08-.27.12l.04.1c.08.04.15.11.21.18ZM47.82,33.05s-.02.08-.04.12c.11-.03.14-.07.15-.08,0,0,0,0-.01,0-.03,0-.06-.02-.1-.05h0ZM42.45,32.74h0c.08-.15.21-.22.31-.26.09-.03.15-.05.23-.07-.03-.04-.07-.12-.07-.12-.06-.01-.12-.03-.2-.06-.03.02-.06.05-.09.07-.04.11-.11.23-.23.38.02.02.03.04.05.06ZM47.53,32.35c.05.05.11.11.16.18,0-.04.02-.07.04-.1-.03-.03-.07-.05-.11-.08-.08-.06-.1-.07-.12-.07.01.03.02.05.03.08ZM39.89,28.8c.06.03.12.06.18.09,0,0,0,0,.01,0,.01-.01.02-.03.03-.05.05-.48.25-.74.58-.82,0-.04,0-.08,0-.13,0-.03.01-.06.02-.09-.02-.02-.05-.04-.07-.07-.04-.04-.07-.09-.09-.13,0,.2-.07.44-.23.63-.08.09-.17.16-.28.2,0,0,0,0,0,.01-.03.1-.07.23-.15.35ZM40.48,27.26s.01-.16.01-.16c-.02.02-.04.05-.06.07.02.03.04.06.05.09ZM21.49,45.36c-2.22-2.84-3.56-6.23-3.89-9.8l-.1-1.1.47.34c.01-.09.04-.19.08-.29.01-.04.02-.07.03-.1.03-.12.12-.49.56-.56h.1c.26,0,.54.13.65.19l.22.11.04.24c.01.07.07.29.17.44.08.12.17.21.29.32.02.01.03.03.05.04h.01c.37,0,.57.34.74.65.28.49.34.65.33.86l.07.14c.12.28.12.29.53.69.57.54.92,1.09,1.13,1.76.06.19.11.23.29.37.13.1.32.24.52.48.22.25.34.36.45.46.11.1.22.2.4.4.14.16.28.28.39.38.2.17.38.33.48.57.34.34.38.69.13,1.07-.15.22-.29.32-.43.37,0,.01-.01.03-.02.05-.03.07-.05.12-.06.15,0,.12-.02.25-.14.52l-.08.19c-.13.3-.26.61-.72.66-.12.01-.14.01-.18.01,0,0-.12,0-.34,0-.12,0-.22.02-.29.04-.13.29-.36.46-.64.46h-.13c-.1-.04-.18-.07-.26-.1-.05.04-.16.11-.27.15l-.34.13-.23-.29ZM23.01,28.42h-.11c-.39-.06-.67-.22-.89-.54-.09.03-.19.04-.3.04-.06,0-.12,0-.18-.01h-.02s-.16.03-.16.03c-.3,0-.46-.22-.54-.37l-.29.08s-.15.04-.3.05l-.05.25-.31.14-.13.1-.22.03c-.26,0-.42-.17-.53-.28l-.33-.32.06-.36c.84-2.24,2.09-4.28,3.7-6.05l.95-1.05-.09,1.41c-.04.74-.11,1.83-.11,2.05,0,.32.09.85.18,1.03.03.06.05.1.07.13.12.21.13.33.13.68s0,.74-.11,1.01c.05.06.08.14.1.23.1.14.29.48.17.89-.01.04-.01.08-.01.13-.02.64-.49.69-.64.69h-.04ZM30.29,26.06l-.21-.31c-.09-.17-.1-.37-.04-.56-.31-.24-.4-.62-.25-1.02.16-.4.48-.44.61-.44.16,0,.3.06.44.11l.08.03.11.09s.43,0,.43,0c.23,0,.29.02.58.12l.19.06c.39.13.61.35.65.65.03.24-.08.43-.21.57-.06.12-.16.27-.32.38-.16.1-.38.23-.63.23-.15,0-.29-.04-.4-.13-.11,0-.2,0-.25.02-.03.02-.08.04-.12.08l-.13.1-.24.03h-.3ZM25.44,25.17c-.35,0-.66-.18-.83-.49-.03-.05-.06-.11-.09-.18l-.05-.08c-.25-.39-.33-.7-.3-1.08v-.1s.01-.14.02-.34c.01-.34.01-.38,0-.44,0-.04,0-.1,0-.23v-.53s0-.05-.02-.1c-.05-.19-.09-.42.11-.77.11-.2.22-.3.29-.36l.02-.11c0-.13.03-.26.05-.35.06-.23.1-.29.12-.34,0-.03.01-.07.02-.11l-.22-.38.35-.27c1.7-1.3,3.59-2.29,5.62-2.94l.86-.27-.22.87c-.1.38-.08.62-.05.67.52.21,1.13.87,1.52,1.44.16-.09.29-.11.43-.11.4,0,.92.24,1.04.62l.11.35-.32.29c-.23.16-.6.24-.87.27-.08.12-.2.27-.39.36.04.3-.07.52-.34.7.03.18.01.33-.14.52-.07.08-.1.11-.15.17-.04.04-.09.09-.19.2-.05.06-.12.13-.22.18,0,.01-.01.03-.02.05-.09.23-.1.27-.1.29,0,.08-.02.16-.06.3-.02.07-.03.11-.03.13-.04.23-.17.51-.63.51h-.38l-.57.04c-.07,0-.14.02-.2.04-.12.03-.27.07-.45.07h0c-.19,0-.38-.05-.57-.14-.02-.01-.04-.02-.06-.03h-.13c-.06.15-.21.3-.55.3-.19.07-.36.12-.56.12-.11,0-.22-.02-.33-.05-.15.19-.28.28-.38.31l-.03.04c.08.38-.11.66-.52.78l-.44.13h-.15ZM40.63,22.44l-.28-.04c-.21-.02-.49-.06-.66-.3l-.13-.19v-.1c-.05-.03-.12-.08-.17-.14l-.11-.03-.12-.32c-.08-.34.18-.55.36-.7.13-.11.2-.18.24-.22.08-.09.23-.23.49-.23h.12c.09.02.15.03.21.05.04,0,.7-.22.7-.22.08-.02.2-.04.38-.04.16,0,.31.02.46.05.04,0,.08.01.12.01.13,0,.27-.04.39-.09.28-.09.49-.16.66-.16h.26l.2.23.15.22-.1.27c-.04.18-.14.67-.63.79.03.19-.04.39-.19.54l-.51.51h0s-.06.05-.06.05h-.22c-.12,0-.21-.04-.32-.08-.2-.09-.32-.21-.41-.3-.06-.06-.09-.08-.11-.09,0,0,0,0,0,0-.04.06-.07.1-.09.14-.06.12-.21.38-.59.38h-.04Z" fill="url(#d)"/><path d="M30.67,16.47c-.09.33-.2,1.02.16,1.19.49.22,1.09.87,1.44,1.43,0,0,.12.1.31.1.08,0,.17-.02.27-.06.06-.03.13-.04.2-.04.32,0,.67.26.54.35-.16.11-.53.18-.76.2-.22.02-.2.29-.44.4-.25.11-.31.16-.31.16,0,0,0,0-.02,0-.02,0-.05.02,0,.16.07.2.17.26-.07.42-.04.03-.08.04-.11.04-.08,0-.12-.07-.13-.07-.01,0,0,.04,0,.18.02.4.09.36,0,.47-.09.11-.09.09-.31.33-.08.09-.12.1-.15.1,0,0-.02,0-.02,0-.03,0-.06.02-.16.28-.2.49-.09.36-.18.64-.09.29,0,.29-.18.29h-.38s-.27.02-.6.05c-.22.02-.4.11-.61.11-.1,0-.22-.02-.35-.09-.15-.07-.23-.09-.28-.09-.07,0-.09.03-.13.03-.02,0-.04,0-.07-.02-.09-.05-.1-.11-.12-.11-.02,0-.05.04-.14.16-.2.27,0,.27-.2.27-.16,0-.34.12-.56.12-.06,0-.13,0-.2-.03-.18-.06-.29-.12-.36-.12-.06,0-.09.03-.11.12-.04.2.02.07-.11.25-.13.18-.16-.04-.38.31-.22.36.13.47-.24.58l-.38.11s-.03,0-.08,0c-.1,0-.28-.03-.39-.23-.07-.12-.07-.14-.06-.14,0,0,0,0,0,0,0,0,0-.02-.1-.15-.2-.31-.24-.52-.22-.76.02-.25,0,.13.02-.47.02-.6,0-.38,0-.69v-.53c0-.29-.15-.31.02-.62.18-.31.31-.22.36-.58.04-.35-.05-.02.04-.35.09-.33.09-.18.13-.42.04-.25.13-.07.04-.25-.02-.04-.05-.1-.09-.16,1.63-1.24,3.47-2.22,5.47-2.86M43.31,20.26s.06.01.05.04c-.04.11-.04.45-.31.49-.27.05-.71.16-.93.16s-.25.11-.18.18c.07.07.27.07.38.07s.54.07.33.27c0,0-.04-.09-.12-.09-.05,0-.12.04-.21.16-.16.23-.07.35-.11.35-.01,0-.04-.01-.11-.04-.25-.11-.32-.31-.56-.4-.18-.06-.15-.12-.17-.12-.01,0-.03,0-.07.03-.16.07-.13,0-.33.27-.17.22-.15.32-.28.32-.03,0-.06,0-.1-.01-.25-.04-.54-.02-.49-.2.04-.18.13-.27.2-.36.07-.09.04-.11-.16-.11-.15,0-.27.11-.32.11-.02,0-.03-.02-.03-.06,0-.16-.33.02.07-.31.34-.28.31-.34.41-.34.02,0,.04,0,.07,0,.12.01.12.06.21.06.06,0,.15-.02.35-.08.49-.16.55-.18.55-.18,0,0,.09-.01.22-.01.1,0,.22,0,.36.04.08.02.15.02.23.02.22,0,.4-.06.55-.11.15-.05.4-.13.51-.13M22.78,21.54c-.05.75-.11,1.86-.11,2.08,0,.33.09.96.22,1.25.13.29.16.18.16.6s0,.87-.16.89c-.16.02-.31.02-.25.16.06.13.38.17.4.29.02.11.27.36.18.65-.08.26.04.47-.17.47-.02,0-.05,0-.07,0-.31-.04-.46-.15-.62-.42-.16-.26-.47-.18-.29-.49.18-.31.27-.51.27-.51,0,0,.29-.09.09-.29-.2-.2-.09-.07-.29-.22-.2-.16-.02.04-.29-.31-.27-.36-.49-.53-.49-.53,0,0-.11-.01-.2-.01s-.14.01-.04.06c.2.09.45.4.45.4,0,0-.15.02-.18.31-.02.29-.16.13,0,.45.16.31.25.4.25.4,0,0,.11.13.16.2.04.07.31.29.2.4-.07.07-.16.09-.26.09-.07,0-.14,0-.2-.02,0,0-.02,0-.03,0-.07,0-.1.04-.13.04s-.06-.03-.14-.17c-.16-.29.02-.2-.2-.38-.22-.18-.29-.25-.36-.25-.04,0-.11-.04-.17-.04-.05,0-.09.03-.09.13v.43s-.12.03-.25.03-.26-.03-.29-.17c-.03-.16-.1-.27-.15-.27-.04,0-.06.06-.05.21.02.36.04.27.02.47-.02.2.13.13-.02.2-.09.04-.11.09-.15.09-.03,0-.08-.03-.18-.13-.08-.08-.12-.12-.16-.15.82-2.19,2.05-4.19,3.6-5.89M50.12,21.97c2.74,3.19,4.39,7.33,4.39,11.87,0,.04,0,.07,0,.11-.04.12-.06.29-.13.51-.12.4-.61,1.41-.77,1.62-.16.21-.18.67-.3,1.19-.12.52-.55,1.31-.67,1.31s-.16-.16-.16-.37-.13-.3-.3-.62c-.16-.33-.12-.85-.12-.85.04-.12-.06-.37-.22-.37-.02,0-.04,0-.07.02-.02,0-.04.01-.06.01-.18,0-.4-.33-.52-.35-.04,0-.13-.01-.25-.01-.25,0-.62.02-.82.07-.3.08-.46.03-.64.16-.11.08-.21.13-.35.13-.09,0-.21-.02-.35-.07-.13-.04-.19-.06-.24-.06-.08,0-.09.06-.28.14-.07.03-.15.04-.22.04-.21,0-.42-.11-.66-.18-.31-.09-.5-.41-.62-.48,0,0-.02,0-.03,0-.1,0-.17.29-.15.51.01.24-.02.33.3.37.31.04.3.33.37.48.03.05.1.07.19.07.16,0,.37-.06.5-.1.21-.08.17-.42.28-.51.03-.03.06-.04.07-.04.05,0,.05.08.07.23.01.09.09.12.2.12.12,0,.26-.03.39-.03.01,0,.02,0,.04,0,.24.02-.09.71-.44.98-.36.27-.47.55-.47.55-.43.62-.88.61-1.01.67-.13.06-.05.21-.31.23-.27.03-.86.48-1.12.67-.24.19-.8.36-.92.36,0,0,0,0-.01,0-.09-.02-.13-.43-.15-.55-.01-.12-.14-.4-.17-.58-.03-.18.03-.43-.3-.49-.33-.06-.3-.17-.3-.17-.06-.43-.18-.7-.33-1.08-.13-.34-.31-.73-.59-.73-.03,0-.07,0-.11.02-.34.12.07.4.49,1.54.42,1.14.88,1.8,1.29,2.02.41.22-.59.27.12.39.05,0,.11.01.16.01.65,0,1.26-.63,1.62-.72.02,0,.03,0,.05,0,.32,0,.11,1.03-.63,1.89-.77.91-1.53,1.22-1.6,1.5-.08.28-.8.61-1.04.87-.24.27-.22.61-.05,1.42.18.81-.83.96-1.24,1.17-.42.21-.16.84-.21.97,0,.02-.03.03-.06.03-.09,0-.25-.06-.38-.06-.09,0-.17.03-.18.13-.05.29-.39.55-.61.72-.22.18-.1.25-.53.46-.43.21-1.43.37-1.87.4-.1,0-.19.01-.27.01-.26,0-.39-.05-.41-.25-.03-.25-.25-.37-.46-.52-.21-.15-.14-.64-.25-.88-.12-.24-.58-.71-.67-.98-.09-.27.34-.89.47-1.07.13-.18.01-.31-.05-.43-.06-.12.01-.3.01-.54s-.34-.62-.34-.62c-.27-.45-.52-.96-.4-1.13.12-.16.06-.34.01-.58-.04-.24-.32-.16-.59-.22-.27-.06-.59-.31-.8-.47-.05-.04-.12-.06-.19-.06-.23,0-.54.16-.62.25-.06.06-.2.1-.35.1s-.31-.04-.41-.13c-.09-.08-.2-.11-.33-.11-.15,0-.32.03-.54.05-.1,0-.18.01-.24.01-.21,0-.29-.05-.33-.21-.06-.21-.79-.98-1.19-1.43-.4-.44-.53-.6-.4-1.05.13-.45.24-.92.16-1.26-.08-.34-.12-.7.18-1.01s1.14-1.06,1.35-1.14c.21-.09.48-.77.64-.94.14-.14.45-.15.54-.15.02,0,.03,0,.03,0,.08-.08.26-.28.4-.28.02,0,.03,0,.05,0,.08.03.11.1.27.1.11,0,.29-.04.59-.15.4-.15,1.21-.19,1.93-.19.59,0,1.11.03,1.25.08.29.09-.09.45-.16.77-.08.32.34.38.6.38s.31.03.44.3c.14.27.71.34,1.03.4.02,0,.04,0,.06,0,.25,0,.21-.35.28-.48.05-.1.32-.25.5-.25.07,0,.12.02.15.07.1.19.04.04.52.31.48.27.93.19,1.41.27.13.02.24.03.33.03.24,0,.36-.06.48-.15.16-.12.34-.38.53-.56.2-.17.15-.56.21-.7.06-.13.1-.39.06-.46-.01-.02-.04-.04-.08-.04-.09,0-.22.05-.35.11-.1.05-.18.07-.27.07s-.18-.02-.3-.07c-.04-.02-.08-.02-.12-.02-.16,0-.26.14-.31.22-.02.03-.09.05-.18.05-.15,0-.37-.05-.55-.17-.28-.2-.24-.3-.3-.5-.06-.21-.06-.31-.07-.36,0-.02-.07-.03-.15-.03-.11,0-.25,0-.34,0-.15,0-.27.28-.33.34-.06.06.35.11.5.27.15.16-.19.13-.34.16-.15.03-.3.18-.52.18s-.13-.45-.13-.6-.16-.15-.24-.25c-.07-.1-.03-.18-.12-.48-.09-.3-1.01-.77-1.08-.86-.04-.05-.17-.07-.28-.07-.09,0-.17.01-.21.02-.09.03-.02.07.22.28.24.21.01.31.19.37.17.06.19.36.39.36,0,0,.02,0,.03,0,0,0,.02,0,.03,0,.21,0,.35.31.35.31,0,0-.09-.1-.15-.12,0,0,0,0,0,0-.05,0-.08.15-.08.15-.03.34-.47.58-.47.58,0,0-.18-.15-.08-.15s.24-.16.24-.3-1.38-1.19-1.5-1.26c-.07-.05-.28-.11-.46-.11-.12,0-.22.03-.25.11-.03.08-.08.12-.14.12-.07,0-.16-.05-.23-.14-.04-.04-.09-.06-.14-.06-.13,0-.28.09-.45.13-.24.06-.03.19-.07.34-.04.15-.54.16-.68.18-.15.01-.06.31-.12.46-.06.15-1.05.62-1.18.69-.01,0-.03.01-.04.01-.14,0-.36-.3-.33-.36.03-.08-.39-.02-.59-.11-.21-.09.04-.62.15-.77.1-.15-.11-.73-.16-.83-.05-.09.03-.35.24-.35.02,0,.04,0,.06,0,.22.05,1.25.23,1.64.23.05,0,.09,0,.11,0,.22-.06.21-.5.18-.71-.03-.21-.57-.33-.57-.33,0,0-.28-.15-.15-.25.13-.09.24-.06.38-.08.14-.01.24-.07.32-.15.08-.09.47-.05.55-.07.08-.02.17-.07.27-.17.08-.08.21-.21.28-.21.01,0,.02,0,.03.01.02.03.11.06.22.06.08,0,.18-.02.26-.06.18-.1.23-.41.36-.47.13-.06.58-.04.65-.15.08-.11.36-.13.33-.22-.03-.09-.31-.46-.07-.65.11-.08.2-.12.28-.12.09,0,.15.07.15.19,0,.21-.13.36-.06.52.08.16.2.21.38.21s1.21-.09,1.4-.17c.02,0,.04-.01.06-.01.17,0,.41.22.58.22.02,0,.04,0,.06-.01.18-.08.34-.22.41-.42.07-.2-.02-.46.27-.5.28-.04.59-.16.53-.31-.06-.15-.37-.2-.08-.32.28-.12,1.05-.1,1.18-.13.14-.03.37-.29.3-.4-.05-.08-.17-.12-.29-.12-.05,0-.11,0-.15.02-.14.05-.65.23-.94.23-.03,0-.05,0-.08,0-.26-.05-.36.06-.33-.27.03-.33,0-.5.32-.67.33-.17.42-.18.57-.39.15-.21.15-.35-.02-.49-.05-.04-.11-.06-.18-.06-.15,0-.31.08-.42.13-.16.06-1.36,1.18-1.4,1.39-.04.22.16.22.19.42.02.19-.07.46-.27.46s-.2.5-.38.63c-.12.08-.33.21-.53.21-.13,0-.25-.05-.35-.19-.25-.36-.18-.43-.4-.62-.14-.13-.18-.19-.25-.19-.04,0-.09.02-.16.05-.14.07-.43.21-.65.21-.12,0-.23-.04-.28-.16-.15-.34.12-.37.05-.6-.07-.23-.04-.57.4-.68.44-.1,1.28-.36,1.41-.57.13-.21.66-.84,1.63-1.33.78-.4,1.14-.69,1.73-.79.11-.02.2-.02.27-.02.31,0,.33.13.43.13,0,0,.01,0,.02,0,.09-.01.35-.04.61-.04.19,0,.38.02.48.06.25.11,1.59.17,1.74.25.15.08.7.27.69.38,0,.1-.13.36-.37.42-.15.03-.35.05-.52.05-.1,0-.18,0-.24-.02-.1-.02-.29-.07-.44-.07-.08,0-.14.01-.19.04-.13.1-.41.63.01.79.21.07.38.12.54.12.17,0,.33-.06.49-.2.31-.27.5-.49.7-.67.21-.18.54-.4.82-.47.28-.08.48-.09.76-.31.28-.22.5-.22.76-.52.27-.29.74-.42,1.02-.91.17-.3.4-.66.53-.99M47.61,33.71c.06,0,.13,0,.2-.02.58-.12.78-.58.48-.87-.31-.29.12-.19.04-.43-.08-.25-.02-.12-.39-.43-.37-.31-.52-.06-.37-.31.15-.25.33-.25.48-.31.14-.06.39-.04.49-.33.1-.29.08-.39.08-.39,0,0-.3-.31-.52-.31-.05,0-.1.02-.14.06-.21.23,0,.33-.31.41-.31.08-.19.02-.44.14-.25.12-.04.41-.33.44-.29.02-.62.15-.58.31.1.42.44.33.54.48.1.14.23.35.23.43s.45.35.19.46c-.27.11-.27.35-.27.35,0,0,.19.33.62.33M43.52,32.22s-.08-.05-.16-.18c-.19-.31-.23-.15-.58-.33-.1-.05-.15-.07-.19-.07-.09,0-.04.14-.25.26-.29.17-.02.1-.35.5-.33.39-.08.16-.1.37-.02.21.1.13.25.41.06.1.04.14.04.14,0,0,.05-.05.34-.07.52-.04.27-.23.43-.29.17-.06.19-.06.72-.14.13-.02.21-.03.25-.03.12,0-.08.09.11.2.09.06.12.07.13.07s.02-.01.08-.01c.04,0,.11,0,.22.03.07.01.12.02.17.02.26,0,.26-.18.43-.37.21-.23.12-.06.15-.19.02-.12-.06,0-.62-.31-.56-.31-.25-.19-.23-.27.02-.08.46-.23.41-.41-.02-.1-.12-.12-.22-.12-.09,0-.18.02-.21.02-.06,0-.06.04-.29.2-.23.16-.17.25-.33.42-.1.09-.14.18-.19.18M30.4,24.23c.06,0,.14.03.26.08.06.03.04.03.15.11.05.04.07.05.12.05.04,0,.11,0,.26,0,.03,0,.06,0,.1,0,.42.01.22-.03.8.16.57.19.18.44.18.44,0,0-.06.18-.19.27-.09.06-.23.14-.34.14-.05,0-.1-.02-.14-.06-.05-.05-.17-.07-.29-.07-.18,0-.38.04-.38.04,0,0-.14.06-.27.16-.03.02-.05.03-.07.03-.09,0-.13-.15-.04-.29.11-.17,0-.14.04-.28.03-.15-.09-.09-.25-.2-.16-.11-.16-.27-.09-.44.04-.09.08-.12.14-.12M34.17,27.53c.07,0,.28.02.31.14.03.12.14.1.31.23.17.14.18.23-.14.23s-.23.11-.26.23c-.03.13.06.04.25.22.2.19.18.19.19.31.01.13.11.13.18.36.03.11.04.12.06.12,0,0,.02,0,.03,0,.02,0,.06,0,.13.06.19.16.2.12.26.24.04.13-.02.16-.2.16s-.17.06-.22.16c-.05.1-.09.15-.3.19-.02,0-.05,0-.07,0-.15,0-.17-.12-.33-.17-.05-.02-.08-.02-.11-.02-.1,0-.16.07-.32.14-.2.11-.11.11-.27.11-.16,0-.35-.23-.2-.23,0,0,0,0,.01,0,0,0,.01,0,.02,0,.16,0,.22-.09.3-.11.09-.02.17-.09.27-.12.1-.04-.14-.11-.18-.19-.05-.09-.04-.12.06-.28.05-.07.09-.09.12-.09.03,0,.06,0,.1,0,.02,0,.04,0,.07,0,.15-.04.12-.01.16-.13.04-.12-.08-.25-.08-.25,0,0-.18-.19-.28-.32-.11-.13-.15-.26-.19-.43-.05-.17,0-.23.02-.4.02-.17.14-.18.31-.18M33.58,28.51s0,.05.03.11c0,0-.04.2-.09.34-.05.15-.2.54-.35.58-.1.03-.19.08-.29.08-.05,0-.09-.01-.13-.04-.12-.1-.3-.11-.24-.31.06-.2.19-.32.31-.43.1-.09.14-.27.29-.27.02,0,.04,0,.07.01.1.03.16.04.2.04.04,0,.07-.02.14-.06.04-.03.06-.04.07-.04M18.74,34.34c.16,0,.42.13.42.13,0,0,.06.36.24.62.18.27.38.4.58.62.03.04.06.05.07.05.05,0,.06-.09.11-.09.05,0,.13.08.31.4.45.78.16.42.33.85.18.42.16.45.69.96.54.51.83,1,1,1.56.18.56.47.51.91,1.02.45.51.49.47.85.87.36.4.69.58.78.8.09.22.4.27.18.6-.22.33-.29.04-.49.49-.2.44,0,.22-.2.67-.2.44-.2.53-.4.56-.2.02-.02,0-.49.02-.47.02-.67.16-.67.16,0,0-.06.34-.24.34,0,0-.02,0-.03,0-.17-.04-.31-.14-.4-.14-.02,0-.03,0-.04,0-.09.04-.15.09-.15.09,0,0-.1.1-.21.14-2.1-2.68-3.46-5.96-3.78-9.54.09.06.18.12.25.12.05,0,.08-.03.09-.11.02-.31-.03-.6.07-.82.09-.22.04-.33.2-.36,0,0,.02,0,.03,0M53.55,37.55s.04,0,.08.02c.12.05.07.31-.01.46-.08.14-.07.38-.18.38-.01,0-.03,0-.05-.01-.17-.07-.23-.15-.23-.15,0,0,.06-.33.06-.37s.05-.3.19-.31c.09,0,.11-.02.14-.02M45.41,45.26s.04.03.05.13c.04.23.14.05,0,.38-.14.33-.26.63-.29.67-.02.03-.17.68-.27.79-.11.11-.07.17-.3.21-.18.04-.34.25-.5.25-.04,0-.08-.01-.12-.04-.2-.15-.3-.11-.32-.3-.03-.19-.18-.2.17-.38.35-.18.48.02.33-.24-.14-.26-.13-.37-.13-.37,0,0,.11-.14.24-.14.03,0,.05,0,.08.02.06.03.1.05.13.05.07,0,.06-.1.19-.22.18-.15.27-.13.37-.34.1-.22.08-.37.21-.4.08-.01.12-.07.15-.07M32.08,14.96l-1.72.55c-2.08.67-4.02,1.68-5.77,3.01l-.66.51.02-.26-1.91,2.09c-1.66,1.82-2.94,3.91-3.8,6.21l-.22.59.44.45.08.08.09.09c.13.13.42.42.88.42.31,0,.53-.13.63-.21.18-.09.33-.21.42-.36.02,0,.04,0,.06-.01.2.2.45.3.73.3h.23l.04-.02s.06,0,.09,0c.03,0,.06,0,.1,0,.27.27.61.43,1.03.49.07.01.14.02.21.02.41,0,1.11-.25,1.14-1.18,0-.02,0-.02,0-.02,0,0,0,0,0,0,.17-.6-.1-1.08-.21-1.27,0-.01,0-.02-.01-.03.08-.32.08-.67.08-.94,0-.39-.02-.61-.2-.93-.01-.02-.03-.05-.05-.09-.06-.13-.13-.58-.13-.83.02.36.14.7.38,1.08l.03.05c.03.07.06.13.09.18.26.47.73.75,1.27.75.13,0,.23-.02.28-.03h.04s.04-.02.04-.02l.38-.11c.53-.15.85-.52.89-1,.03-.02.05-.04.08-.07.05,0,.09,0,.14,0,.28,0,.51-.07.64-.12h.02c.28-.02.48-.11.63-.24.2.07.38.1.57.1.04,0,.07,0,.1,0-.11.43-.02.84.24,1.16-.01.21.03.43.13.63.19.36.56.58.96.58.23,0,.44-.07.64-.2.15.07.33.11.51.11.38,0,.69-.17.89-.3.22-.15.37-.34.46-.51.2-.23.35-.54.3-.93-.03-.29-.21-.8-.98-1.06l-.19-.06c-.2-.07-.33-.11-.47-.13.06-.12.1-.25.12-.37,0-.01,0-.03.01-.06.05-.18.07-.3.08-.39,0-.02.02-.05.03-.09.06-.05.12-.11.18-.17.09-.1.14-.15.17-.18.06-.06.1-.1.17-.19.18-.23.25-.44.27-.62.19-.19.31-.42.34-.67.06-.05.12-.11.16-.16.31-.06.64-.16.88-.33.38-.27.54-.75.4-1.19-.2-.63-.93-.97-1.51-.97-.08,0-.16,0-.24.02-.33-.42-.76-.87-1.22-1.17,0-.06.02-.14.05-.23l.44-1.75h0ZM23.84,20.6l.09-1.49.3.52c-.03.07-.05.15-.08.26-.03.13-.05.25-.06.36-.07.08-.16.19-.24.34,0,0,0,0,0,.01h0ZM43.31,19.26h0c-.24,0-.5.08-.8.18-.11.04-.21.07-.26.07-.2-.04-.39-.06-.58-.06-.23,0-.39.03-.39.03h-.07s-.09.04-.09.04c0,0-.1.03-.54.17,0,0,0,0,0,0-.04,0-.09-.02-.15-.02-.08,0-.14-.01-.18-.01-.48,0-.75.28-.85.39-.04.04-.09.09-.2.18-.2.17-.68.57-.53,1.2.02.1.1.34.32.54.04.06.09.11.15.16.03.09.08.18.13.26.3.44.77.49,1.02.52.04,0,.07,0,.11.01.11.02.2.03.27.03.23,0,.52-.06.78-.31.07.04.14.09.23.12.12.05.28.13.51.13l.02.05c-.12,0-.25.01-.4.04-.6.1-1.01.33-1.49.59-.16.09-.33.19-.54.29-.93.48-1.59,1.09-1.91,1.53-.17.08-.54.2-.9.29-.56.14-.85.46-1,.71-.16.27-.22.59-.19.91-.02.05-.04.11-.05.18-.07-.12-.17-.24-.32-.35-.06-.05-.13-.1-.18-.13-.23-.29-.62-.46-1.07-.46-1.11,0-1.28.88-1.31,1.05h0c-.31.07-.57.26-.77.57-.17.16-.42.42-.54.85-.06.22-.19.96.63,1.4,0,0,0,0,0,0,.1.07.21.13.33.17,0,.02.02.04.03.06.04.08.1.15.17.23-.08-.01-.15-.02-.22-.02-.44,0-.85.23-1.07.63-.22.38-.24.82-.05,1.18.01.03.03.08.05.13-.14.3-.3.76-.17,1.2.03.1.07.19.12.28-.15.16-.26.35-.38.57-.04.07-.09.17-.13.24-.57.36-1.46,1.25-1.47,1.26-.69.73-.5,1.59-.43,1.91,0,0,.03.19-.14.76-.3.99.19,1.53.61,2.01l.23.25c.21.24.64.71.78.9.11.3.43.81,1.26.81.09,0,.19,0,.32-.01.1,0,.2-.02.29-.03.02,0,.04,0,.06,0,.25.15.55.22.86.22.21,0,.57-.04.88-.25.2.14.4.26.62.34,0,.49.27,1.02.58,1.54l.05.08.06.07s.05.06.08.1c-.02.14-.04.34,0,.57-.54.85-.49,1.34-.38,1.64.1.31.32.6.54.87.06.07.11.14.15.2,0,.03,0,.06,0,.08.04.3.1.85.58,1.19l.1.07s0,0,.01,0c.11.35.44.88,1.35.88.1,0,.21,0,.33-.01.44-.03,1.62-.2,2.24-.5.41-.2.6-.39.76-.61.18-.14.4-.32.59-.56.43-.03.79-.3.93-.7.04-.11.06-.22.06-.33.16.39.48.55.6.61.24.17.49.26.75.26.4,0,.68-.19.83-.3.3-.08.53-.24.71-.49.22-.24.32-.56.45-1.03v-.05c.05-.07.09-.17.15-.32l.14-.34c.09-.21.27-.64.04-1.09-.21-.79-.92-.82-1.01-.82-.22,0-.39.07-.49.13-.35.12-.6.39-.74.81-.01,0-.03.02-.04.03-.03-.18-.05-.29-.06-.36.06-.04.13-.09.19-.12.34-.23.72-.48.91-.88.05-.04.12-.09.19-.15.32-.24.8-.61,1.28-1.18.61-.71,1.12-1.76.99-2.55,0,0,.01-.01.02-.02.33-.11.83-.35,1.26-.98l.09-.13v-.05s.07-.07.16-.14c.34-.25.85-.89.92-1.54.09-.01.18-.03.29-.06.05-.01.25-.03.45-.04.07.06.15.12.24.18.02.26.08.56.21.82.08.15.14.26.2.35.07.82.63,1.2,1.16,1.2.2,0,.38-.06.54-.16h.25c.2.01.87-.06,1.09-.95,0,0,0-.01,0-.01,0,0,0,0,0,0,.11-.23.27-.7.09-1.17-.05-.14-.13-.26-.23-.36.02-.11.04-.23.06-.3.28-.4.75-1.42.89-1.87.05-.15.08-.29.1-.4,0-.04.02-.08.03-.11l.04-.14v-.26c0-4.59-1.64-9.03-4.63-12.52l-1.1-1.28-.6,1.58c-.06.17-.19.38-.31.59-.05.09-.11.18-.15.27-.05.09-.14.15-.32.27-.17.11-.38.25-.56.46-.03.04-.04.04-.16.1-.12.06-.29.15-.48.3-.05.04-.06.04-.21.08-.07.02-.14.03-.21.06-.03,0-.07.02-.1.03-.18-.12-.38-.2-.54-.27-.05-.02-.1-.04-.13-.06-.23-.13-.49-.15-1.13-.22-.23-.02-.59-.06-.73-.09-.22-.09-.48-.13-.83-.13-.16,0-.32,0-.46.02-.08-.03-.17-.06-.28-.08l.79-.79c.16-.16.27-.36.32-.56.26-.16.52-.45.64-.99l.17-.44-.3-.46c-.2-.29-.51-.45-.88-.45h0ZM35.78,28.54c.03-.05.05-.1.06-.14,0-.01,0-.02.01-.04.06.12.13.23.22.32-.02,0-.04.02-.06.03-.02,0-.04.02-.07.03,0,0-.01,0-.02-.01-.02-.01-.04-.03-.07-.05,0,0-.02-.02-.03-.02-.01-.02-.02-.04-.04-.06,0-.02,0-.04-.01-.06h0ZM18.74,33.34h-.16c-.25.05-.65.18-.88.63l-.79-.58.19,2.2c.33,3.67,1.71,7.15,3.99,10.07l.45.58.69-.26c.05-.02.11-.04.15-.07.02,0,.05.01.07.02l.11.03h.15c.38,0,.72-.18.95-.49,0,0,0,0,0,0,.21,0,.27-.01.3-.01.01,0,.03,0,.04,0,.04,0,.08,0,.22-.02.74-.08.98-.63,1.12-.96l.08-.18c.1-.23.16-.4.18-.57.14-.09.29-.23.43-.44.18-.27.51-.96-.14-1.65-.15-.28-.36-.47-.55-.64-.11-.1-.23-.2-.35-.33-.19-.22-.31-.33-.43-.44-.11-.1-.2-.19-.41-.42-.24-.27-.45-.44-.59-.55-.04-.03-.08-.06-.11-.09,0,0,0,0,0,0,0,0,0-.02,0-.03-.24-.75-.64-1.37-1.26-1.97q-.33-.32-.41-.52l-.04-.09c-.02-.29-.15-.54-.4-.97-.17-.3-.45-.78-.97-.88-.06-.06-.1-.1-.14-.16-.03-.05-.07-.17-.09-.25l-.09-.47-.42-.23c-.18-.09-.53-.25-.88-.25h0Z" fill="#6d6d6d"/><g isolation="isolate"><path d="M48.82,33.49c-.09,0-.17-.02-.25-.07l-6.94-4.07c-.12-.07-.21-.19-.24-.33-.03-.14,0-.28.09-.4l5.53-7.42c.1-.13.25-.2.4-.2.09,0,.18.02.26.08l6.37,3.97c.11.07.2.19.22.32.03.13,0,.27-.07.38l-4.96,7.52c-.1.15-.25.22-.42.22Z" fill="url(#e)"/><path d="M47.41,21.5l6.37,3.97-4.96,7.52-6.94-4.07,5.53-7.42M47.41,20.5c-.31,0-.61.14-.8.4l-5.53,7.42c-.17.23-.23.52-.18.8.06.28.23.52.47.66l6.94,4.07c.16.09.33.14.5.14.33,0,.64-.16.84-.45l4.96-7.52c.15-.23.2-.5.14-.76-.06-.26-.22-.49-.45-.64l-6.37-3.97c-.16-.1-.35-.15-.53-.15h0Z" fill="#00415f"/><path d="M43.47,35.46c-.1,0-.19-.03-.28-.08l-6.26-4.17c-.12-.08-.19-.2-.22-.34-.02-.14.01-.28.1-.39l4.87-6.26c.1-.13.25-.19.39-.19.09,0,.19.03.27.08l6.8,4.37c.12.08.21.21.22.35.02.14-.02.29-.12.4l-5.41,6.07c-.1.11-.23.17-.37.17Z" fill="url(#f)"/><path d="M42.08,24.53l6.8,4.37-5.41,6.07-6.26-4.17,4.87-6.26M42.08,23.53c-.3,0-.59.13-.79.39l-4.87,6.26c-.17.22-.24.5-.2.77.04.27.2.52.43.67l6.26,4.17c.17.11.36.17.55.17.28,0,.55-.11.75-.33l5.41-6.07c.19-.22.28-.51.24-.8-.04-.29-.2-.55-.45-.71l-6.8-4.37c-.17-.11-.35-.16-.54-.16h0Z" fill="#00415f"/><path d="M44.17,41.72c-.09,0-.18-.02-.26-.07l-6.96-4.17c-.15-.09-.24-.25-.24-.43v-6.26c0-.18.1-.35.25-.44.08-.04.16-.06.25-.06s.18.02.26.07l6.96,4.17c.15.09.24.25.24.43v6.26c0,.18-.1.35-.25.44-.08.04-.16.06-.25.06Z" fill="url(#g)"/><path d="M37.21,30.79l6.96,4.17v6.26l-6.96-4.17v-6.26M37.21,29.79c-.17,0-.34.04-.49.13-.31.18-.51.51-.51.87v6.26c0,.35.18.68.49.86l6.96,4.17c.16.09.34.14.51.14s.34-.04.49-.13c.31-.18.51-.51.51-.87v-6.26c0-.35-.18-.68-.49-.86l-6.96-4.17c-.16-.09-.34-.14-.51-.14h0Z" fill="#00415f"/><path d="M44.17,41.72c-.09,0-.18-.03-.26-.07-.15-.09-.24-.25-.24-.43v-6.26c0-.11.04-.22.11-.31l4.87-6.26c.1-.12.24-.19.39-.19.05,0,.11,0,.16.03.2.07.34.26.34.47v2.64l4.27-5.87c.1-.13.25-.21.4-.21.05,0,.1,0,.15.02.21.07.35.26.35.48v10.43c0,.19-.11.36-.28.45l-10.04,5.03c-.07.04-.15.05-.22.05Z" fill="url(#h)"/><path d="M54.21,25.76v10.43l-10.04,5.03v-6.26l4.87-6.26v4.17l5.17-7.12M54.21,24.76c-.31,0-.62.15-.81.41l-3.36,4.63v-1.1c0-.43-.27-.81-.68-.95-.11-.04-.22-.05-.32-.05-.3,0-.6.14-.79.39l-4.87,6.26c-.14.18-.21.39-.21.61v6.26c0,.35.18.67.47.85.16.1.34.15.53.15.15,0,.31-.04.45-.11l10.04-5.03c.34-.17.55-.52.55-.89v-10.43c0-.43-.28-.82-.69-.95-.1-.03-.21-.05-.31-.05h0Z" fill="#00415f"/></g><g isolation="isolate"><path d="M21.11,23.77c-.09,0-.17-.02-.25-.07l-6.94-4.07c-.12-.07-.21-.19-.24-.33-.03-.14,0-.28.09-.4l5.53-7.42c.1-.13.25-.2.4-.2.09,0,.18.02.26.08l6.37,3.97c.11.07.2.19.22.32.03.13,0,.27-.07.38l-4.96,7.52c-.1.15-.25.22-.42.22Z" fill="url(#i)"/><path d="M19.7,11.78l6.37,3.97-4.96,7.52-6.94-4.07,5.53-7.42M19.7,10.78c-.31,0-.61.14-.8.4l-5.53,7.42c-.17.23-.23.52-.18.8.06.28.23.52.47.66l6.94,4.07c.16.09.33.14.5.14.33,0,.64-.16.84-.45l4.96-7.52c.15-.23.2-.5.14-.76-.06-.26-.22-.49-.45-.64l-6.37-3.97c-.16-.1-.35-.15-.53-.15h0Z" fill="#00415f"/><path d="M15.76,25.74c-.1,0-.19-.03-.28-.08l-6.26-4.17c-.12-.08-.19-.2-.22-.34-.02-.14.01-.28.1-.39l4.87-6.26c.1-.13.25-.19.39-.19.09,0,.19.03.27.08l6.8,4.37c.12.08.21.21.22.35.02.14-.02.29-.12.4l-5.41,6.07c-.1.11-.23.17-.37.17Z" fill="url(#j)"/><path d="M14.37,14.8l6.8,4.37-5.41,6.07-6.26-4.17,4.87-6.26M14.37,13.8c-.3,0-.59.13-.79.39l-4.87,6.26c-.17.22-.24.5-.2.77.04.27.2.52.43.67l6.26,4.17c.17.11.36.17.55.17.28,0,.55-.11.75-.33l5.41-6.07c.19-.22.28-.51.24-.8-.04-.29-.2-.55-.45-.71l-6.8-4.37c-.17-.11-.35-.16-.54-.16h0Z" fill="#00415f"/><path d="M16.46,32c-.09,0-.18-.02-.26-.07l-6.96-4.17c-.15-.09-.24-.25-.24-.43v-6.26c0-.18.1-.35.25-.44.08-.04.16-.06.25-.06s.18.02.26.07l6.96,4.17c.15.09.24.25.24.43v6.26c0,.18-.1.35-.25.44-.08.04-.16.06-.25.06Z" fill="url(#k)"/><path d="M9.5,21.07l6.96,4.17v6.26l-6.96-4.17v-6.26M9.5,20.07c-.17,0-.34.04-.49.13-.31.18-.51.51-.51.87v6.26c0,.35.18.68.49.86l6.96,4.17c.16.09.34.14.51.14s.34-.04.49-.13c.31-.18.51-.51.51-.87v-6.26c0-.35-.18-.68-.49-.86l-6.96-4.17c-.16-.09-.34-.14-.51-.14h0Z" fill="#00415f"/><path d="M16.46,32c-.09,0-.18-.03-.26-.07-.15-.09-.24-.25-.24-.43v-6.26c0-.11.04-.22.11-.31l4.87-6.26c.1-.12.24-.19.39-.19.05,0,.11,0,.16.03.2.07.34.26.34.47v2.64l4.27-5.87c.1-.13.25-.21.4-.21.05,0,.1,0,.15.02.21.07.35.26.35.48v10.43c0,.19-.11.36-.28.45l-10.04,5.03c-.07.04-.15.05-.22.05Z" fill="url(#l)"/><path d="M26.5,16.03v10.43l-10.04,5.03v-6.26l4.87-6.26v4.17l5.17-7.12M26.5,15.03c-.31,0-.62.15-.81.41l-3.36,4.63v-1.1c0-.43-.27-.81-.68-.95-.11-.04-.22-.05-.32-.05-.3,0-.6.14-.79.39l-4.87,6.26c-.14.18-.21.39-.21.61v6.26c0,.35.18.67.47.85.16.1.34.15.53.15.15,0,.31-.04.45-.11l10.04-5.03c.34-.17.55-.52.55-.89v-10.43c0-.43-.28-.82-.69-.95-.1-.03-.21-.05-.31-.05h0Z" fill="#00415f"/></g><path d="M36.27,31.91s-3.32-14.21-16.77-6.41" fill="none" stroke="#00415f" stroke-miterlimit="10" stroke-width="2"/></g></g><g id="m"><g id="n"><g id="o"><rect x="16.77" y="30.53" width="37.47" height="23.7" fill="#f1f0f0"/><path d="M54.24,30.53v23.7H16.77v-23.7h37.47M16.77,29.77c-.38-.04-.72.22-.76.6,0,.05,0,.11,0,.16v23.7c.04.42.38.75.81.76h37.47c.4-.02.72-.36.72-.76v-23.7c0-.42-.34-.76-.76-.76H16.77Z" fill="#323232"/></g><path id="p" d="M30.53,52.71v-16.82h-.76v2.29h-1.53v-2.29h-.76v2.29h-1.53v-2.29h-.76v2.29h-1.53v-2.29h-.76v2.29h-1.53v-2.29h-.76v2.29h-1.53v-2.29h-.76v16.82h12.23ZM28.24,40.47v-1.53h1.53v1.53h-1.53ZM28.24,41.24h1.53v1.53h-1.53v-1.53ZM28.24,45.06v-1.53h1.53v1.53h-1.53ZM28.24,45.82h1.53v1.53h-1.53v-1.53ZM28.24,49.65v-1.53h1.53v1.53h-1.53ZM25.94,38.94h1.53v1.53h-1.53v-1.53ZM25.94,41.24h1.53v1.53h-1.53v-1.53ZM25.94,43.53h1.53v1.53h-1.53v-1.53ZM25.94,45.82h1.53v1.53h-1.53v-1.53ZM25.94,48.12h1.53v1.53h-1.53v-1.53ZM23.65,40.47v-1.53h1.53v1.53h-1.53ZM23.65,41.24h1.53v1.53h-1.53v-1.53ZM23.65,45.06v-1.53h1.53v1.53h-1.53ZM23.65,45.82h1.53v1.53h-1.53v-1.53ZM23.65,49.65v-1.53h1.53v1.53h-1.53ZM21.36,40.47v-1.53h1.53v1.53h-1.53ZM21.36,41.24h1.53v1.53h-1.53v-1.53ZM21.36,45.06v-1.53h1.53v1.53h-1.53ZM21.36,45.82h1.53v1.53h-1.53v-1.53ZM21.36,49.65v-1.53h1.53v1.53h-1.53ZM19.06,40.47v-1.53h1.53v1.53h-1.53ZM19.06,41.24h1.53v1.53h-1.53v-1.53ZM19.06,45.06v-1.53h1.53v1.53h-1.53ZM19.06,45.82h1.53v1.53h-1.53v-1.53ZM19.06,49.65v-1.53h1.53v1.53h-1.53ZM19.06,51.94v-1.53h1.53v1.53h-1.53ZM21.36,51.94v-1.53h1.53v1.53h-1.53ZM23.65,51.94v-1.53h1.53v1.53h-1.53ZM25.94,51.94v-1.53h1.53v1.53h-1.53ZM28.24,51.94v-1.53h1.53v1.53h-1.53Z" fill="#e1e1e1"/><path d="M44.3,51.94h-25.23v-15.29h25.23v15.29ZM45.06,35.88h-26.76v16.82h26.76v-16.82Z" fill="#e1e1e1"/><path id="q" d="M55,30.53c0-.42-.34-.76-.76-.76H16.77c-.42,0-.76.34-.76.76v3.82h39v-3.82ZM54.24,33.59H16.77v-3.06h37.47v3.06Z" fill="#053755"/><rect x="16.77" y="30.52" width="37.46" height="3.07" fill="url(#r)"/></g><g id="s"><path d="M52.71,48.12v4.59l-3.82-2.29,3.82-2.29ZM46.59,45.06l3.82,2.29v-4.59l-3.82,2.29ZM48.88,38.94l3.82,2.29v-4.59l-3.82,2.29Z" fill="#2d6d8b"/></g><g id="t"><path d="M52.71,48.12v4.59l-3.82-2.29,3.82-2.29ZM46.59,45.06l3.82,2.29v-4.59l-3.82,2.29ZM48.88,38.94l3.82,2.29v-4.59l-3.82,2.29Z" fill="#2d6d8b"/></g><path d="M30.53,51.94h-.76v-5.35h.76v5.35ZM37.41,51.18h-.76v.76h.76v-.76ZM45.06,50.41h-.76v1.53h.76v-1.53ZM30.53,41.24h-.76v-4.59h.76v4.59ZM37.41,36.65h-.76v10.7h.76v-10.7ZM45.06,36.65h-.76v13.76h.76v-13.76Z" fill="#797979"/><g id="u"><g clip-path="url(#v)"><path d="M44.3,49.65h-16.82v-2.29h16.82v2.29ZM26.71,47.35h-5.35v2.29h5.35v-2.29ZM44.3,45.06h-6.12v-2.29h6.12v2.29ZM37.41,42.77h-11.47v2.29h11.47v-2.29ZM25.18,42.77h-3.82v2.29h3.82v-2.29ZM29.77,40.47h-8.41v-2.29h8.41v2.29ZM44.3,38.18h-13v2.29h13v-2.29Z" fill="#003755"/></g></g></g></svg>