<?xml version="1.0" encoding="UTF-8"?><svg id="b" xmlns="http://www.w3.org/2000/svg" xmlns:xlink="http://www.w3.org/1999/xlink" viewBox="0 0 64 64"><defs><linearGradient id="d" x1="-8829.58" y1="9228.55" x2="-8790.82" y2="9161.44" gradientTransform="translate(-4551.37 -4376.37) rotate(-90) scale(.5)" gradientUnits="userSpaceOnUse"><stop offset="0" stop-color="#fff"/><stop offset="1" stop-color="#f0f0f0"/></linearGradient><clipPath id="f"><rect x="33" y="18" width="7" height="5" fill="none"/></clipPath><linearGradient id="h" x1="-9156.58" y1="7599.88" x2="-9179.48" y2="7639.54" gradientTransform="translate(-4538.87 3821.87) rotate(-180) scale(.5)" gradientUnits="userSpaceOnUse"><stop offset="0" stop-color="#386e8c"/><stop offset="1" stop-color="#8dd7f4"/></linearGradient><linearGradient id="j" x1="31" y1="6.5" x2="35" y2="6.5" gradientTransform="translate(0 18) scale(1 -1)" gradientUnits="userSpaceOnUse"><stop offset="0" stop-color="#464646"/><stop offset="1" stop-color="#141414"/></linearGradient><linearGradient id="l" x1="32.1" y1="8.06" x2="33.89" y2="4.95" gradientTransform="translate(0 18) scale(1 -1)" gradientUnits="userSpaceOnUse"><stop offset="0" stop-color="#f5f5f5"/><stop offset="1" stop-color="#bebebe"/></linearGradient><linearGradient id="n" x1="39.1" x2="40.89" xlink:href="#l"/><linearGradient id="p" x1="46.1" y1="8.06" x2="47.89" y2="4.95" xlink:href="#l"/><linearGradient id="r" x1="53.1" y1="8.06" x2="54.89" y2="4.95" xlink:href="#l"/><linearGradient id="s" x1="32.03" y1="-8.41" x2="44.08" y2="-29.28" gradientTransform="translate(0 18) scale(1 -1)" gradientUnits="userSpaceOnUse"><stop offset="0" stop-color="#f5f6f6"/><stop offset="1" stop-color="#bfbebe"/></linearGradient><linearGradient id="t" x1="37.15" y1="-5.37" x2="42.14" y2="-14.01" gradientTransform="translate(0 18) scale(1 -1)" gradientUnits="userSpaceOnUse"><stop offset="0" stop-color="#8dd7f4"/><stop offset="1" stop-color="#386e8c"/></linearGradient><linearGradient id="u" x1="34.62" y1="6.86" x2="42.62" y2="-7" xlink:href="#s"/><linearGradient id="v" x1="34.75" y1="7.89" x2="41.15" y2="-3.19" xlink:href="#s"/><linearGradient id="w" x1="37.09" y1="9.23" x2="40.12" y2="3.98" gradientTransform="translate(0 18) scale(1 -1)" gradientUnits="userSpaceOnUse"><stop offset="0" stop-color="#fff"/><stop offset="1" stop-color="#d4d5d3"/></linearGradient><linearGradient id="x" x1="36.04" y1="4.87" x2="41.19" y2="-4.04" xlink:href="#w"/><linearGradient id="y" x1="12.53" y1="-14.61" x2="26.18" y2="-38.25" xlink:href="#s"/><linearGradient id="z" x1="15.23" y1="-13.26" x2="25.65" y2="-31.3" xlink:href="#t"/><linearGradient id="aa" x1="15.13" y1="3.07" x2="24.52" y2="-13.2" xlink:href="#s"/></defs><g id="c"><rect x="29" y="14" width="30" height="27" rx="1" ry="1" fill="url(#d)"/><path d="M58,14v26h-28V14h28ZM59,14c0-.55-.45-1-1-1h-28c-.55,0-1,.45-1,1v26c0,.55.45,1,1,1h28c.55,0,1-.45,1-1V14Z" fill="#323232"/><path d="M42,19v19h-1v-19h1ZM36,19v19h1v-19h-1ZM52,19v19h-1v-19h1ZM46,19v19h1v-19h-1Z" fill="#fff" isolation="isolate" opacity=".5"/><path d="M32,33h24v1h-24v-1ZM32,23h24v1h-24v-1ZM32,29h24v-1h-24v1Z" fill="#fff" isolation="isolate" opacity=".5"/><path d="M47,38v-3h3v3h-3ZM42,38v-3h3v3h-3ZM37,38v-3h3v3h-3ZM32,38v-3h3v3h-3ZM52,33v-3h3v3h-3ZM47,33v-3h3v3h-3ZM42,33v-3h3v3h-3ZM37,33v-3h3v3h-3ZM32,33v-3h3v3h-3ZM52,28v-3h3v3h-3ZM47,28v-3h3v3h-3ZM42,28v-3h3v3h-3ZM37,28v-3h3v3h-3ZM32,28v-3h3v3h-3ZM52,23v-3h3v3h-3ZM47,23v-3h3v3h-3ZM42,23v-3h3v3h-3Z" fill="#5a9ab8"/><path d="M55,20v2h-2v-2h2M50,20v2h-2v-2h2M45,20v2h-2v-2h2M55,25v2h-2v-2h2M50,25v2h-2v-2h2M45,25v2h-2v-2h2M40,25v2h-2v-2h2M35,25v2h-2v-2h2M55,30v2h-2v-2h2M50,30v2h-2v-2h2M45,30v2h-2v-2h2M40,30v2h-2v-2h2M35,30v2h-2v-2h2M50,35v2h-2v-2h2M45,35v2h-2v-2h2M40,35v2h-2v-2h2M35,35v2h-2v-2h2M56,19h-4v4h4v-4ZM51,19h-4v4h4v-4ZM46,19h-4v4h4v-4ZM56,24h-4v4h4v-4ZM51,24h-4v4h4v-4ZM46,24h-4v4h4v-4ZM41,24h-4v4h4v-4ZM36,24h-4v4h4v-4ZM56,29h-4v4h4v-4ZM51,29h-4v4h4v-4ZM46,29h-4v4h4v-4ZM41,29h-4v4h4v-4ZM36,29h-4v4h4v-4ZM51,34h-4v4h4v-4ZM46,34h-4v4h4v-4ZM41,34h-4v4h4v-4ZM36,34h-4v4h4v-4Z" fill="#5a9ab8"/><g id="e"><g clip-path="url(#f)"><path d="M42,19v19h-1v-19h1ZM36,19v19h1v-19h-1ZM52,19v19h-1v-19h1ZM46,19v19h1v-19h-1Z" fill="#797979" isolation="isolate" opacity=".5"/><path d="M32,33h24v1h-24v-1ZM32,23h24v1h-24v-1ZM32,29h24v-1h-24v1Z" fill="#797979" isolation="isolate" opacity=".5"/></g></g><g id="g"><rect x="30" y="12" width="28" height="4" fill="url(#h)"/><path d="M30,12h28v4h-28v-4ZM59,12c0-.55-.45-1-1-1h-28c-.55,0-1,.45-1,1v5h30v-5Z" fill="#053755"/></g><g id="i"><path id="k" d="M35,10c0-.55-.45-1-1-1h-2c-.55,0-1,.45-1,1v3c.05.53.47.95,1,1h2c.55,0,1-.45,1-1v-3ZM34,13h-2v-3h2v3Z" fill="url(#j)"/><rect x="32" y="10" width="1.99" height="3" fill="url(#l)"/><path id="m" d="M42,10c0-.55-.45-1-1-1h-2c-.55,0-1,.45-1,1v3c.05.53.47.95,1,1h2c.55,0,1-.45,1-1v-3ZM41,13h-2v-3h2v3Z" fill="url(#j)"/><rect x="39" y="10" width="1.99" height="3" fill="url(#n)"/><path id="o" d="M49,10c0-.55-.45-1-1-1h-2c-.55,0-1,.45-1,1v3c.05.53.47.95,1,1h2c.55,0,1-.45,1-1v-3ZM48,13h-2v-3h2v3Z" fill="url(#j)"/><rect x="46" y="10" width="1.99" height="3" fill="url(#p)"/><path id="q" d="M56,10c0-.55-.45-1-1-1h-2c-.55,0-1,.45-1,1v3c.05.53.47.95,1,1h2c.55,0,1-.45,1-1v-3ZM55,13h-2v-3h2v3Z" fill="url(#j)"/><rect x="53" y="10" width="1.99" height="3" fill="url(#r)"/></g></g><path d="M38.48,45.98c-9.75,0-9.86-1.46-9.86-1.52v-10.91c0-3.3,1.83-6.34,4.79-7.93,1.35-.73,2.89-1.12,4.45-1.12h1.54c1.49,0,2.97.36,4.28,1.03,3.06,1.57,4.95,4.64,4.95,8.02v10.91c-.01.53-2.13,1.52-10.15,1.52Z" fill="url(#s)"/><path d="M39.39,25c1.41,0,2.81.34,4.05.97,2.89,1.48,4.68,4.39,4.68,7.58v10.8c-.26.21-1.81,1.13-9.64,1.13s-9.13-.91-9.36-1.11v-10.82c0-3.12,1.73-5.99,4.52-7.49,1.28-.69,2.74-1.06,4.21-1.06h1.54M39.39,24h-1.54c-1.7,0-3.29.43-4.68,1.18-3.01,1.62-5.05,4.76-5.05,8.37v10.91c0,1.51,4.57,2.02,10.36,2.02s10.64-.51,10.64-2.02v-10.91c0-3.68-2.12-6.87-5.22-8.47-1.35-.69-2.89-1.08-4.51-1.08h0Z" fill="#333232"/><polyline points="34.6 24.84 38.66 34.02 42.64 24.84" fill="url(#t)" stroke="#053755" stroke-linejoin="round"/><circle cx="38.62" cy="18.07" r="8" fill="url(#u)"/><path d="M38.62,10.57c4.14,0,7.5,3.36,7.5,7.5s-3.36,7.5-7.5,7.5-7.5-3.36-7.5-7.5,3.36-7.5,7.5-7.5M38.62,9.57c-4.69,0-8.5,3.81-8.5,8.5s3.81,8.5,8.5,8.5,8.5-3.81,8.5-8.5-3.81-8.5-8.5-8.5h0Z" fill="#333232"/><path d="M40.58,10.08c-.12-1.06-.88-1.92-1.97-1.92s-1.86.96-2,2c-3.4.86-6.25,4.18-6.25,7.74h16.49c.02-3.98-2.69-7.01-6.27-7.82Z" fill="url(#v)" stroke="#333232" stroke-miterlimit="10"/><path d="M38.62,14.58h0c-1.1,0-2-.9-2-2v-2c0-1.37.89-2.42,2-2.42h0c1.1,0,2,.88,2,2.42v2c0,1.1-.9,2-2,2Z" fill="url(#w)" stroke="#323232" stroke-linejoin="round"/><path d="M47.03,18.58h-16.82c-.33,0-.59-.27-.59-.59v-.81c0-.33.27-.59.59-.59h16.81c.33,0,.59.27.59.59v.81c.01.32-.26.59-.58.59Z" fill="url(#x)" stroke="#323232" stroke-linejoin="round"/><path d="M19.84,54.72c-11.03,0-11.34-1.58-11.34-1.76v-12.25c0-5.63,4.76-10.21,10.62-10.21h1.76c5.86,0,10.62,4.58,10.62,10.21v12.24c0,.08-.13,1.77-11.66,1.77Z" fill="url(#y)"/><path d="M20.88,31c5.58,0,10.12,4.36,10.12,9.71v12.17c-.21.21-1.77,1.34-11.15,1.34s-10.66-1.13-10.85-1.33v-12.18c0-5.35,4.54-9.71,10.12-9.71h1.76M20.88,30h-1.76c-6.14,0-11.12,4.8-11.12,10.71v12.24c0,1.69,5.22,2.26,11.85,2.26s12.15-.56,12.15-2.25v-12.25c0-5.91-4.98-10.71-11.12-10.71h0Z" fill="#333232"/><polygon points="19.83 31.06 16.03 30.8 18.73 36.85 16.6 48.65 19.89 52.62 23.48 48.56 21.02 36.85 23.64 30.8 19.83 31.06" fill="url(#z)" stroke="#053755" stroke-linejoin="round"/><line x1="19" y1="36.5" x2="21" y2="36.5" fill="none" stroke="#053755" stroke-linejoin="round"/><path d="M19.83,32.46c-5.18,0-9.4-4.21-9.4-9.39s4.21-9.4,9.4-9.4,9.39,4.21,9.39,9.4c0,5.17-4.21,9.39-9.39,9.39Z" fill="url(#aa)"/><path d="M19.83,14.17c4.9,0,8.89,3.99,8.89,8.89s-3.99,8.89-8.89,8.89-8.89-3.99-8.89-8.89,3.99-8.89,8.89-8.89M19.83,13.17c-5.46,0-9.89,4.43-9.89,9.89s4.43,9.89,9.89,9.89,9.89-4.43,9.89-9.89-4.42-9.89-9.89-9.89h0Z" fill="#333232"/><g id="ab"><g id="ac"><path d="M53.77,37.59c-.18-.09-.39-.14-.59-.13h-3c-.32,0-.64.11-.87.34-.23.21-.36.51-.36.83l-.05,16.68.8.43v-16.74c0-.32.12-.62.36-.83.23-.23.55-.35.87-.34h3c.2,0,.41.04.59.13l-.75-.37Z" fill="#00273c"/><path d="M54.83,38.19c.23.22.35.52.34.83v16.73h-5.5l.03-16.75c0-.32.12-.62.36-.83.23-.23.55-.35.87-.34h3c.34-.01.66.12.9.36Z" fill="#00304b"/></g><g id="ad"><path d="M45.78,47.6c-.18-.09-.38-.13-.58-.13h-3c-.32,0-.64.12-.87.34-.23.21-.36.52-.36.83v6.69l.78.41v-6.7c0-.31.13-.62.36-.83.23-.22.55-.35.87-.34h3c.2,0,.4.04.58.13l-.78-.4Z" fill="#00273c"/><path d="M46.84,48.2c.22.22.33.52.32.83v6.72h-5.48v-6.7c0-.31.13-.62.36-.83.23-.22.55-.35.87-.34h3c.34-.03.68.09.93.32Z" fill="#00304b"/></g><g id="ae"><polygon points="33.85 55.76 33.07 55.38 33.09 43.66 33.87 44.06 33.85 55.76" fill="#002031"/><path d="M37.94,42.62c-.18-.09-.39-.13-.59-.13h-3l.78.4h3c.2,0,.41.04.59.13l-.78-.4Z" fill="#00273c"/><path d="M33.87,44.06l-.78-.4c0-.31.12-.61.35-.83.24-.22.55-.34.87-.33l.78.4c-.32,0-.63.11-.87.33-.23.22-.35.52-.35.83Z" fill="#00273c"/><path d="M39,43.22c.22.21.35.51.34.82v11.72h-5.49v-11.7c0-.31.12-.61.35-.83.24-.22.55-.34.87-.33h3c.34-.03.68.08.93.32Z" fill="#00304b"/></g><g id="af"><polygon points="25.86 55.75 25.08 55.38 25.1 53.31 25.88 53.71 25.86 55.75" fill="#002031"/><path d="M29.94,52.26c-.18-.09-.38-.13-.58-.13h-3l.78.4h3c.2,0,.4.04.58.13l-.78-.4Z" fill="#00273c"/><path d="M25.88,53.71l-.78-.4c0-.31.12-.62.35-.83.23-.22.55-.35.87-.34l.78.4c-.32,0-.63.12-.87.34-.23.22-.35.52-.35.83Z" fill="#00273c"/><path d="M31,52.86c.22.22.35.52.34.83v2.06h-5.48v-2c0-.31.12-.61.35-.83.24-.22.55-.34.87-.34h3c.33-.04.67.06.92.28Z" fill="#00304b"/></g></g></svg>