<?xml version="1.0" encoding="UTF-8"?>
<svg id="Layer_1" xmlns="http://www.w3.org/2000/svg" version="1.1" xmlns:xlink="http://www.w3.org/1999/xlink" viewBox="0 0 64 64">
  <!-- Generator: Adobe Illustrator 29.8.1, SVG Export Plug-In . SVG Version: 2.1.1 Build 2)  -->
  <defs>
    <style>
      .st0 {
        fill: url(#linear-gradient20);
      }

      .st0, .st1, .st2, .st3, .st4, .st5, .st6, .st7, .Blue_x0020_RIGHT_x0020__x002F__x0020_FRONT_x0020_or_x0020_SINGLE, .st8, .st9, .st10, .st11, .st12, .st13, .st14, .st15 {
        stroke-linejoin: round;
      }

      .st0, .st1, .st8, .st9, .st10, .st11, .st14, .st15 {
        stroke-linecap: round;
      }

      .st0, .Blue_x0020_RIGHT_x0020__x002F__x0020_FRONT_x0020_or_x0020_SINGLE, .st10, .st11 {
        stroke: #063755;
      }

      .st1 {
        fill: url(#linear-gradient17);
      }

      .st1, .st2, .st3, .st4, .st6, .st7, .st9, .st12, .st13, .st14, .st15 {
        stroke: #323232;
      }

      .st16 {
        fill: url(#linear-gradient10);
      }

      .st2 {
        fill: url(#linear-gradient4);
      }

      .st2, .st3, .st4, .st13 {
        opacity: .3;
      }

      .st3 {
        fill: url(#linear-gradient2);
      }

      .st17, .st8 {
        fill: #fff;
      }

      .st18 {
        fill: url(#linear-gradient9);
      }

      .st4 {
        fill: url(#linear-gradient3);
      }

      .st5 {
        fill: none;
        stroke: #fff;
        stroke-width: 3px;
      }

      .st19 {
        fill: url(#linear-gradient8);
      }

      .st20 {
        fill: url(#linear-gradient11);
      }

      .st6 {
        fill: url(#linear-gradient14);
      }

      .st7 {
        fill: url(#linear-gradient12);
      }

      .Blue_x0020_RIGHT_x0020__x002F__x0020_FRONT_x0020_or_x0020_SINGLE {
        fill: url(#linear-gradient);
      }

      .st21 {
        fill: url(#linear-gradient7);
      }

      .st8 {
        stroke: #231f20;
        stroke-width: .2px;
      }

      .st9 {
        fill: url(#linear-gradient16);
      }

      .st10 {
        fill: url(#linear-gradient18);
      }

      .st22 {
        fill: url(#linear-gradient6);
      }

      .st11 {
        fill: url(#linear-gradient19);
      }

      .st12 {
        fill: url(#linear-gradient13);
      }

      .st13 {
        fill: url(#linear-gradient5);
      }

      .st14 {
        fill: url(#linear-gradient15);
      }

      .st15 {
        fill: url(#linear-gradient1);
      }
    </style>
    <linearGradient id="linear-gradient" x1="25.8" y1="2.8" x2="39.2" y2="26.2" gradientUnits="userSpaceOnUse">
      <stop offset="0" stop-color="#8bd6f3"/>
      <stop offset="1" stop-color="#376e8c"/>
    </linearGradient>
    <linearGradient id="linear-gradient1" x1="19.7" y1="6.3" x2="45.3" y2="50.7" gradientUnits="userSpaceOnUse">
      <stop offset="0" stop-color="#f4f5f5"/>
      <stop offset="1" stop-color="#d2d2d2"/>
    </linearGradient>
    <linearGradient id="linear-gradient2" x1="26.5" y1="33" x2="26.5" y2="33" xlink:href="#linear-gradient1"/>
    <linearGradient id="linear-gradient3" x1="39.5" y1="33" x2="39.5" y2="33" xlink:href="#linear-gradient1"/>
    <linearGradient id="linear-gradient4" x1="63.2" y1="60.8" x2="63.2" y2="60.8" gradientTransform="translate(93.3 -35.7) rotate(90)" xlink:href="#linear-gradient1"/>
    <linearGradient id="linear-gradient5" x1="73.2" y1="60.8" x2="73.2" y2="60.8" gradientTransform="translate(93.3 -35.7) rotate(90)" xlink:href="#linear-gradient1"/>
    <linearGradient id="linear-gradient6" x1="33" y1="30.5" x2="48.3" y2="57" xlink:href="#linear-gradient1"/>
    <linearGradient id="linear-gradient7" x1="41" y1="25.9" x2="45" y2="32.9" xlink:href="#linear-gradient1"/>
    <linearGradient id="linear-gradient8" x1="51.2" y1="40.5" x2="57.6" y2="51.6" xlink:href="#linear-gradient1"/>
    <linearGradient id="linear-gradient9" x1="48.7" y1="28" x2="52.5" y2="34.7" gradientUnits="userSpaceOnUse">
      <stop offset="0" stop-color="#a2ddf7"/>
      <stop offset="1" stop-color="#73c3e1"/>
    </linearGradient>
    <linearGradient id="linear-gradient10" x1="43.4" y1="33.2" x2="64.7" y2="70" gradientUnits="userSpaceOnUse">
      <stop offset="0" stop-color="#82bddc"/>
      <stop offset="1" stop-color="#275a78"/>
    </linearGradient>
    <linearGradient id="linear-gradient11" x1="48.6" y1="27" x2="66" y2="57.2" gradientUnits="userSpaceOnUse">
      <stop offset="0" stop-color="#8bd6f4"/>
      <stop offset="1" stop-color="#376e8c"/>
    </linearGradient>
    <linearGradient id="linear-gradient12" x1="7.7" y1="39.8" x2="16.4" y2="30.4" gradientUnits="userSpaceOnUse">
      <stop offset=".2" stop-color="#bebebe"/>
      <stop offset=".3" stop-color="#f5f5f5"/>
      <stop offset=".6" stop-color="#c6c6c5"/>
      <stop offset=".8" stop-color="#ddd"/>
      <stop offset="1" stop-color="#a39f9f"/>
    </linearGradient>
    <linearGradient id="linear-gradient13" x1="23.2" y1="51" x2="29.4" y2="44.5" gradientUnits="userSpaceOnUse">
      <stop offset=".2" stop-color="#bebebe"/>
      <stop offset=".3" stop-color="#f5f5f5"/>
      <stop offset=".6" stop-color="#c6c6c5"/>
      <stop offset=".8" stop-color="#ddd"/>
      <stop offset="1" stop-color="#a39f9f"/>
    </linearGradient>
    <linearGradient id="linear-gradient14" x1="16.1" y1="39.2" x2="22.1" y2="45.7" xlink:href="#linear-gradient13"/>
    <linearGradient id="linear-gradient15" x1="33.5" y1="31.4" x2="47.8" y2="56.1" xlink:href="#linear-gradient1"/>
    <linearGradient id="linear-gradient16" x1="41.5" y1="26.7" x2="44.5" y2="32" xlink:href="#linear-gradient1"/>
    <linearGradient id="linear-gradient17" x1="51.7" y1="41.4" x2="57.1" y2="50.7" xlink:href="#linear-gradient1"/>
    <linearGradient id="linear-gradient18" x1="49.2" y1="28.9" x2="52" y2="33.9" xlink:href="#linear-gradient9"/>
    <linearGradient id="linear-gradient19" x1="43.8" y1="33.8" x2="62.5" y2="66.2" xlink:href="#linear-gradient10"/>
    <linearGradient id="linear-gradient20" x1="49.6" y1="28.8" x2="64" y2="53.7" xlink:href="#linear-gradient11"/>
  </defs>
  <g>
    <rect class="st15" x="12.5" y="10.5" width="40" height="36"/>
    <rect class="Blue_x0020_RIGHT_x0020__x002F__x0020_FRONT_x0020_or_x0020_SINGLE" x="12.5" y="10.5" width="40" height="8"/>
    <line class="st3" x1="26.5" y1="19" x2="26.5" y2="47"/>
    <line class="st4" x1="39.5" y1="19" x2="39.5" y2="47"/>
    <line class="st2" x1="52" y1="27.5" x2="13" y2="27.5"/>
    <line class="st13" x1="52" y1="37.5" x2="13" y2="37.5"/>
  </g>
  <g>
    <g>
      <path class="st22" d="M50.4,55.6c-.1,0-.2,0-.4,0l-16-6c-.4-.1-.6-.5-.6-.9v-17.8c0-.3.1-.6.4-.8.2-.1.4-.2.6-.2s.2,0,.2,0l8,2c.4.1.8.5.8,1v8.3l7.4,2.8c.4.1.6.5.6.9v9.8c0,.3-.2.6-.4.8-.2.1-.4.2-.6.2Z"/>
      <path class="st17" d="M34.4,30.9l8,2v9l8,3v9.8l-16-6v-17.8M34.4,28.9c-.4,0-.9.1-1.2.4-.5.4-.8,1-.8,1.6v17.8c0,.8.5,1.6,1.3,1.9l16,6c.2,0,.5.1.7.1.4,0,.8-.1,1.1-.4.5-.4.9-1,.9-1.6v-9.8c0-.8-.5-1.6-1.3-1.9l-6.7-2.5v-7.6c0-.9-.6-1.7-1.5-1.9l-8-2c-.2,0-.3,0-.5,0h0Z"/>
    </g>
    <g>
      <path class="st21" d="M42.4,33.8c0,0-.2,0-.2,0l-8-2c-.4-.1-.7-.5-.8-.9s.2-.8.6-1l10.8-4c.1,0,.2,0,.3,0s.1,0,.2,0l6.4,1.2c.4,0,.7.4.8.8s-.1.8-.5,1l-9.1,4.8c-.1,0-.3.1-.5.1Z"/>
      <path class="st17" d="M45.2,26.8l6.4,1.2-9.1,4.8-8-2,10.8-4M45.2,24.8c-.2,0-.5,0-.7.1l-10.8,4c-.8.3-1.3,1.1-1.3,2,0,.9.7,1.6,1.5,1.8l8,2c.2,0,.3,0,.5,0,.3,0,.6,0,.9-.2l9.1-4.8c.8-.4,1.2-1.2,1-2.1-.1-.8-.8-1.5-1.6-1.7l-6.4-1.2c-.1,0-.2,0-.4,0h0Z"/>
    </g>
    <g>
      <path class="st17" d="M50.9,44.3c-.1,0-.3,0-.4,0l-7-3c-.3-.1-.6-.5-.6-.8s.2-.7.5-.9l8-5c.2-.1.3-.2.5-.2s.2,0,.3,0l6,2c.3.1.6.4.7.8s0,.7-.3,1l-7,6c-.2.2-.4.2-.7.2Z"/>
      <path class="st17" d="M51.9,35.3l6,2-7,6-7-3,8-5M51.9,33.3c-.4,0-.7.1-1.1.3l-8,5c-.6.4-1,1.1-.9,1.8,0,.7.5,1.4,1.2,1.7l7,3c.3.1.5.2.8.2.5,0,.9-.2,1.3-.5l7-6c.5-.5.8-1.2.7-1.9-.1-.7-.6-1.3-1.3-1.5l-6-2c-.2,0-.4-.1-.6-.1h0Z"/>
    </g>
    <g>
      <path class="st17" d="M42.9,42.3c-.2,0-.3,0-.5-.1-.3-.2-.5-.5-.5-.9v-9c0-.4.2-.8.6-.9l9-4c.1,0,.3,0,.4,0s.4,0,.5.2c.3.2.5.5.5.8v7c0,.3-.2.6-.4.8l-9,6c-.2.1-.4.2-.6.2Z"/>
      <path class="st17" d="M51.9,28.3v7l-9,6v-9l9-4M51.9,26.3c-.3,0-.6,0-.8.2l-9,4c-.7.3-1.2,1-1.2,1.8v9c0,.7.4,1.4,1.1,1.8.3.2.6.2.9.2s.8-.1,1.1-.3l9-6c.6-.4.9-1,.9-1.7v-7c0-.7-.3-1.3-.9-1.7-.3-.2-.7-.3-1.1-.3h0Z"/>
    </g>
    <g>
      <path class="st19" d="M50.4,55.6c-.1,0-.2,0-.4,0-.4-.1-.6-.5-.6-.9v-10.2c0-.3.1-.6.3-.8l8-6.9c.2-.2.4-.2.7-.2s.3,0,.4,0c.4.2.6.5.6.9v8.2c0,.2,0,.5-.3.7l-8,8.9c-.2.2-.5.3-.7.3Z"/>
      <path class="st17" d="M58.4,37.5v8.2l-8,8.9v-10.2l8-6.9M58.4,35.5c-.5,0-.9.2-1.3.5l-8,6.9c-.4.4-.7.9-.7,1.5v10.2c0,.8.5,1.6,1.3,1.9.2,0,.5.1.7.1.6,0,1.1-.2,1.5-.7l8-8.9c.3-.4.5-.8.5-1.3v-8.2c0-.8-.5-1.5-1.2-1.8-.3-.1-.5-.2-.8-.2h0Z"/>
    </g>
    <g>
      <path class="st18" d="M50.4,35.8c0,0-.2,0-.2,0l-8-2c-.4-.1-.7-.4-.8-.9,0-.4.2-.8.5-1l9.1-4.8c.1,0,.3-.1.5-.1s.1,0,.2,0l6.8,1.3c.4,0,.7.4.8.8s0,.8-.4,1l-8,5.5c-.2.1-.4.2-.6.2Z"/>
      <path class="st17" d="M51.6,28l6.8,1.3-8,5.5-8-2,9.1-4.8M51.6,26c-.3,0-.6,0-.9.2l-9.1,4.8c-.7.4-1.2,1.2-1.1,2,0,.8.7,1.5,1.5,1.7l8,2c.2,0,.3,0,.5,0,.4,0,.8-.1,1.1-.4l8-5.5c.7-.5,1-1.3.8-2.1-.2-.8-.8-1.4-1.6-1.6l-6.8-1.3c-.1,0-.3,0-.4,0h0Z"/>
    </g>
    <g>
      <path class="st16" d="M50.4,45.8c-.1,0-.2,0-.3,0l-8-2.8c-.4-.1-.7-.5-.7-.9v-9.2c0-.3.1-.6.4-.8.2-.1.4-.2.6-.2s.2,0,.2,0l8,2c.4.1.8.5.8,1v10c0,.3-.2.6-.4.8-.2.1-.4.2-.6.2Z"/>
      <path class="st17" d="M42.4,32.8l8,2v10l-8-2.8v-9.2M42.4,30.8c-.4,0-.9.1-1.2.4-.5.4-.8,1-.8,1.6v9.2c0,.8.5,1.6,1.3,1.9l8,2.8c.2,0,.4.1.7.1.4,0,.8-.1,1.2-.4.5-.4.8-1,.8-1.6v-10c0-.9-.6-1.7-1.5-1.9l-8-2c-.2,0-.3,0-.5,0h0Z"/>
    </g>
    <g>
      <path class="st20" d="M50.4,45.8c-.1,0-.3,0-.4,0-.4-.2-.6-.5-.6-.9v-10c0-.3.2-.6.4-.8l8-5.5c.2-.1.4-.2.6-.2s.3,0,.5.1c.3.2.5.5.5.9v8.2c0,.3-.1.5-.3.7l-8,7.3c-.2.2-.4.3-.7.3Z"/>
      <path class="st17" d="M58.4,29.3v8.2l-8,7.3v-10l8-5.5M58.4,27.3c-.4,0-.8.1-1.1.4l-8,5.5c-.5.4-.9,1-.9,1.6v10c0,.8.5,1.5,1.2,1.8.3.1.5.2.8.2.5,0,1-.2,1.3-.5l8-7.3c.4-.4.7-.9.7-1.5v-8.2c0-.7-.4-1.4-1.1-1.8-.3-.2-.6-.2-.9-.2h0Z"/>
    </g>
  </g>
  <g id="c">
    <g id="d">
      <polygon class="st17" points="10.8 36.3 14.1 39.6 17.3 36.3 14.1 33.1 15.6 31.5 12.4 28.3 8 32.6 6 37.9 7.7 39.5 10.8 36.3"/>
      <path class="st17" d="M23.1,42.1l-3.3,3.3,7.5,7.5c.3.3.8.5,1.3.5s.9-.2,1.3-.5l.7-.7c.3-.3.5-.8.5-1.3s-.2-.9-.5-1.3l-7.5-7.5Z"/>
      <path class="st17" d="M26.5,37.5c2.5,0,4.6-2,4.6-4.6s0-.8-.2-1.2l-2.4,2.4c-.3.4-.8.5-1.3.5s-.9-.2-1.3-.5l-.7-.7c-.3-.4-.5-.8-.5-1.3s.2-.9.5-1.3l2.4-2.4c-.4-.1-.8-.2-1.2-.2-2.6,0-4.6,2.1-4.6,4.6s0,.8.2,1.2l-15.4,15.4c-.5.5-.7,1.1-.7,1.6,0,1.3,1.1,2.3,2.3,2.3s1.2-.2,1.6-.7l15.4-15.4c.4.1.8.2,1.2.2h0Z"/>
    </g>
    <g id="d1" data-name="d">
      <polygon points="10.8 36.3 14.1 39.6 17.3 36.3 14.1 33.1 15.6 31.5 12.4 28.3 8 32.6 6 37.9 7.7 39.5 10.8 36.3"/>
      <path d="M23.1,42.1l-3.3,3.3,7.5,7.5c.3.3.8.5,1.3.5s.9-.2,1.3-.5l.7-.7c.3-.3.5-.8.5-1.3s-.2-.9-.5-1.3l-7.5-7.5Z"/>
      <path d="M26.5,37.5c2.5,0,4.6-2,4.6-4.6s0-.8-.2-1.2l-2.4,2.4c-.3.4-.8.5-1.3.5s-.9-.2-1.3-.5l-.7-.7c-.3-.4-.5-.8-.5-1.3s.2-.9.5-1.3l2.4-2.4c-.4-.1-.8-.2-1.2-.2-2.6,0-4.6,2.1-4.6,4.6s0,.8.2,1.2l-15.4,15.4c-.5.5-.7,1.1-.7,1.6,0,1.3,1.1,2.3,2.3,2.3s1.2-.2,1.6-.7l15.4-15.4c.4.1.8.2,1.2.2h0Z"/>
    </g>
    <g id="d2" data-name="d">
      <polygon class="st5" points="10.8 36.3 14.1 39.6 17.3 36.3 14.1 33.1 15.6 31.5 12.4 28.3 8 32.6 6 37.9 7.7 39.5 10.8 36.3"/>
      <path class="st5" d="M23.1,42.1l-3.3,3.3,7.5,7.5c.3.3.8.5,1.3.5s.9-.2,1.3-.5l.7-.7c.3-.3.5-.8.5-1.3s-.2-.9-.5-1.3l-7.5-7.5Z"/>
      <path class="st5" d="M26.5,37.5c2.5,0,4.6-2,4.6-4.6s0-.8-.2-1.2l-2.4,2.4c-.3.4-.8.5-1.3.5s-.9-.2-1.3-.5l-.7-.7c-.3-.4-.5-.8-.5-1.3s.2-.9.5-1.3l2.4-2.4c-.4-.1-.8-.2-1.2-.2-2.6,0-4.6,2.1-4.6,4.6s0,.8.2,1.2l-15.4,15.4c-.5.5-.7,1.1-.7,1.6,0,1.3,1.1,2.3,2.3,2.3s1.2-.2,1.6-.7l15.4-15.4c.4.1.8.2,1.2.2h0Z"/>
    </g>
  </g>
  <g>
    <polygon class="st7" points="10.8 36.3 14.1 39.6 17.3 36.3 14.1 33.1 15.6 31.5 12.4 28.3 8 32.6 6 37.9 7.7 39.5 10.8 36.3"/>
    <path class="st12" d="M23.1,42.1l-3.3,3.3,7.5,7.5c.3.3.8.5,1.3.5s.9-.2,1.3-.5l.7-.7c.3-.3.5-.8.5-1.3s-.2-.9-.5-1.3l-7.5-7.5Z"/>
    <path class="st6" d="M26.5,37.5c2.5,0,4.6-2,4.6-4.6s0-.8-.2-1.2l-2.4,2.4c-.3.4-.8.5-1.3.5s-.9-.2-1.3-.5l-.7-.7c-.3-.4-.5-.8-.5-1.3s.2-.9.5-1.3l2.4-2.4c-.4-.1-.8-.2-1.2-.2-2.6,0-4.6,2.1-4.6,4.6s0,.8.2,1.2l-15.4,15.4c-.5.5-.7,1.1-.7,1.6,0,1.3,1.1,2.3,2.3,2.3s1.2-.2,1.6-.7l15.4-15.4c.4.1.8.2,1.2.2h0Z"/>
  </g>
  <g>
    <polygon class="st14" points="34.4 30.9 34.4 48.6 50.4 54.6 50.4 44.8 42.4 41.8 42.4 32.8 34.4 30.9"/>
    <polygon class="st9" points="51.5 28 45.2 26.8 34.4 30.8 42.4 32.8 51.5 28"/>
    <polygon class="st8" points="51.9 35.3 57.9 37.3 50.9 43.3 43.9 40.3 51.9 35.3"/>
    <polygon class="st8" points="51.9 28.3 42.9 32.3 42.9 41.3 51.9 35.3 51.9 28.3"/>
    <polygon class="st1" points="58.4 45.7 58.4 37.5 50.4 44.4 50.4 54.6 58.4 45.7"/>
    <polygon class="st10" points="42.4 32.8 51.6 28 58.4 29.3 50.4 34.8 42.4 32.8"/>
    <polygon class="st11" points="42.4 42 42.4 32.8 50.4 34.8 50.4 44.8 42.4 42"/>
    <polygon class="st0" points="58.4 37.5 58.4 29.3 50.4 34.8 50.4 44.8 58.4 37.5"/>
  </g>
</svg>