<?xml version="1.0" encoding="UTF-8"?><svg id="S_final" xmlns="http://www.w3.org/2000/svg" xmlns:xlink="http://www.w3.org/1999/xlink" viewBox="0 0 64 64"><defs><linearGradient id="linear-gradient" x1="18.05" y1="49.48" x2="8.82" y2="33.5" gradientUnits="userSpaceOnUse"><stop offset="0" stop-color="#386f8d"/><stop offset="1" stop-color="#8dd7f4"/></linearGradient><linearGradient id="linear-gradient-2" x1="17.97" y1="12.57" x2="42.14" y2="54.43" gradientUnits="userSpaceOnUse"><stop offset="0" stop-color="#d7d7d7"/><stop offset="1" stop-color="#969696"/></linearGradient><linearGradient id="linear-gradient-3" x1="20.89" y1="19.97" x2="41.17" y2="55.11" gradientUnits="userSpaceOnUse"><stop offset="0" stop-color="#fff"/><stop offset="1" stop-color="#d2d2d2"/></linearGradient><radialGradient id="radial-gradient" cx="47.58" cy="9.8" fx="47.58" fy="9.8" r="8.2" gradientTransform="translate(0 33.01) scale(1 1.1)" gradientUnits="userSpaceOnUse"><stop offset="0" stop-color="#8dd7f4"/><stop offset="1" stop-color="#386f8d"/></radialGradient><radialGradient id="radial-gradient-2" cx="67.63" cy="111.42" fx="67.63" fy="111.42" r="5.45" gradientTransform="translate(-7.22 4.08) scale(.85 .33)" gradientUnits="userSpaceOnUse"><stop offset="0" stop-color="#fff"/><stop offset="1" stop-color="#000"/></radialGradient><mask id="mask" x="43.54" y="39.11" width="12.96" height="13.39" maskUnits="userSpaceOnUse"><ellipse cx="50.02" cy="40.9" rx="4.59" ry="1.78" fill="url(#radial-gradient-2)"/></mask><radialGradient id="radial-gradient-3" cx="49.51" cy="34.76" fx="49.51" fy="34.76" r="7.51" gradientTransform="matrix(1,0,0,1,0,0)" xlink:href="#radial-gradient"/><linearGradient id="linear-gradient-4" x1="26.37" y1="23.08" x2="37.41" y2="42.2" gradientUnits="userSpaceOnUse"><stop offset="0" stop-color="#8cd7f5"/><stop offset="1" stop-color="#376e8c"/></linearGradient><linearGradient id="linear-gradient-5" x1="25.77" y1="25.29" x2="31.73" y2="35.6" gradientUnits="userSpaceOnUse"><stop offset="0" stop-color="#3287af"/><stop offset="1" stop-color="#285a78"/></linearGradient><linearGradient id="linear-gradient-6" x1="32.09" y1="25.1" x2="38.54" y2="36.27" xlink:href="#linear-gradient-5"/><mask id="mask-1" x="43.54" y="39.11" width="12.96" height="13.39" maskUnits="userSpaceOnUse"><ellipse cx="50.02" cy="40.9" rx="4.59" ry="1.78" fill="url(#radial-gradient-2)"/></mask><radialGradient id="radial-gradient-4" cx="49.51" cy="34.76" fx="49.51" fy="34.76" r="7.51" gradientTransform="matrix(1,0,0,1,0,0)" xlink:href="#radial-gradient"/><linearGradient id="linear-gradient-7" x1="32.09" y1="25.1" x2="38.54" y2="36.27" xlink:href="#linear-gradient-5"/></defs><path d="M24.45,19.59v-2.04c0-1.13-.92-2.04-2.05-2.04h-8.98c-1.09,0-1.97.88-1.97,1.96v30.99c0,1.13.92,2.04,2.05,2.04h34.89c1.13,0,2.05-.92,2.05-2.04v-26.82c0-1.13-.92-2.04-2.05-2.04h-23.95Z" fill="url(#linear-gradient-2)"/><path d="M13.34,24.61h35.32c1.02,0,1.84.82,1.84,1.84v22.21c0,1.02-.82,1.84-1.84,1.84H13.53c-1.12,0-2.03-.91-2.03-2.03v-22.02c0-1.02.82-1.84,1.84-1.84Z" fill="url(#linear-gradient-3)" stroke="#787878" stroke-linejoin="round"/><path d="M24.45,19.59v-2.04c0-1.13-.92-2.04-2.05-2.04h-8.89c-1.13,0-2.05.92-2.05,2.04v30.91c0,1.13.92,2.04,2.05,2.04h34.89c1.13,0,2.05-.92,2.05-2.04v-26.82c0-1.13-.92-2.04-2.05-2.04h-23.95Z" fill="none" stroke="#323232" stroke-linejoin="round"/><circle cx="13.46" cy="41.54" r="7.04" fill="url(#linear-gradient)" stroke="#053755" stroke-linecap="round" stroke-linejoin="round"/><path d="M10.47,44.51c.42-1.2,2.04-1.75,3.82-1.42v2.53l4.82-4.08-4.82-4.08v2.64c-.24-.03-.49-.05-.74-.05-2.86,0-5.19,1.99-5.19,4.45s2.32,4.45,5.19,4.45c.56,0,1.1-.08,1.61-.22-.56-.02-1.15-.12-1.75-.33-2.12-.75-3.44-2.49-2.95-3.89Z" fill="#fff"/><path d="M56.49,44.12c-.13-2.2-2.97-3.96-6.47-3.96s-6.34,1.76-6.47,3.96h-.01v6.1c0,1.18,2.9,2.13,6.48,2.13s6.48-.96,6.48-2.13v-6.1h-.01Z" fill="url(#radial-gradient)" stroke="#053755" stroke-linecap="round" stroke-linejoin="round"/><g mask="url(#mask)"><path d="M56.48,44.06c-.2-2.28-3.01-4.06-6.46-4.06s-6.26,1.77-6.46,4.06c-.01.03-.02.07-.02.11v5.95c0,1.55,3.34,2.38,6.48,2.38s6.48-.83,6.48-2.38v-5.95s0-.08-.02-.11Z" fill="#003755" opacity=".5"/></g><ellipse cx="50.04" cy="36.06" rx="4.54" ry="4.55" fill="url(#radial-gradient-3)" stroke="#053755" stroke-linecap="round" stroke-linejoin="round"/><path d="M39.5,41l-7.52-5.83-7.52,5.83v-15.86c0-.9.71-1.64,1.59-1.64h11.94c.83,0,1.5.67,1.5,1.5v16Z" fill="url(#linear-gradient-4)" stroke="#003755" stroke-linejoin="round"/><polygon points="30 24 30 36.14 28 37.76 28 24 30 24" fill="url(#linear-gradient-5)"/><polygon points="35.96 24 35.96 37.76 34 36.2 34 24 35.96 24" fill="url(#linear-gradient-6)"/><path d="M24.45,19.59v-2.04c0-1.13-.92-2.04-2.05-2.04h-8.98c-1.09,0-1.97.88-1.97,1.96v30.99c0,1.13.92,2.04,2.05,2.04h34.89c1.13,0,2.05-.92,2.05-2.04v-26.82c0-1.13-.92-2.04-2.05-2.04h-23.95Z" fill="url(#linear-gradient-2)"/><path d="M13.34,24.61h35.32c1.02,0,1.84.82,1.84,1.84v22.21c0,1.02-.82,1.84-1.84,1.84H13.53c-1.12,0-2.03-.91-2.03-2.03v-22.02c0-1.02.82-1.84,1.84-1.84Z" fill="url(#linear-gradient-3)" stroke="#787878" stroke-linejoin="round"/><path d="M24.45,19.59v-2.04c0-1.13-.92-2.04-2.05-2.04h-8.89c-1.13,0-2.05.92-2.05,2.04v30.91c0,1.13.92,2.04,2.05,2.04h34.89c1.13,0,2.05-.92,2.05-2.04v-26.82c0-1.13-.92-2.04-2.05-2.04h-23.95Z" fill="none" stroke="#323232" stroke-linejoin="round"/><circle cx="13.46" cy="41.54" r="7.04" fill="url(#linear-gradient)" stroke="#053755" stroke-linecap="round" stroke-linejoin="round"/><path d="M10.47,44.51c.42-1.2,2.04-1.75,3.82-1.42v2.53l4.82-4.08-4.82-4.08v2.64c-.24-.03-.49-.05-.74-.05-2.86,0-5.19,1.99-5.19,4.45s2.32,4.45,5.19,4.45c.56,0,1.1-.08,1.61-.22-.56-.02-1.15-.12-1.75-.33-2.12-.75-3.44-2.49-2.95-3.89Z" fill="#fff"/><path d="M56.49,44.12c-.13-2.2-2.97-3.96-6.47-3.96s-6.34,1.76-6.47,3.96h-.01v6.1c0,1.18,2.9,2.13,6.48,2.13s6.48-.96,6.48-2.13v-6.1h-.01Z" fill="url(#radial-gradient)" stroke="#053755" stroke-linecap="round" stroke-linejoin="round"/><g mask="url(#mask-1)"><path d="M56.48,44.06c-.2-2.28-3.01-4.06-6.46-4.06s-6.26,1.77-6.46,4.06c-.01.03-.02.07-.02.11v5.95c0,1.55,3.34,2.38,6.48,2.38s6.48-.83,6.48-2.38v-5.95s0-.08-.02-.11Z" fill="#003755" opacity=".5"/></g><ellipse cx="50.04" cy="36.06" rx="4.54" ry="4.55" fill="url(#radial-gradient-4)" stroke="#053755" stroke-linecap="round" stroke-linejoin="round"/><path d="M39.5,41l-7.52-5.83-7.52,5.83v-15.86c0-.9.71-1.64,1.59-1.64h11.94c.83,0,1.5.67,1.5,1.5v16Z" fill="url(#linear-gradient-4)" stroke="#003755" stroke-linejoin="round"/><polygon points="30 24 30 36.14 28 37.76 28 24 30 24" fill="url(#linear-gradient-5)"/><polygon points="35.96 24 35.96 37.76 34 36.2 34 24 35.96 24" fill="url(#linear-gradient-7)"/></svg>