<?xml version="1.0" encoding="UTF-8"?>
<svg id="NETVIBES" xmlns="http://www.w3.org/2000/svg" version="1.1" xmlns:xlink="http://www.w3.org/1999/xlink" viewBox="0 0 64 64">
  <!-- Generator: Adobe Illustrator 29.7.1, SVG Export Plug-In . SVG Version: 2.1.1 Build 8)  -->
  <defs>
    <style>
      .st0 {
        fill: url(#linear-gradient29);
      }

      .st0, .st1, .st2, .White_x0020_TOP_x0020_2, .st3, .st4, .st5, .st6, .st7, .st8, .st9, .st10, .st11, .st12, .st13, .st14, .st15, .st16, .st17, .st18, .st19, .st20, .st21, .st22, .st23, .st24, .st25, .st26, .st27, .st28, .st29, .st30, .st31, .st32, .st33 {
        stroke-linejoin: round;
      }

      .st0, .st4, .st7, .st8, .st12, .st13, .st14, .st15, .st16, .st20, .st22, .st24, .st26, .st31, .st33 {
        stroke: #787979;
      }

      .st34 {
        fill: url(#linear-gradient2);
      }

      .st35 {
        stroke: url(#linear-gradient11);
        stroke-miterlimit: 10;
        stroke-width: 3.5px;
      }

      .st35, .st1, .st3, .st9, .st10, .st11, .st18, .st19, .st23, .st25, .st27, .st28, .st29, .st30, .st32 {
        stroke-linecap: round;
      }

      .st35, .st5, .st6, .st21 {
        fill: none;
      }

      .st1 {
        fill: url(#linear-gradient36);
      }

      .st1, .st9, .st11, .st18, .st23, .st30 {
        stroke: #003755;
      }

      .st2, .st3, .st36 {
        fill: #fff;
      }

      .st2, .st3, .st6, .st21 {
        stroke: #fff;
      }

      .st2, .st3, .st21 {
        stroke-width: 4px;
      }

      .White_x0020_TOP_x0020_2 {
        fill: url(#linear-gradient);
      }

      .White_x0020_TOP_x0020_2, .st17 {
        stroke: #787878;
      }

      .st37 {
        fill: url(#linear-gradient10);
      }

      .st4 {
        fill: url(#linear-gradient27);
      }

      .st38 {
        fill: url(#linear-gradient1);
      }

      .st39 {
        fill: url(#linear-gradient9);
      }

      .st5 {
        stroke: #323232;
      }

      .st6 {
        stroke-width: 3px;
      }

      .st7 {
        fill: url(#linear-gradient23);
      }

      .st40 {
        fill: url(#linear-gradient8);
      }

      .st8 {
        fill: url(#linear-gradient24);
      }

      .st9 {
        fill: url(#linear-gradient40);
      }

      .st10 {
        fill: url(#linear-gradient15);
      }

      .st10, .st19, .st27, .st28 {
        stroke: #053755;
      }

      .st10, .st19, .st28 {
        stroke-width: 1px;
      }

      .st11 {
        fill: url(#linear-gradient39);
      }

      .st12 {
        fill: url(#linear-gradient21);
      }

      .st13 {
        fill: url(#linear-gradient32);
      }

      .st14 {
        fill: url(#linear-gradient26);
      }

      .st15 {
        fill: url(#linear-gradient31);
      }

      .st16 {
        fill: url(#linear-gradient33);
      }

      .st17 {
        fill: url(#linear-gradient18);
      }

      .st18 {
        fill: url(#linear-gradient17);
      }

      .st41 {
        fill: url(#linear-gradient7);
      }

      .st19 {
        fill: url(#linear-gradient35);
      }

      .st20 {
        fill: url(#linear-gradient22);
      }

      .st42 {
        fill: url(#linear-gradient4);
      }

      .st43 {
        fill: url(#linear-gradient5);
      }

      .st44 {
        fill: url(#linear-gradient3);
      }

      .st22 {
        fill: url(#linear-gradient34);
      }

      .st23 {
        fill: url(#linear-gradient16);
      }

      .st45 {
        font-family: MyriadPro-Regular, 'Myriad Pro';
        font-size: 12px;
      }

      .st24 {
        fill: url(#linear-gradient25);
      }

      .st25 {
        fill: url(#linear-gradient13);
      }

      .st25, .st29, .st32 {
        stroke: #333332;
      }

      .st46 {
        opacity: .2;
      }

      .st46, .st47 {
        fill: #787878;
      }

      .st26 {
        fill: url(#linear-gradient28);
      }

      .st48 {
        fill: url(#linear-gradient6);
      }

      .st27 {
        fill: url(#linear-gradient14);
        stroke-width: 1px;
      }

      .st28 {
        fill: url(#linear-gradient38);
      }

      .st29 {
        fill: url(#linear-gradient12);
      }

      .st30 {
        fill: url(#linear-gradient37);
      }

      .st31 {
        fill: url(#linear-gradient20);
      }

      .st32 {
        fill: url(#linear-gradient19);
      }

      .st33 {
        fill: url(#linear-gradient30);
      }

      .st49 {
        opacity: .7;
      }
    </style>
    <linearGradient id="linear-gradient" x1="40.1" y1="35.3" x2="48.9" y2="50.5" gradientUnits="userSpaceOnUse">
      <stop offset="0" stop-color="#fff"/>
      <stop offset="1" stop-color="#f0f0f0"/>
    </linearGradient>
    <linearGradient id="linear-gradient1" x1="17.1" y1="-6.2" x2="19.8" y2="-1.5" gradientTransform="translate(0 44)" gradientUnits="userSpaceOnUse">
      <stop offset="0" stop-color="#aaa"/>
      <stop offset="1" stop-color="#5a5a5a"/>
    </linearGradient>
    <linearGradient id="linear-gradient2" x1="16.2" y1="-15.2" x2="20.7" y2="-7.4" gradientTransform="translate(0 44)" gradientUnits="userSpaceOnUse">
      <stop offset="0" stop-color="#d7d7d7"/>
      <stop offset="1" stop-color="#969696"/>
    </linearGradient>
    <linearGradient id="linear-gradient3" x1="16.4" y1="-23.4" x2="20.3" y2="-16.6" xlink:href="#linear-gradient1"/>
    <linearGradient id="linear-gradient4" x1="25.3" y1="-26.7" x2="31.6" y2="-15.6" xlink:href="#linear-gradient2"/>
    <linearGradient id="linear-gradient5" x1="26.2" y1="-13.4" x2="30.8" y2="-5.5" xlink:href="#linear-gradient1"/>
    <linearGradient id="linear-gradient6" x1="26.8" y1="-33.7" x2="30" y2="-28.2" xlink:href="#linear-gradient1"/>
    <linearGradient id="linear-gradient7" x1="37.3" y1="-18.1" x2="39.7" y2="-14" xlink:href="#linear-gradient2"/>
    <linearGradient id="linear-gradient8" x1="37" y1="-13.4" x2="39.9" y2="-8.4" xlink:href="#linear-gradient1"/>
    <linearGradient id="linear-gradient9" x1="37.1" y1="-22.8" x2="39.6" y2="-18.5" xlink:href="#linear-gradient1"/>
    <linearGradient id="linear-gradient10" x1="12" y1="-28.8" x2="29.9" y2="2.3" xlink:href="#linear-gradient2"/>
    <linearGradient id="linear-gradient11" x1="13.2" y1="-20" x2="43.8" y2="-20" xlink:href="#linear-gradient1"/>
    <linearGradient id="linear-gradient12" x1="45.2" y1="48.5" x2="52.1" y2="44.6" gradientUnits="userSpaceOnUse">
      <stop offset="0" stop-color="#f5f6f6"/>
      <stop offset="1" stop-color="#d2d3d3"/>
    </linearGradient>
    <linearGradient id="linear-gradient13" x1="46" y1="49.1" x2="48" y2="52.5" gradientUnits="userSpaceOnUse">
      <stop offset="0" stop-color="#ababab"/>
      <stop offset="1" stop-color="#5b5b5b"/>
    </linearGradient>
    <linearGradient id="linear-gradient14" x1="54.7" y1="50.2" x2="50.8" y2="43.4" gradientUnits="userSpaceOnUse">
      <stop offset="0" stop-color="#386f8d"/>
      <stop offset="1" stop-color="#8dd7f4"/>
    </linearGradient>
    <linearGradient id="linear-gradient15" x1="54.7" y1="44.6" x2="50.8" y2="37.8" xlink:href="#linear-gradient14"/>
    <linearGradient id="linear-gradient16" x1="52.3" y1="39.4" x2="53.3" y2="41.3" xlink:href="#linear-gradient12"/>
    <linearGradient id="linear-gradient17" x1="52.3" y1="45" x2="53.3" y2="46.9" xlink:href="#linear-gradient12"/>
    <linearGradient id="linear-gradient18" x1="31.4" y1="37.8" x2="40.7" y2="37.8" xlink:href="#linear-gradient"/>
    <linearGradient id="linear-gradient19" x1="38.5" y1="17.5" x2="43.1" y2="9.5" gradientTransform="translate(0 64) scale(1 -1)" gradientUnits="userSpaceOnUse">
      <stop offset="0" stop-color="#f5f6f6"/>
      <stop offset="1" stop-color="#d2d3d3"/>
    </linearGradient>
    <linearGradient id="linear-gradient20" x1="33.5" y1="18" x2="34.8" y2="15.8" gradientTransform="translate(0 64) scale(1 -1)" gradientUnits="userSpaceOnUse">
      <stop offset="0" stop-color="#fff"/>
      <stop offset="1" stop-color="#f1f0f0"/>
    </linearGradient>
    <linearGradient id="linear-gradient21" x1="35.2" y1="19" x2="36.4" y2="16.8" xlink:href="#linear-gradient20"/>
    <linearGradient id="linear-gradient22" x1="36.8" y1="19.9" x2="38" y2="17.7" xlink:href="#linear-gradient20"/>
    <linearGradient id="linear-gradient23" x1="38.4" y1="20.8" x2="39.6" y2="18.6" xlink:href="#linear-gradient20"/>
    <linearGradient id="linear-gradient24" x1="40" y1="21.7" x2="41.2" y2="19.6" xlink:href="#linear-gradient20"/>
    <linearGradient id="linear-gradient25" x1="36.3" y1="19.6" x2="37.6" y2="17.5" xlink:href="#linear-gradient20"/>
    <linearGradient id="linear-gradient26" x1="37.9" y1="20.6" x2="39.2" y2="18.4" xlink:href="#linear-gradient20"/>
    <linearGradient id="linear-gradient27" x1="40.5" y1="22.1" x2="41.8" y2="19.9" xlink:href="#linear-gradient20"/>
    <linearGradient id="linear-gradient28" x1="42.1" y1="23" x2="43.4" y2="20.8" xlink:href="#linear-gradient20"/>
    <linearGradient id="linear-gradient29" x1="43.7" y1="23.9" x2="45" y2="21.7" xlink:href="#linear-gradient20"/>
    <linearGradient id="linear-gradient30" x1="43.3" y1="23.7" x2="44.6" y2="21.5" xlink:href="#linear-gradient20"/>
    <linearGradient id="linear-gradient31" x1="44.9" y1="24.6" x2="46.2" y2="22.4" xlink:href="#linear-gradient20"/>
    <linearGradient id="linear-gradient32" x1="39.6" y1="21.5" x2="40.8" y2="19.3" xlink:href="#linear-gradient20"/>
    <linearGradient id="linear-gradient33" x1="41.2" y1="22.4" x2="42.4" y2="20.2" xlink:href="#linear-gradient20"/>
    <linearGradient id="linear-gradient34" x1="42.8" y1="23.4" x2="44" y2="21.2" xlink:href="#linear-gradient20"/>
    <linearGradient id="linear-gradient35" x1="54.7" y1="44.6" x2="50.8" y2="37.8" xlink:href="#linear-gradient14"/>
    <linearGradient id="linear-gradient36" x1="52.3" y1="39.4" x2="53.3" y2="41.3" xlink:href="#linear-gradient12"/>
    <linearGradient id="linear-gradient37" x1="52.3" y1="45" x2="53.3" y2="46.9" xlink:href="#linear-gradient12"/>
    <linearGradient id="linear-gradient38" y1="44.8" x2="50.8" y2="38" xlink:href="#linear-gradient14"/>
    <linearGradient id="linear-gradient39" x1="52.3" y1="39.6" x2="53.3" y2="41.5" xlink:href="#linear-gradient12"/>
    <linearGradient id="linear-gradient40" x1="52.3" y1="45" x2="53.3" y2="46.9" xlink:href="#linear-gradient12"/>
  </defs>
  <g>
    <path class="st46" d="M13.9,53.9c-.4,0-.7-.2-.8-.5-.2-.4.1-.9.5-1l29.5-9.4c.5,0,1,0,1.1.5.2.4,0,.9-.5,1l-29.5,9.3c0,.1-.2.1-.3.1Z"/>
    <polygon class="st38" points="14.5 39.3 14.5 43.7 22.5 40.9 22.5 36.6 14.5 39.3"/>
    <polygon class="st34" points="22.5 27.3 14.5 29.8 14.5 38.2 22.5 35.6 22.5 27.3"/>
    <polygon class="st44" points="22.5 26.2 22.5 19.7 14.5 21.7 14.5 28.8 22.5 26.2"/>
    <polygon class="st42" points="32.5 15.4 24.5 17.8 24.5 30.5 32.5 27.9 32.5 15.4"/>
    <polygon class="st43" points="24.5 31.5 24.5 40.2 32.5 37.5 32.5 28.9 24.5 31.5"/>
    <polygon class="st48" points="32.5 14.3 32.5 9.6 24.5 11.6 24.5 16.7 32.5 14.3"/>
    <polygon class="st41" points="42.5 24.9 34.5 27.6 34.5 31 42.5 28.3 42.5 24.9"/>
    <polygon class="st40" points="34.5 32.1 34.5 36.9 42.5 34.1 42.5 29.4 34.5 32.1"/>
    <polygon class="st39" points="42.5 23.9 42.5 20.7 34.5 22.7 34.5 26.5 42.5 23.9"/>
    <path class="st37" d="M11,48.2l32-10.7v-1l1.8.6-1.8,1.7v-1.3l-31.8,11h-.2v-.3ZM11,17.7l-1,.3,1.2-2.3,1.1,1.7-1.3.3v.6-.6Z"/>
    <path class="st47" d="M11.2,16.7l.2.3h-.5c0,.1.3-.3.3-.3M11.1,14.7l-2.1,4,1.5-.4v30.2c0,.2.1.3.2.4.1,0,.2,0,.3,0h.4l31.1-10.7v1.7l3.3-3-3.3-1v1.3l-31,10.3v-29.5l1.5-.4-1.9-3h0Z"/>
    <path class="st36" d="M14,37c-2-1-1.2-3.4-1-4l11-16,9,4,7-10c.5-.8,3.2-.6,4,0,.8.5,1.6,3.2,1,4l-11,15-8-5-9,12c-.3.5-1.3.9-3,0Z"/>
    <polyline class="st35" points="15 35 25 21 33 26 42 13"/>
  </g>
  <g>
    <g id="company_icon">
      <polygon class="st2" points="31.4 49.9 31.4 25.7 40.7 29.4 40.7 49.9 31.4 49.9"/>
      <polygon class="st2" points="40.7 49.9 40.7 35 50 38.7 50 49.9 40.7 49.9"/>
      <polygon class="st2" points="40.7 35 40.7 29.4 31.4 25.7 31.4 49.9 40.7 49.9 50 49.9 50 38.7 40.7 35"/>
      <rect class="st3" x="30.5" y="49.9" width="20.5" height=".9"/>
      <rect class="st2" x="33.2" y="46.1" width="1.9" height="1.9"/>
      <rect class="st2" x="33.2" y="42.4" width="1.9" height="1.9"/>
      <rect class="st2" x="33.2" y="38.7" width="1.9" height="1.9"/>
      <rect class="st2" x="33.2" y="35" width="1.9" height="1.9"/>
      <rect class="st2" x="33.2" y="31.3" width="1.9" height="1.9"/>
      <rect class="st2" x="37" y="46.1" width="1.9" height="1.9"/>
      <rect class="st2" x="37" y="42.4" width="1.9" height="1.9"/>
      <rect class="st2" x="42.5" y="46.1" width="1.9" height="1.9"/>
      <rect class="st2" x="42.5" y="42.4" width="1.9" height="1.9"/>
      <rect class="st2" x="42.5" y="38.7" width="1.9" height="1.9"/>
      <rect class="st2" x="46.3" y="46.1" width="1.9" height="1.9"/>
      <rect class="st2" x="46.3" y="42.4" width="1.9" height="1.9"/>
      <rect class="st2" x="37" y="38.7" width="1.9" height="1.9"/>
      <rect class="st2" x="37" y="35" width="1.9" height="1.9"/>
      <rect class="st2" x="37" y="31.3" width="1.9" height="1.9"/>
    </g>
    <g>
      <g class="st49">
        <g>
          <path class="st36" d="M55.9,52.4h-9.6v-11.1h-2.8s0-1.9,0-1.9h2.8c1,0,1.8.8,1.8,1.8v9.3h7.8c.3,0,.6.3.6.6v.6c0,.3-.3.6-.6.6Z"/>
          <circle class="st36" cx="47.1" cy="51" r="2.3"/>
          <rect class="st36" x="50" y="45" width="5.6" height="3.7"/>
          <rect class="st36" x="50" y="39.4" width="5.6" height="3.7"/>
          <rect class="st36" x="51.8" y="39.4" width="1.9" height="1.9"/>
          <rect class="st36" x="51.8" y="45" width="1.9" height="1.9"/>
        </g>
        <g>
          <path class="st29" d="M55.9,52.4h-9.6v-11.1h-2.8s0-1.9,0-1.9h2.8c1,0,1.8.8,1.8,1.8v9.3h7.8c.3,0,.6.3.6.6v.6c0,.3-.3.6-.6.6Z"/>
          <circle class="st25" cx="47.1" cy="51" r="2.3"/>
          <rect class="st27" x="50" y="45" width="5.6" height="3.7"/>
          <rect class="st10" x="50" y="39.4" width="5.6" height="3.7"/>
          <rect class="st23" x="51.8" y="39.4" width="1.9" height="1.9"/>
          <rect class="st18" x="51.8" y="45" width="1.9" height="1.9"/>
        </g>
        <g>
          <path class="st21" d="M55.9,52.4h-9.6v-11.1h-2.8s0-1.9,0-1.9h2.8c1,0,1.8.8,1.8,1.8v9.3h7.8c.3,0,.6.3.6.6v.6c0,.3-.3.6-.6.6Z"/>
          <circle class="st21" cx="47.1" cy="51" r="2.3"/>
          <rect class="st21" x="50" y="45" width="5.6" height="3.7"/>
          <rect class="st21" x="50" y="39.4" width="5.6" height="3.7"/>
          <rect class="st21" x="51.8" y="39.4" width="1.9" height="1.9"/>
          <rect class="st21" x="51.8" y="45" width="1.9" height="1.9"/>
        </g>
      </g>
      <g>
        <path class="st3" d="M55.9,52.4h-9.6v-11.1h-2.8s0-1.9,0-1.9h2.8c1,0,1.8.8,1.8,1.8v9.3h7.8c.3,0,.6.3.6.6v.6c0,.3-.3.6-.6.6Z"/>
        <circle class="st3" cx="47.1" cy="51" r="2.3"/>
        <rect class="st3" x="50" y="45" width="5.6" height="3.7"/>
        <rect class="st3" x="50" y="39.6" width="5.6" height="3.7"/>
        <rect class="st3" x="51.8" y="39.6" width="1.9" height="1.9"/>
        <rect class="st3" x="51.8" y="45" width="1.9" height="1.9"/>
      </g>
    </g>
  </g>
  <g>
    <g id="company_icon1" data-name="company_icon">
      <polygon class="st17" points="31.4 49.9 31.4 25.7 40.7 29.4 40.7 49.9 31.4 49.9"/>
      <polygon class="White_x0020_TOP_x0020_2" points="40.7 49.9 40.7 35 50 38.7 50 49.9 40.7 49.9"/>
      <polygon class="st5" points="40.7 35 40.7 29.4 31.4 25.7 31.4 49.9 40.7 49.9 50 49.9 50 38.7 40.7 35"/>
      <rect class="st32" x="30.5" y="49.9" width="20.5" height=".9"/>
      <rect class="st31" x="33.2" y="46.1" width="1.9" height="1.9"/>
      <rect class="st12" x="33.2" y="42.4" width="1.9" height="1.9"/>
      <rect class="st20" x="33.2" y="38.7" width="1.9" height="1.9"/>
      <rect class="st7" x="33.2" y="35" width="1.9" height="1.9"/>
      <rect class="st8" x="33.2" y="31.3" width="1.9" height="1.9"/>
      <rect class="st24" x="37" y="46.1" width="1.9" height="1.9"/>
      <rect class="st14" x="37" y="42.4" width="1.9" height="1.9"/>
      <rect class="st4" x="42.5" y="46.1" width="1.9" height="1.9"/>
      <rect class="st26" x="42.5" y="42.4" width="1.9" height="1.9"/>
      <rect class="st0" x="42.5" y="38.7" width="1.9" height="1.9"/>
      <rect class="st33" x="46.3" y="46.1" width="1.9" height="1.9"/>
      <rect class="st15" x="46.3" y="42.4" width="1.9" height="1.9"/>
      <rect class="st13" x="37" y="38.7" width="1.9" height="1.9"/>
      <rect class="st16" x="37" y="35" width="1.9" height="1.9"/>
      <rect class="st22" x="37" y="31.3" width="1.9" height="1.9"/>
    </g>
    <g>
      <g class="st49">
        <g>
          <path class="st36" d="M55.9,52.4h-9.6v-11.1h-2.8s0-1.9,0-1.9h2.8c1,0,1.8.8,1.8,1.8v9.3h7.8c.3,0,.6.3.6.6v.6c0,.3-.3.6-.6.6Z"/>
          <circle class="st36" cx="47.1" cy="51" r="2.3"/>
          <rect class="st36" x="50" y="45" width="5.6" height="3.7"/>
          <rect class="st36" x="50" y="39.4" width="5.6" height="3.7"/>
          <rect class="st36" x="51.8" y="39.4" width="1.9" height="1.9"/>
          <rect class="st36" x="51.8" y="45" width="1.9" height="1.9"/>
        </g>
        <g>
          <path class="st29" d="M55.9,52.4h-9.6v-11.1h-2.8s0-1.9,0-1.9h2.8c1,0,1.8.8,1.8,1.8v9.3h7.8c.3,0,.6.3.6.6v.6c0,.3-.3.6-.6.6Z"/>
          <circle class="st25" cx="47.1" cy="51" r="2.3"/>
          <rect class="st27" x="50" y="45" width="5.6" height="3.7"/>
          <rect class="st19" x="50" y="39.4" width="5.6" height="3.7"/>
          <rect class="st1" x="51.8" y="39.4" width="1.9" height="1.9"/>
          <rect class="st30" x="51.8" y="45" width="1.9" height="1.9"/>
        </g>
        <g>
          <path class="st6" d="M55.9,52.4h-9.6v-11.1h-2.8s0-1.9,0-1.9h2.8c1,0,1.8.8,1.8,1.8v9.3h7.8c.3,0,.6.3.6.6v.6c0,.3-.3.6-.6.6Z"/>
          <circle class="st6" cx="47.1" cy="51" r="2.3"/>
          <rect class="st6" x="50" y="45" width="5.6" height="3.7"/>
          <rect class="st6" x="50" y="39.4" width="5.6" height="3.7"/>
          <rect class="st6" x="51.8" y="39.4" width="1.9" height="1.9"/>
          <rect class="st6" x="51.8" y="45" width="1.9" height="1.9"/>
        </g>
      </g>
      <g>
        <path class="st29" d="M55.9,52.4h-9.6v-11.1h-2.8s0-1.9,0-1.9h2.8c1,0,1.8.8,1.8,1.8v9.3h7.8c.3,0,.6.3.6.6v.6c0,.3-.3.6-.6.6Z"/>
        <circle class="st25" cx="47.1" cy="51" r="2.3"/>
        <rect class="st27" x="50" y="45" width="5.6" height="3.7"/>
        <rect class="st28" x="50" y="39.6" width="5.6" height="3.7"/>
        <rect class="st11" x="51.8" y="39.6" width="1.9" height="1.9"/>
        <rect class="st9" x="51.8" y="45" width="1.9" height="1.9"/>
      </g>
    </g>
  </g>
  <text class="st45" transform="translate(960 540)"><tspan x="0" y="0">https://icons.dsone.3ds.com/resources/icon-orders/4951</tspan></text>
</svg>