<?xml version="1.0" encoding="UTF-8"?>
<svg id="Layer_1" xmlns="http://www.w3.org/2000/svg" version="1.1" xmlns:xlink="http://www.w3.org/1999/xlink" viewBox="0 0 64 64">
  <!-- Generator: Adobe Illustrator 29.8.1, SVG Export Plug-In . SVG Version: 2.1.1 Build 2)  -->
  <defs>
    <style>
      .st0 {
        fill: #646464;
      }

      .st1 {
        fill: url(#linear-gradient2);
      }

      .st2 {
        fill: url(#linear-gradient10);
      }

      .st3 {
        fill: url(#linear-gradient21);
      }

      .st4 {
        fill: url(#linear-gradient27);
      }

      .st5 {
        fill: url(#linear-gradient26);
      }

      .st6 {
        fill: url(#linear-gradient1);
      }

      .st7 {
        fill: url(#linear-gradient9);
      }

      .st8 {
        fill: url(#linear-gradient18);
      }

      .st9 {
        fill: url(#linear-gradient23);
      }

      .st10 {
        fill: url(#linear-gradient8);
      }

      .st11 {
        fill: url(#linear-gradient11);
      }

      .st12 {
        fill: url(#linear-gradient16);
      }

      .st13 {
        fill: url(#linear-gradient24);
      }

      .st14 {
        fill: url(#linear-gradient22);
      }

      .st15 {
        fill: url(#linear-gradient19);
      }

      .st16 {
        fill: url(#linear-gradient12);
      }

      .st17 {
        fill: url(#linear-gradient28);
      }

      .st18 {
        fill: url(#linear-gradient7);
      }

      .st19 {
        fill: url(#linear-gradient20);
      }

      .st20 {
        fill: url(#linear-gradient4);
      }

      .st21 {
        fill: #f1f2f2;
        opacity: .5;
        stroke: #fff;
        stroke-width: 2px;
      }

      .st21, .st22 {
        fill-rule: evenodd;
      }

      .st21, .st23 {
        stroke-miterlimit: 10;
      }

      .st24 {
        filter: url(#DS_GaussianBlur_2);
        opacity: .2;
      }

      .st25 {
        fill: url(#linear-gradient14);
      }

      .st26 {
        fill: url(#linear-gradient5);
      }

      .st27 {
        fill: url(#linear-gradient3);
      }

      .st22 {
        fill: url(#linear-gradient29);
      }

      .st28 {
        fill: url(#linear-gradient25);
      }

      .st29 {
        fill: url(#linear-gradient15);
      }

      .st30 {
        fill: url(#linear-gradient17);
      }

      .st31 {
        fill: url(#linear-gradient6);
      }

      .st32 {
        fill: url(#linear-gradient13);
      }

      .st33 {
        fill: url(#linear-gradient);
      }

      .st34 {
        fill: #787878;
      }

      .st23 {
        fill: none;
        stroke: #053755;
        stroke-width: 1.1px;
      }

      .st35 {
        fill: #323232;
      }
    </style>
    <linearGradient id="linear-gradient" x1="17" y1="8.3" x2="46" y2="58.6" gradientUnits="userSpaceOnUse">
      <stop offset="0" stop-color="#fff"/>
      <stop offset="1" stop-color="#d4d5d3"/>
    </linearGradient>
    <filter id="DS_GaussianBlur_2" x="-50%" y="-50%" width="200%" height="200%">
      <feGaussianBlur stdDeviation="1"/>
    </filter>
    <linearGradient id="linear-gradient1" x1="46" y1="15" x2="43.1" y2="17.9" gradientUnits="userSpaceOnUse">
      <stop offset="0" stop-color="#f5f5f5"/>
      <stop offset="1" stop-color="#bebebe"/>
    </linearGradient>
    <linearGradient id="linear-gradient2" x1="20.1" y1="16.6" x2="21.2" y2="18.4" gradientUnits="userSpaceOnUse">
      <stop offset="0" stop-color="#3387af"/>
      <stop offset="1" stop-color="#285a78"/>
    </linearGradient>
    <linearGradient id="linear-gradient3" y1="29.6" x2="21.2" y2="31.4" xlink:href="#linear-gradient2"/>
    <linearGradient id="linear-gradient4" x1="10.9" y1="196.1" x2="21.3" y2="214.3" gradientTransform="translate(0 -160)" gradientUnits="userSpaceOnUse">
      <stop offset="0" stop-color="#f5f5f5"/>
      <stop offset="1" stop-color="#bebebe"/>
    </linearGradient>
    <linearGradient id="linear-gradient5" x1="13.9" y1="196.4" x2="25.7" y2="216.9" gradientTransform="translate(0 -160)" gradientUnits="userSpaceOnUse">
      <stop offset="0" stop-color="#fff"/>
      <stop offset="1" stop-color="#d2d2d2"/>
    </linearGradient>
    <linearGradient id="linear-gradient6" x1="24.5" y1="204" x2="32.4" y2="217.8" xlink:href="#linear-gradient5"/>
    <linearGradient id="linear-gradient7" x1="20" y1="212.6" x2="25.9" y2="222.8" xlink:href="#linear-gradient5"/>
    <linearGradient id="linear-gradient8" x1="17.9" y1="199.8" x2="19" y2="201.8" gradientTransform="translate(0 -160)" gradientUnits="userSpaceOnUse">
      <stop offset="0" stop-color="#aaa"/>
      <stop offset="1" stop-color="#5a5a5a"/>
    </linearGradient>
    <linearGradient id="linear-gradient9" x1="21.1" y1="199.8" x2="22.3" y2="201.8" xlink:href="#linear-gradient8"/>
    <linearGradient id="linear-gradient10" x1="17.9" y1="204" x2="19" y2="205.9" xlink:href="#linear-gradient8"/>
    <linearGradient id="linear-gradient11" x1="21.1" y1="204" x2="22.3" y2="205.9" xlink:href="#linear-gradient8"/>
    <linearGradient id="linear-gradient12" x1="17.9" y1="207.2" x2="19" y2="209.2" xlink:href="#linear-gradient8"/>
    <linearGradient id="linear-gradient13" x1="21.1" y1="207.2" x2="22.3" y2="209.2" xlink:href="#linear-gradient8"/>
    <linearGradient id="linear-gradient14" x1="17.9" y1="210.5" x2="19" y2="212.5" xlink:href="#linear-gradient8"/>
    <linearGradient id="linear-gradient15" x1="21.1" y1="210.5" x2="22.3" y2="212.5" xlink:href="#linear-gradient8"/>
    <linearGradient id="linear-gradient16" x1="17.9" y1="213.8" x2="19" y2="215.8" xlink:href="#linear-gradient8"/>
    <linearGradient id="linear-gradient17" x1="21.1" y1="213.8" x2="22.3" y2="215.8" xlink:href="#linear-gradient8"/>
    <linearGradient id="linear-gradient18" x1="26.9" y1="207.2" x2="28" y2="209.2" xlink:href="#linear-gradient8"/>
    <linearGradient id="linear-gradient19" x1="26.9" y1="210.5" x2="28" y2="212.5" xlink:href="#linear-gradient8"/>
    <linearGradient id="linear-gradient20" x1="30.2" y1="210.5" x2="31.3" y2="212.5" xlink:href="#linear-gradient8"/>
    <linearGradient id="linear-gradient21" x1="26.9" y1="213.8" x2="28" y2="215.8" xlink:href="#linear-gradient8"/>
    <linearGradient id="linear-gradient22" x1="30.2" y1="213.8" x2="31.3" y2="215.8" xlink:href="#linear-gradient8"/>
    <linearGradient id="linear-gradient23" x1="14" y1="200.2" x2="14.7" y2="201.5" gradientTransform="translate(0 -160)" gradientUnits="userSpaceOnUse">
      <stop offset="0" stop-color="#fff"/>
      <stop offset="1" stop-color="#d4d5d3"/>
    </linearGradient>
    <linearGradient id="linear-gradient24" x1="14" y1="196.9" x2="14.7" y2="198.2" xlink:href="#linear-gradient23"/>
    <linearGradient id="linear-gradient25" x1="14" y1="204.3" x2="14.7" y2="205.6" xlink:href="#linear-gradient23"/>
    <linearGradient id="linear-gradient26" x1="14" y1="207.6" x2="14.7" y2="208.9" xlink:href="#linear-gradient23"/>
    <linearGradient id="linear-gradient27" x1="14" y1="210.9" x2="14.7" y2="212.2" xlink:href="#linear-gradient23"/>
    <linearGradient id="linear-gradient28" x1="14" y1="214.2" x2="14.7" y2="215.4" xlink:href="#linear-gradient23"/>
    <linearGradient id="linear-gradient29" x1="52.7" y1="56.9" x2="44" y2="41.8" gradientUnits="userSpaceOnUse">
      <stop offset="0" stop-color="#161616"/>
      <stop offset="1" stop-color="#515151"/>
    </linearGradient>
  </defs>
  <polygon class="st33" points="15.8 55 15.8 9 40.7 9 52.2 20.5 52.2 55 15.8 55"/>
  <rect class="st0" x="26" y="14" width="11" height="1"/>
  <rect class="st0" x="26" y="17" width="23" height="1"/>
  <rect class="st0" x="26" y="20" width="23" height="1"/>
  <rect class="st0" x="26" y="27" width="23" height="1"/>
  <rect class="st0" x="26" y="30" width="23" height="1"/>
  <rect class="st0" x="26" y="33" width="23" height="1"/>
  <rect class="st0" x="26" y="43" width="23" height="1"/>
  <rect class="st0" x="26" y="40" width="23" height="1"/>
  <rect class="st0" x="26" y="46" width="23" height="1"/>
  <g class="st24">
    <path d="M41.7,22c-.9,0-1.9-.9-1.9-1.7v-11.3l12.5,10.5,1,2.6h-11.5Z"/>
  </g>
  <g>
    <path class="st6" d="M40,21.5c-.3,0-.5-.2-.5-.5v-12.5h1.3l11.7,11.7v1.3h-12.5Z"/>
    <path class="st34" d="M40.6,9l11.4,11.4v.6h-12v-12h.6M41,8h-2v13c0,.5.4,1,1,1h13v-2l-12-12h0Z"/>
  </g>
  <path class="st35" d="M40.6,9l11.4,11.4v34.6H16V9h24.6M41,8H16c-.5,0-1,.4-1,1v46.1c0,.5.4,1,1,1h36.1c.5,0,1-.4,1-1V20l-12-12h0Z"/>
  <g>
    <polygon class="st1" points="19.9 19.2 18.5 17.8 19.1 17.2 19.9 18 21.9 16 22.5 16.6 19.9 19.2"/>
    <rect class="st23" x="17.5" y="14.5" width="6" height="6"/>
  </g>
  <g>
    <polygon class="st27" points="19.9 32.2 18.5 30.8 19.1 30.2 19.9 31 21.9 29 22.5 29.6 19.9 32.2"/>
    <rect class="st23" x="17.5" y="27.5" width="6" height="6"/>
  </g>
  <g>
    <polygon class="st20" points="12.7 57.3 12.7 35.1 15.6 35.1 22 37.5 16.2 57.3 12.7 57.3"/>
    <path class="st34" d="M15.6,35.5l6,2.2-5.6,19.1h-2.8v-21.4h2.5M15.7,34.7h-3.4v23h4.3l6-20.4-6.8-2.6s0,0,0,0Z"/>
    <polygon class="st26" points="16 57.3 16 35.3 25 38.4 25 57.3 16 57.3"/>
    <path class="st34" d="M16.4,35.8l8.2,2.8v18.2h-8.2v-21M15.6,34.7v23h9.9v-19.6l-9.9-3.4Z"/>
    <polygon class="st31" points="25 57.3 25 43.7 33.2 46.8 33.2 57.3 25 57.3"/>
    <path class="st34" d="M25.4,44.3l7.4,2.9v9.8h-7.4v-12.6M24.6,43.1v14.6h9c0,0,0-11.1,0-11.1l-9-3.5Z"/>
    <rect class="st18" x="11.9" y="57.3" width="22.2" height=".8"/>
    <path class="st34" d="M33.6,57.7H12.3h21.4M34.5,56.9H11.5v1.6h23v-1.6Z"/>
    <path class="st35" d="M15.6,35.5l9,3.2v5.3l.5.2,7.7,3v10.5H13.1v-22.2h2.5M15.8,34.7h-3.5v22.2h-.8v1.6h23v-1.6h-.8v-10.3l-8.2-3.2v-5.3l-9.6-3.4Z"/>
    <rect class="st10" x="17.6" y="40" width="1.7" height="1.7"/>
    <path class="st35" d="M18.8,40.4v.8h-.8v-.8h.8M19.7,39.6h-2.5v2.5h2.5v-2.5Z"/>
    <polygon class="st34" points="19.7 39.6 17.2 39.6 17.2 40.4 19.7 40.4 19.7 39.6"/>
    <rect class="st7" x="20.9" y="40" width="1.7" height="1.7"/>
    <path class="st35" d="M22.1,40.4v.8h-.8v-.8h.8M23,39.6h-2.5v2.5h2.5v-2.5Z"/>
    <polygon class="st34" points="23 39.6 20.5 39.6 20.5 40.4 23 40.4 23 39.6"/>
    <rect class="st2" x="17.6" y="44.1" width="1.7" height="1.7"/>
    <path class="st35" d="M18.8,44.5v.8h-.8v-.8h.8M19.7,43.7h-2.5v2.5h2.5v-2.5Z"/>
    <polygon class="st34" points="19.7 42.9 17.2 42.9 17.2 43.7 19.7 43.7 19.7 42.9"/>
    <rect class="st11" x="20.9" y="44.1" width="1.7" height="1.7"/>
    <path class="st35" d="M22.1,44.5v.8h-.8v-.8h.8M23,43.7h-2.5v2.5h2.5v-2.5Z"/>
    <polygon class="st34" points="23 42.9 20.5 42.9 20.5 43.7 23 43.7 23 42.9"/>
    <rect class="st16" x="17.6" y="47.4" width="1.7" height="1.7"/>
    <path class="st35" d="M18.8,47.8v.8h-.8v-.8h.8M19.7,47h-2.5v2.5h2.5v-2.5Z"/>
    <polygon class="st34" points="19.7 47 17.2 47 17.2 47.8 19.7 47.8 19.7 47"/>
    <rect class="st32" x="20.9" y="47.4" width="1.7" height="1.7"/>
    <path class="st35" d="M22.1,47.8v.8h-.8v-.8h.8M23,47h-2.5v2.5h2.5v-2.5Z"/>
    <polygon class="st34" points="23 47 20.5 47 20.5 47.8 23 47.8 23 47"/>
    <rect class="st25" x="17.6" y="50.7" width="1.7" height="1.7"/>
    <path class="st35" d="M18.8,51.1v.8h-.8v-.8h.8M19.7,50.3h-2.5v2.5h2.5v-2.5Z"/>
    <polygon class="st34" points="19.7 50.3 17.2 50.3 17.2 51.1 19.7 51.1 19.7 50.3"/>
    <rect class="st29" x="20.9" y="50.7" width="1.7" height="1.7"/>
    <path class="st35" d="M22.1,51.1v.8h-.8v-.8h.8M23,50.3h-2.5v2.5h2.5v-2.5Z"/>
    <polygon class="st34" points="23 50.3 20.5 50.3 20.5 51.1 23 51.1 23 50.3"/>
    <rect class="st12" x="17.6" y="54" width="1.7" height="1.7"/>
    <path class="st35" d="M18.8,54.4v.8h-.8v-.8h.8M19.7,53.6h-2.5v2.5h2.5v-2.5Z"/>
    <polygon class="st34" points="19.7 53.6 17.2 53.6 17.2 54.4 19.7 54.4 19.7 53.6"/>
    <rect class="st30" x="20.9" y="54" width="1.7" height="1.7"/>
    <path class="st35" d="M22.1,54.4v.8h-.8v-.8h.8M23,53.6h-2.5v2.5h2.5v-2.5Z"/>
    <polygon class="st34" points="23 53.6 20.5 53.6 20.5 54.4 23 54.4 23 53.6"/>
    <rect class="st8" x="26.6" y="47.4" width="1.7" height="1.7"/>
    <path class="st35" d="M27.9,47.8v.8h-.8v-.8h.8M28.7,47h-2.5v2.5h2.5v-2.5Z"/>
    <polygon class="st34" points="28.7 47 26.2 47 26.2 47.8 28.7 47.8 28.7 47"/>
    <rect class="st15" x="26.6" y="50.7" width="1.7" height="1.7"/>
    <path class="st35" d="M27.9,51.1v.8h-.8v-.8h.8M28.7,50.3h-2.5v2.5h2.5v-2.5Z"/>
    <polygon class="st34" points="28.7 50.3 26.2 50.3 26.2 51.1 28.7 51.1 28.7 50.3"/>
    <rect class="st19" x="29.9" y="50.7" width="1.7" height="1.7"/>
    <path class="st35" d="M31.2,51.1v.8h-.8v-.8h.8M32,50.3h-2.5v2.5h2.5v-2.5Z"/>
    <polygon class="st34" points="32 50.3 29.5 50.3 29.5 51.1 32 51.1 32 50.3"/>
    <rect class="st3" x="26.6" y="54" width="1.7" height="1.7"/>
    <path class="st35" d="M27.9,54.4v.8h-.8v-.8h.8M28.7,53.6h-2.5v2.5h2.5v-2.5Z"/>
    <polygon class="st34" points="28.7 53.6 26.2 53.6 26.2 54.4 28.7 54.4 28.7 53.6"/>
    <rect class="st14" x="29.9" y="54" width="1.7" height="1.7"/>
    <path class="st35" d="M31.2,54.4v.8h-.8v-.8h.8M32,53.6h-2.5v2.5h2.5v-2.5Z"/>
    <polygon class="st34" points="32 53.6 29.5 53.6 29.5 54.4 32 54.4 32 53.6"/>
    <rect class="st9" x="14.3" y="40" width="0" height="1.7"/>
    <polygon class="st35" points="14.7 39.6 13.9 39.6 13.9 42.1 14.7 42.1 14.7 39.6"/>
    <polygon class="st34" points="14.7 39.6 13.9 39.6 13.9 40.4 14.7 40.4 14.7 39.6"/>
    <rect class="st13" x="14.3" y="36.7" width="0" height="1.7"/>
    <polygon class="st35" points="14.7 36.3 13.9 36.3 13.9 38.8 14.7 38.8 14.7 36.3"/>
    <polygon class="st34" points="14.7 36.3 13.9 36.3 13.9 37.1 14.7 37.1 14.7 36.3"/>
    <rect class="st28" x="14.3" y="44.1" width="0" height="1.7"/>
    <polygon class="st35" points="14.7 43.7 13.9 43.7 13.9 46.2 14.7 46.2 14.7 43.7"/>
    <polygon class="st34" points="14.7 42.9 13.9 42.9 13.9 43.7 14.7 43.7 14.7 42.9"/>
    <rect class="st5" x="14.3" y="47.4" width="0" height="1.7"/>
    <polygon class="st35" points="14.7 47 13.9 47 13.9 49.5 14.7 49.5 14.7 47"/>
    <polygon class="st34" points="14.7 47 13.9 47 13.9 47.8 14.7 47.8 14.7 47"/>
    <rect class="st4" x="14.3" y="50.7" width="0" height="1.7"/>
    <polygon class="st35" points="14.7 50.3 13.9 50.3 13.9 52.8 14.7 52.8 14.7 50.3"/>
    <polygon class="st34" points="14.7 50.3 13.9 50.3 13.9 51.1 14.7 51.1 14.7 50.3"/>
    <rect class="st17" x="14.3" y="54" width="0" height="1.7"/>
    <polygon class="st35" points="14.7 53.6 13.9 53.6 13.9 56 14.7 56 14.7 53.6"/>
    <polygon class="st34" points="14.7 53.6 13.9 53.6 13.9 54.4 14.7 54.4 14.7 53.6"/>
  </g>
  <path class="st21" d="M56.6,47.7l-3-.4,1.7-2.6c.1-.2.1-.5,0-.7l-1.6-1.6c-.2-.2-.5-.2-.7,0l-2.6,1.7-.4-3c0-.3-.3-.5-.5-.5h-2.2c-.3,0-.5.2-.5.5l-.4,3-2.6-1.7c-.2-.1-.5-.1-.7,0l-1.6,1.6c-.2.2-.2.5,0,.7l1.7,2.6-3,.4c-.3,0-.5.3-.5.5v2.2c0,.3.2.5.5.5l3,.4-1.7,2.6c-.1.2-.1.5,0,.7l1.6,1.6c.2.2.5.2.7,0l2.6-1.7.4,3c0,.3.3.5.5.5h2.2c.3,0,.5-.2.5-.5l.4-3,2.6,1.7c.2.1.5.1.7,0l1.6-1.6c.2-.2.2-.5,0-.7l-1.7-2.6,3-.4c.3,0,.5-.3.5-.5v-2.2c0-.3-.2-.5-.5-.5ZM48.3,52c-1.5,0-2.7-1.2-2.7-2.7s1.2-2.7,2.7-2.7,2.7,1.2,2.7,2.7-1.2,2.7-2.7,2.7Z"/>
  <path class="st22" d="M56.6,47.7l-3-.4,1.7-2.6c.1-.2.1-.5,0-.7l-1.6-1.6c-.2-.2-.5-.2-.7,0l-2.6,1.7-.4-3c0-.3-.3-.5-.5-.5h-2.2c-.3,0-.5.2-.5.5l-.4,3-2.6-1.7c-.2-.1-.5-.1-.7,0l-1.6,1.6c-.2.2-.2.5,0,.7l1.7,2.6-3,.4c-.3,0-.5.3-.5.5v2.2c0,.3.2.5.5.5l3,.4-1.7,2.6c-.1.2-.1.5,0,.7l1.6,1.6c.2.2.5.2.7,0l2.6-1.7.4,3c0,.3.3.5.5.5h2.2c.3,0,.5-.2.5-.5l.4-3,2.6,1.7c.2.1.5.1.7,0l1.6-1.6c.2-.2.2-.5,0-.7l-1.7-2.6,3-.4c.3,0,.5-.3.5-.5v-2.2c0-.3-.2-.5-.5-.5ZM48.3,52c-1.5,0-2.7-1.2-2.7-2.7s1.2-2.7,2.7-2.7,2.7,1.2,2.7,2.7-1.2,2.7-2.7,2.7Z"/>
</svg>