<?xml version="1.0" encoding="UTF-8"?>
<svg id="IT_1" data-name="IT 1" xmlns="http://www.w3.org/2000/svg" viewBox="0 0 64 64">
  <g opacity=".75">
    <path d="M38.5,44.5c-7.49,0-14.31-4.43-17.36-11.3-.07-.15-.05-.33.04-.48s.25-.23.42-.23h11.09c.11,0,.22.04.31.1,1.6,1.24,3.5,1.9,5.51,1.9,4.96,0,9-4.04,9-9s-4.04-9-9-9c-2.01,0-3.91.66-5.51,1.9-.09.07-.2.1-.31.1h-11.09c-.17,0-.33-.09-.42-.23s-.11-.32-.04-.48c3.05-6.86,9.86-11.3,17.36-11.3,10.48,0,19,8.52,19,19s-8.52,19-19,19Z" fill="#fff"/>
    <path d="M38.5,7c10.22,0,18.5,8.28,18.5,18.5s-8.28,18.5-18.5,18.5c-7.54,0-14.02-4.52-16.9-11h11.09c1.61,1.25,3.62,2,5.82,2,5.25,0,9.5-4.25,9.5-9.5s-4.25-9.5-9.5-9.5c-2.19,0-4.21.75-5.82,2h-11.09c2.88-6.48,9.36-11,16.9-11M38.5,6c-7.69,0-14.69,4.55-17.82,11.59-.14.31-.11.67.08.95.18.28.5.46.84.46h11.09c.22,0,.44-.07.61-.21,1.51-1.17,3.31-1.79,5.2-1.79,4.69,0,8.5,3.81,8.5,8.5s-3.81,8.5-8.5,8.5c-1.9,0-3.7-.62-5.2-1.79-.18-.14-.39-.21-.61-.21h-11.09c-.34,0-.65.17-.84.46-.18.28-.21.64-.08.95,3.13,7.04,10.12,11.59,17.82,11.59,10.75,0,19.5-8.75,19.5-19.5S49.25,6,38.5,6h0Z" fill="#fff"/>
  </g>
  <g opacity=".75">
    <path d="M25.5,57.5c-10.48,0-19-8.52-19-19s8.52-19,19-19c7.5,0,14.31,4.43,17.36,11.3.07.15.05.33-.04.48-.09.14-.25.23-.42.23h-11.09c-.11,0-.22-.04-.31-.1-1.6-1.24-3.5-1.9-5.51-1.9-4.96,0-9,4.04-9,9s4.04,9,9,9c2.01,0,3.91-.66,5.51-1.89.09-.07.2-.11.31-.11h11.09c.17,0,.33.09.42.23.09.14.11.32.04.48-3.05,6.86-9.86,11.3-17.36,11.3Z" fill="#fff"/>
    <path d="M25.5,20c7.54,0,14.02,4.52,16.9,11h-11.09c-1.61-1.25-3.62-2-5.82-2-5.25,0-9.5,4.25-9.5,9.5s4.25,9.5,9.5,9.5c2.19,0,4.21-.75,5.82-2h11.09c-2.88,6.48-9.36,11-16.9,11-10.22,0-18.5-8.28-18.5-18.5s8.28-18.5,18.5-18.5M25.5,19c-10.75,0-19.5,8.75-19.5,19.5s8.75,19.5,19.5,19.5c7.69,0,14.69-4.55,17.82-11.59.14-.31.11-.67-.08-.95-.18-.28-.5-.46-.84-.46h-11.09c-.22,0-.44.07-.61.21-1.51,1.17-3.31,1.79-5.2,1.79-4.69,0-8.5-3.81-8.5-8.5s3.81-8.5,8.5-8.5c1.9,0,3.7.62,5.2,1.79.18.14.39.21.61.21h11.09c.34,0,.65-.17.84-.46.18-.28.21-.64.08-.95-3.13-7.04-10.12-11.59-17.82-11.59h0Z" fill="#fff"/>
  </g>
  <path d="M38.5,7c-7.54,0-14.02,4.52-16.9,11h11.09c1.61-1.25,3.62-2,5.82-2,5.25,0,9.5,4.25,9.5,9.5s-4.25,9.5-9.5,9.5c-2.19,0-4.21-.75-5.82-2h-11.09c2.88,6.48,9.36,11,16.9,11,10.22,0,18.5-8.28,18.5-18.5S48.72,7,38.5,7Z" fill="#075081"/>
  <path d="M25.5,57c7.54,0,14.02-4.52,16.9-11h-11.09c-1.61,1.25-3.62,2-5.82,2-5.25,0-9.5-4.25-9.5-9.5s4.25-9.5,9.5-9.5c2.19,0,4.21.75,5.82,2h11.09c-2.88-6.48-9.36-11-16.9-11-10.22,0-18.5,8.28-18.5,18.5s8.28,18.5,18.5,18.5Z" fill="#075081"/>
</svg>