<?xml version="1.0" encoding="UTF-8"?>
<svg xmlns="http://www.w3.org/2000/svg" xmlns:xlink="http://www.w3.org/1999/xlink" viewBox="0 0 64 64">
  <defs>
    <style>
      .cls-1 {
        fill: #8dc640;
      }

      .cls-2 {
        fill: #fff;
      }

      .cls-3, .cls-4 {
        fill: none;
      }

      .cls-4 {
        stroke: #2d6d8b;
        stroke-miterlimit: 10;
      }

      .cls-5 {
        fill: #075081;
      }

      .cls-6 {
        opacity: .58;
      }

      .cls-7 {
        clip-path: url(#clippath);
      }
    </style>
    <clipPath id="clippath">
      <path id="v_01_OK_-4" data-name="v 01    OK ***" class="cls-3" d="M57.42,34.8c0-11.69-9.72-15.47-19.88-15.78-13.59-.42-20.21,10.15-20.16,18.48.04,7.1,1.24,20.12,19.58,20.12,14.33,0,20.47-6.94,20.47-22.81Z"/>
    </clipPath>
  </defs>
  <g id="Layer_12_copy" data-name="Layer 12 copy">
    <g id="v_01_OK_" data-name="v 01    OK ***">
      <path class="cls-2" d="M57.42,34.8c0-11.69-9.72-15.47-19.88-15.78-13.59-.42-20.21,10.15-20.16,18.48.04,7.1,1.24,20.12,19.58,20.12,14.33,0,20.47-6.94,20.47-22.81Z"/>
    </g>
    <g id="v_01_OK_-2" data-name="v 01    OK ***" class="cls-6">
      <path class="cls-1" d="M57.42,34.8c0-11.69-9.72-15.47-19.88-15.78-13.59-.42-20.21,10.15-20.16,18.48.04,7.1,1.24,20.12,19.58,20.12,14.33,0,20.47-6.94,20.47-22.81Z"/>
    </g>
    <g id="v_01_OK_-3" data-name="v 01    OK ***" class="cls-6">
      <path class="cls-1" d="M57.42,34.8c0-11.69-9.72-15.47-19.88-15.78-13.59-.42-20.21,10.15-20.16,18.48.04,7.1,1.24,20.12,19.58,20.12,14.33,0,20.47-6.94,20.47-22.81Z"/>
    </g>
    <g class="cls-7">
      <path id="v_01_" data-name="v 01  *" class="cls-4" d="M15.36,52.75c6.35.05,10.91,1.48,23.24-.55,15.11-2.56,22.62-19.63,34.41-19.63"/>
      <path id="v_02_" data-name="v 02  *" class="cls-4" d="M13.63,46.94c6.35.05,10.91,1.48,23.24-.55,15.11-2.56,22.62-19.63,34.41-19.63"/>
      <path id="v_03_" data-name="v 03  *" class="cls-4" d="M11.44,41.3c6.35.05,10.91,1.48,23.24-.55,15.11-2.56,22.62-16.8,34.41-16.8"/>
      <path id="v_03_-2" data-name="v 03  *" class="cls-4" d="M2.5,33.33s9.76,1.19,23.24,1.15c25.65-.08,13.38-10.01,38.96-9.28"/>
      <path id="v_03_-3" data-name="v 03  *" class="cls-4" d="M4.63,22.76s7.24,4.62,20.71,4.57c22.1-.01,10.46-6.05,36.73-1.56"/>
    </g>
    <path id="M_" data-name="M   ***" class="cls-2" d="M22.91,29.71h4.62v2.59c1.65-2.01,3.62-3.02,5.91-3.02,1.21,0,2.27.25,3.16.75.89.5,1.62,1.25,2.19,2.27.83-1.01,1.73-1.77,2.69-2.27.96-.5,1.99-.75,3.09-.75,1.39,0,2.57.28,3.53.85.96.56,1.68,1.39,2.16,2.49.34.81.52,2.12.52,3.92v12.11h-5.01v-10.83c0-1.88-.17-3.09-.52-3.64-.46-.71-1.18-1.07-2.14-1.07-.7,0-1.36.21-1.98.64-.62.43-1.06,1.06-1.34,1.88-.27.83-.41,2.13-.41,3.92v9.1h-5.01v-10.38c0-1.84-.09-3.03-.27-3.57-.18-.54-.45-.93-.83-1.2-.37-.26-.88-.39-1.53-.39-.77,0-1.47.21-2.09.62-.62.42-1.06,1.02-1.33,1.8-.27.78-.4,2.09-.4,3.91v9.21h-5.01v-18.95Z"/>
  </g>
  <g id="FINAL_BADGE" data-name="FINAL BADGE">
    <g>
      <path class="cls-2" d="M29,14.75c0-4-3.25-7.25-7.25-7.25-3.59,0-6.56,2.61-7.14,6.03-3.7.32-6.61,3.43-6.61,7.22,0,4,3.25,7.25,7.25,7.25,3.59,0,6.56-2.61,7.14-6.03,3.7-.32,6.61-3.43,6.61-7.22Z"/>
      <g>
        <path class="cls-5" d="M21.5,24.5c-3.52,0-6.74-2.08-8.2-5.29-.07-.15-.06-.33.04-.48.09-.14.25-.23.42-.23h4.94c.11,0,.22.04.31.11.73.58,1.59.89,2.48.89,2.21,0,4-1.79,4-4s-1.79-4-4-4c-.9,0-1.76.31-2.48.89-.09.07-.2.11-.31.11h-4.94c-.17,0-.33-.09-.42-.23-.09-.14-.1-.32-.04-.48,1.46-3.22,4.67-5.29,8.2-5.29,4.96,0,9,4.04,9,9s-4.04,9-9,9Z"/>
        <path class="cls-2" d="M21.5,7c4.69,0,8.5,3.81,8.5,8.5s-3.81,8.5-8.5,8.5c-3.45,0-6.4-2.05-7.74-5h4.94c.77.62,1.73,1,2.8,1,2.49,0,4.5-2.01,4.5-4.5s-2.01-4.5-4.5-4.5c-1.06,0-2.03.38-2.8,1h-4.94c1.33-2.95,4.29-5,7.74-5M21.5,6c-3.72,0-7.11,2.19-8.65,5.59-.14.31-.11.67.07.95.18.29.5.46.84.46h4.94c.23,0,.45-.08.62-.22.64-.51,1.39-.78,2.17-.78,1.93,0,3.5,1.57,3.5,3.5s-1.57,3.5-3.5,3.5c-.78,0-1.53-.27-2.17-.78-.18-.14-.4-.22-.62-.22h-4.94c-.34,0-.66.17-.84.46-.18.29-.21.65-.07.95,1.54,3.39,4.93,5.59,8.65,5.59,5.24,0,9.5-4.26,9.5-9.5s-4.26-9.5-9.5-9.5h0Z"/>
      </g>
      <g>
        <path class="cls-5" d="M15.5,30.5c-4.96,0-9-4.04-9-9s4.04-9,9-9c3.52,0,6.74,2.08,8.2,5.29.07.15.06.33-.04.48-.09.14-.25.23-.42.23h-4.94c-.11,0-.22-.04-.31-.11-.73-.58-1.59-.89-2.48-.89-2.21,0-4,1.79-4,4s1.79,4,4,4c.9,0,1.76-.31,2.48-.89.09-.07.2-.11.31-.11h4.94c.17,0,.33.09.42.23.09.14.1.32.04.48-1.46,3.22-4.67,5.29-8.2,5.29Z"/>
        <path class="cls-2" d="M15.5,13c3.45,0,6.4,2.05,7.74,5h-4.94c-.77-.62-1.73-1-2.8-1-2.49,0-4.5,2.01-4.5,4.5s2.01,4.5,4.5,4.5c1.06,0,2.03-.38,2.8-1h4.94c-1.33,2.95-4.29,5-7.74,5-4.69,0-8.5-3.81-8.5-8.5s3.81-8.5,8.5-8.5M15.5,12c-5.24,0-9.5,4.26-9.5,9.5s4.26,9.5,9.5,9.5c3.72,0,7.11-2.19,8.65-5.59.14-.31.11-.67-.07-.95-.18-.29-.5-.46-.84-.46h-4.94c-.23,0-.45.08-.62.22-.64.51-1.39.78-2.17.78-1.93,0-3.5-1.57-3.5-3.5s1.57-3.5,3.5-3.5c.78,0,1.53.27,2.17.78.18.14.4.22.62.22h4.94c.34,0,.66-.17.84-.46.18-.29.21-.65.07-.95-1.54-3.39-4.93-5.59-8.65-5.59h0Z"/>
      </g>
    </g>
  </g>
</svg>