<?xml version="1.0" encoding="UTF-8"?>
<svg xmlns="http://www.w3.org/2000/svg" xmlns:xlink="http://www.w3.org/1999/xlink" viewBox="0 0 64 64">
  <defs>
    <linearGradient id="linear-gradient" x1="39.95" y1="38.83" x2="42.99" y2="44.1" gradientTransform="translate(41.47 -17.18) rotate(45)" gradientUnits="userSpaceOnUse">
      <stop offset="0" stop-color="#aaa"/>
      <stop offset="1" stop-color="#5a5a5a"/>
    </linearGradient>
    <linearGradient id="linear-gradient-2" x1="18.77" y1="13.11" x2="34.23" y2="39.89" gradientTransform="translate(1.71 1.22) scale(.94 .95)" gradientUnits="userSpaceOnUse">
      <stop offset="0" stop-color="#fff"/>
      <stop offset="1" stop-color="#f0f0f0"/>
    </linearGradient>
    <linearGradient id="linear-gradient-3" x1="12.04" y1="27.56" x2="16.28" y2="34.9" gradientTransform="translate(19.1 .19) rotate(26.47) scale(.83 1)" gradientUnits="userSpaceOnUse">
      <stop offset="0" stop-color="#3287af"/>
      <stop offset="1" stop-color="#285a78"/>
    </linearGradient>
    <linearGradient id="linear-gradient-4" x1="26.05" y1="16.16" x2="32.46" y2="27.27" gradientTransform="translate(28.79 3.11) rotate(134.28) scale(.83 -.78)" xlink:href="#linear-gradient-3"/>
    <linearGradient id="linear-gradient-5" x1="12.38" y1="28.08" x2="18.97" y2="39.5" gradientTransform="translate(30.37 -16.98) rotate(19.25) scale(1.01 1.25)" xlink:href="#linear-gradient-3"/>
    <linearGradient id="linear-gradient-6" x1="16.08" y1="26.86" x2="22.35" y2="37.72" gradientTransform="translate(68.59 18.97) rotate(112.85) scale(.84 .78)" xlink:href="#linear-gradient-3"/>
    <linearGradient id="linear-gradient-7" x1="5.73" y1="29.82" x2="12.52" y2="41.6" gradientTransform="translate(37.86 52.31) rotate(-146.34) scale(.83 .93)" xlink:href="#linear-gradient-3"/>
    <linearGradient id="linear-gradient-8" x1="18" y1="25.9" x2="21" y2="31.1" gradientUnits="userSpaceOnUse">
      <stop offset="0" stop-color="#8cd7f5"/>
      <stop offset="1" stop-color="#376e8c"/>
    </linearGradient>
    <linearGradient id="linear-gradient-9" x1="29.2" y1="33.25" x2="32.2" y2="38.44" gradientTransform="translate(10.38 -7.06) rotate(17.98)" xlink:href="#linear-gradient-8"/>
    <linearGradient id="linear-gradient-10" x1="32" y1="18.9" x2="35" y2="24.1" xlink:href="#linear-gradient-8"/>
    <linearGradient id="linear-gradient-11" x1="44" y1="23.9" x2="47" y2="29.1" xlink:href="#linear-gradient-8"/>
    <linearGradient id="linear-gradient-12" x1="52" y1="12.9" x2="55" y2="18.1" xlink:href="#linear-gradient-8"/>
    <linearGradient id="linear-gradient-13" x1="17" y1="10.05" x2="38.09" y2="46.57" gradientUnits="userSpaceOnUse">
      <stop offset="0" stop-color="#d7d7d7"/>
      <stop offset="1" stop-color="#969696"/>
    </linearGradient>
    <radialGradient id="radial-gradient" cx="26.5" cy="26.5" fx="26.5" fy="26.5" r="15" gradientUnits="userSpaceOnUse">
      <stop offset="0" stop-color="#d7d7d7" stop-opacity=".2"/>
      <stop offset=".2" stop-color="#d4d4d4" stop-opacity=".23"/>
      <stop offset=".4" stop-color="#cdcdcd" stop-opacity=".31"/>
      <stop offset=".58" stop-color="#c2c2c2" stop-opacity=".45"/>
      <stop offset=".76" stop-color="#b2b2b2" stop-opacity=".65"/>
      <stop offset=".94" stop-color="#9d9d9d" stop-opacity=".91"/>
      <stop offset="1" stop-color="#969696"/>
    </radialGradient>
    <linearGradient id="linear-gradient-14" x1="11" y1="26.5" x2="42" y2="26.5" gradientUnits="userSpaceOnUse">
      <stop offset="0" stop-color="#787878"/>
      <stop offset="1" stop-color="#000"/>
    </linearGradient>
    <linearGradient id="linear-gradient-15" x1="11.86" y1="18.29" x2="11.86" y2="37.71" gradientTransform="translate(2.53 .05) rotate(.2) scale(.76 1)" gradientUnits="userSpaceOnUse">
      <stop offset="0" stop-color="#fff" stop-opacity=".5"/>
      <stop offset="1" stop-color="#f0f0f0"/>
    </linearGradient>
    <linearGradient id="linear-gradient-16" x1="25.31" y1="45.52" x2="25.31" y2="67.56" gradientTransform="translate(20.8 88.27) rotate(-134.08) scale(1 .87)" xlink:href="#linear-gradient-15"/>
    <radialGradient id="radial-gradient-2" cx="26.5" cy="26.5" fx="26.5" fy="26.5" r="15.35" gradientTransform="translate(1.71 1.22) scale(.94 .95)" gradientUnits="userSpaceOnUse">
      <stop offset="0" stop-color="#a0e1fa" stop-opacity=".2"/>
      <stop offset=".15" stop-color="#9addf7" stop-opacity=".29"/>
      <stop offset=".47" stop-color="#8dd4ef" stop-opacity=".54"/>
      <stop offset=".91" stop-color="#77c5e3" stop-opacity=".92"/>
      <stop offset="1" stop-color="#73c3e1"/>
    </radialGradient>
    <linearGradient id="linear-gradient-17" x1="15.31" y1="23.81" x2="15.31" y2="19.46" gradientTransform="translate(-7.67 28.06) rotate(-67.83) scale(.98 1)" gradientUnits="userSpaceOnUse">
      <stop offset=".44" stop-color="#fff" stop-opacity=".5"/>
      <stop offset="1" stop-color="#f0f0f0"/>
    </linearGradient>
    <linearGradient id="linear-gradient-18" x1="26.76" y1="18.67" x2="26.76" y2="13.83" gradientTransform="matrix(1,0,0,1,0,0)" xlink:href="#linear-gradient-17"/>
    <linearGradient id="linear-gradient-19" x1="44.9" y1="42.01" x2="53.48" y2="56.87" xlink:href="#linear-gradient-8"/>
    <linearGradient id="linear-gradient-20" x1="46.32" y1="43.93" x2="53.31" y2="56.03" gradientUnits="userSpaceOnUse">
      <stop offset="0" stop-color="#82bedc"/>
      <stop offset=".56" stop-color="#285a78"/>
    </linearGradient>
    <linearGradient id="linear-gradient-21" x1="39.18" y1="41.79" x2="43.09" y2="41.79" gradientUnits="userSpaceOnUse">
      <stop offset="0" stop-color="#464646"/>
      <stop offset="1" stop-color="#141414"/>
    </linearGradient>
    <linearGradient id="linear-gradient-22" x1="38.91" y1="41.28" x2="40.83" y2="44.61" gradientTransform="matrix(1,0,0,1,0,0)" xlink:href="#linear-gradient-2"/>
  </defs>
  <g id="Layer_4" data-name="Layer 4">
    <path d="M41,26.5c-.09,19.33-28.92,19.33-29,0,.09-19.33,28.92-19.33,29,0Z" fill="url(#linear-gradient-2)"/>
    <path d="M53.5,12.5c-1.66,0-3,1.34-3,3,0,.59.18,1.14.47,1.61l-4.66,6.52c-.26-.07-.53-.12-.81-.12-.92,0-1.74.42-2.29,1.08l-6.72-3.1c-.01-1.65-1.35-2.98-3-2.98s-3,1.34-3,3c0,.91.42,1.72,1.06,2.27l-3.12,9.75c-.43.01-.85.11-1.24.3l-4.77-4.68c.04-.2.07-.42.07-.63,0-1.66-1.34-3-3-3s-3,1.34-3,3c0,.29.05.56.13.82l-3.63,6.68,1.71,1.9,3.61-6.64c.36.15.76.24,1.18.24.61,0,1.18-.19,1.66-.5l4.55,4.47s-.04.08-.05.12c-.51,1.58.35,3.27,1.93,3.78,1.58.51,3.27-.35,3.78-1.93.36-1.12.02-2.29-.76-3.06l3.17-9.9c.67-.06,1.27-.33,1.74-.76l7.02,3.13c.17,1.49,1.43,2.66,2.97,2.66,1.66,0,3-1.34,3-3,0-.54-.16-1.05-.41-1.49l4.72-6.6c.22.05.45.09.69.09,1.66,0,3-1.34,3-3s-1.34-3-3-3Z" fill="#fff" opacity=".5" stroke="#fff" stroke-linejoin="round" stroke-width="2"/>
    <polygon points="14.05 37.67 12.7 35.64 17.31 29.07 18.66 31.11 14.05 37.67" fill="url(#linear-gradient-3)"/>
    <polygon points="26.86 36.6 29.05 35.64 21.08 27.81 18.88 28.76 26.86 36.6" fill="url(#linear-gradient-4)"/>
    <polygon points="29.86 36.68 28.26 34.05 32.88 19.64 34.48 22.27 29.86 36.68" fill="url(#linear-gradient-5)"/>
    <polygon points="34.1 23.08 35.77 21.14 44.25 25.06 42.79 26.96 34.1 23.08" fill="url(#linear-gradient-6)"/>
    <polygon points="52.92 14.39 54.27 16.38 46.98 26.56 45.63 24.57 52.92 14.39" fill="url(#linear-gradient-7)"/>
    <circle cx="19.5" cy="28.5" r="3" fill="url(#linear-gradient-8)" stroke="#003755" stroke-linejoin="round"/>
    <circle cx="28.51" cy="36.51" r="3" fill="url(#linear-gradient-9)" stroke="#003755" stroke-linejoin="round"/>
    <circle cx="33.5" cy="21.5" r="3" fill="url(#linear-gradient-10)" stroke="#003755" stroke-linejoin="round"/>
    <circle cx="45.5" cy="26.5" r="3" fill="url(#linear-gradient-11)" stroke="#003755" stroke-linejoin="round"/>
    <circle cx="53.5" cy="15.5" r="3" fill="url(#linear-gradient-12)" stroke="#003755" stroke-linejoin="round"/>
  </g>
  <g id="Layer_1" data-name="Layer 1">
    <g>
      <path d="M55.5,50.5l-8.5-8.48c-.5-.52-1.5-.52-1.96-.05l-3.01,3.02c-.52.5-.52,1.5-.01,2.05l8.49,8.45c1.46,1.47,3.59,1.55,5,0,1.34-1.47,1.41-3.59,0-5Z" fill="#fff" opacity=".5" stroke="#fff" stroke-linejoin="round" stroke-width="2"/>
      <path d="M45.08,39.27c-.65-.56-1.5-1.79-2.24-1.79-.78-.67.23-1.51.49-2.2.9-1.75,1.56-3.63,1.88-5.58,1.8-9.34-4.47-19.14-13.64-21.52-14.15-3.94-27.33,9.24-23.39,23.39,2.38,9.17,12.18,15.44,21.52,13.64,1.95-.32,3.83-.98,5.58-1.88.69-.26,1.52-1.28,2.2-.49,0,.73,1.23,1.6,1.79,2.24.53.53,1.4.53,1.93,0l3.87-3.87c.53-.53.53-1.4,0-1.93Z" fill="#fff" opacity=".3" stroke="#fff" stroke-linejoin="round" stroke-width="2"/>
    </g>
    <g>
      <g>
        <path d="M45.5,26.5c0-11.21-9.7-20.15-21.16-18.88-8.71.96-15.75,8-16.72,16.72-1.27,11.46,7.67,21.16,18.88,21.16,3.69,0,7.13-1.06,10.05-2.88.26-.16.59-.13.8.09l2.72,2.72,5.36-5.36-2.72-2.72c-.21-.21-.25-.54-.09-.8,1.82-2.92,2.88-6.36,2.88-10.05ZM26.5,41.5c-8.5,0-15-6.54-15-15s6.5-15,15-15,15,6.54,15,15-6.5,15-15,15Z" fill="url(#linear-gradient-13)"/>
        <path d="M26.5,11.5c-8.5,0-15,6.54-15,15s6.5,15,15,15,15-6.54,15-15-6.5-15-15-15Z" fill="url(#radial-gradient)" opacity=".83" stroke="url(#linear-gradient-14)" stroke-linejoin="round"/>
        <path d="M42.66,36.49c2.11-3.41,3.18-7.53,2.75-11.92-.89-8.9-8.09-16.1-16.99-16.97-11.99-1.17-21.99,8.82-20.82,20.82.87,8.9,8.07,16.11,16.97,16.99,4.4.44,8.52-.63,11.93-2.75.29-.18.67-.15.91.1l2.67,2.67,5.36-5.36-2.67-2.67c-.24-.24-.28-.62-.1-.91Z" fill="none" stroke="#323232" stroke-linejoin="round"/>
        <path d="M26.5,11.5c-8.5,0-15,6.54-15,15s6.5,15,15,15,15-6.54,15-15-6.5-15-15-15Z" fill="none" stroke="#787878" stroke-linejoin="round"/>
        <path d="M11.12,18.34c-.89,3.1-1.49,8.73-.64,12.19.67,2.71,3.19,7.21,3.19,7.21-5.59-4.82-5.45-14.54-2.55-19.4Z" fill="url(#linear-gradient-15)"/>
        <path d="M37.26,39.09c1.47-1.23,2.96-3.09,3.9-4.77,1.03-1.83,2.73-7.06,2.73-7.06,0,0-.26,2.55-1.18,5.28-.77,2.28-2.08,4.68-3.32,5.91-1.5,1.5-3.69,2.94-5.54,3.74-.58.24-1.84.47-1.84.47,0,0,4.05-2.43,5.26-3.57Z" fill="url(#linear-gradient-16)" opacity=".63"/>
      </g>
      <g>
        <path d="M41,26.5c-.09,19.33-28.92,19.33-29,0,.09-19.33,28.92-19.33,29,0Z" fill="url(#radial-gradient-2)" opacity=".5"/>
        <path d="M14.86,26.96s-.18-5.89,4.43-10.16l2.09,3.08s-1.52,1.08-2.86,2.34c-1.21,1.13-3.65,4.74-3.65,4.74Z" fill="url(#linear-gradient-17)" opacity=".9"/>
        <path d="M20.81,15.8s2.58-1.94,5.95-1.96c1.62-.01,4.26.45,5.95,1.98,0,0-.84.35-1.33,1.12-.44.7-.47,1.56-.47,1.56,0,0-4.75-2.31-8.38.17l-1.73-2.88Z" fill="url(#linear-gradient-18)"/>
      </g>
    </g>
    <g>
      <g>
        <path d="M55.5,50.5l-8.5-8.48c-.5-.52-1.5-.52-1.96-.05l-3.01,3.02c-.52.5-.52,1.5-.01,2.05l8.49,8.45c1.46,1.47,3.59,1.55,5,0s1.41-3.59,0-5Z" fill="url(#linear-gradient-19)" stroke="#003755" stroke-linejoin="round"/>
        <path d="M43.99,45.68l.48-.66c.15-.14.57-.24.71-.09,1.18,1.25,6.12,6.85,8.18,8.24,1.52,1.03,2.4.65,2.4.65,0,0-.35.7-.69,1.08-.38.43-.92.6-.92.6,0,0-1.78-.99-2.86-2.02-1.56-1.5-6.19-6.02-7.23-7.06-.14-.14-.27-.49-.07-.74Z" fill="url(#linear-gradient-20)" opacity=".56"/>
        <path d="M51.29,53.48l-7.23-7.06c-.2-.19-.24-.48-.07-.74.22-.35.63-.9,1.14-1.42.86-.89,1.95-1.46,1.95-1.46,0,0-.26-.28-.61-.56-.26-.21-.83-.14-1.01.03-.46.43-2.96,2.96-2.96,2.96-.14.21-.16.77.04.96l8.63,8.66c.81.76,1.92.97,2.98.66-.31-.13-1.5-.8-2.86-2.02Z" fill="#fff" opacity=".55"/>
      </g>
      <g>
        <rect x="37.36" y="39.1" width="8.21" height="4.73" rx="1.37" ry="1.37" transform="translate(-17.18 41.47) rotate(-45)" fill="url(#linear-gradient)" stroke="#323232" stroke-linejoin="round"/>
        <path d="M39.18,41.13l1.14-1.16c.2-.2.52-.2.72,0l1.91,1.96c.2.2.19.53,0,.72l-1.13,1.1-2.62-2.62Z" fill="url(#linear-gradient-21)" opacity=".39"/>
        <path d="M38.58,41.73l.6-.6,2.62,2.62-.61.61c-.39.39-1.02.39-1.41,0l-1.2-1.2c-.39-.39-.39-1.04,0-1.43Z" fill="url(#linear-gradient-22)" opacity=".55"/>
      </g>
    </g>
  </g>
</svg>