<?xml version="1.0" encoding="UTF-8"?>
<svg id="SelectProduct" xmlns="http://www.w3.org/2000/svg" viewBox="0 0 1200 1200">
  <g id="BackgroundT">
    <path d="M300.13,395.95c35.59.38,69.36,8.33,99.79,22.32,61.92,28.48,135.2,10.48,176.08-44.06,56.53-75.41,146.62-124.21,248.1-124.21,171.14,0,310.32,139.57,309.9,310.76-.42,170.84-139.01,309.2-309.9,309.2-127.55,0-405.12,17.04-526.62,17.04-135.57,0-245.47-109.93-245.47-245.53,0-135.7,112.47-246.96,248.13-245.52Z" style="fill: #b4b6ba; opacity: .25;"/>
    <circle cx="463" cy="310" r="105" style="fill: #b4b6ba; opacity: .25;"/>
  </g>
  <ellipse id="Ground" cx="600" cy="966.5" rx="542.5" ry="163.5" style="fill: #d1e7f2;"/>
  <g id="Sphere">
    <ellipse cx="890.44" cy="892.65" rx="63.79" ry="15.87" style="fill: #b4b6ba;"/>
    <circle cx="851.95" cy="814.65" r="86.5" style="fill: #d1d4d4;"/>
    <path d="M892.97,738.48c20,15.84,32.85,40.33,32.85,67.82,0,47.77-38.73,86.5-86.5,86.5-14.84,0-28.81-3.74-41.02-10.33,14.75,11.68,33.38,18.68,53.65,18.68,47.77,0,86.5-38.73,86.5-86.5,0-32.93-18.4-61.56-45.48-76.17Z" style="fill: #b4b6ba; opacity: .25;"/>
    <ellipse cx="811.03" cy="774.52" rx="36.65" ry="15.99" transform="translate(-310.12 800.34) rotate(-45)" style="fill: #e2e4e3;"/>
  </g>
  <g id="MainBox">
    <polygon points="595 266 294 379 294 731 595 844 896 731 896 365 595 266" style="fill: #fff; opacity: .5; stroke: #fff; stroke-linejoin: round; stroke-width: 40px;"/>
    <ellipse cx="595" cy="928.46" rx="205.3" ry="69.88" style="fill: #fff; opacity: .25;"/>
    <polygon points="294 379 595 478 896 365 595 266 294 379" style="fill: #78befa;"/>
    <polygon points="294 379 595 478 896 365 595 266 294 379" style="fill: #d5e8f2; opacity: .5;"/>
    <polygon points="595 478 595 844 896 731 896 365 595 478" style="fill: #367cc4;"/>
    <polygon points="294 379 595 478 595 844 294 731 294 379" style="fill: #78befa;"/>
    <polygon points="595 266 294 379 294 731 595 844 896 731 896 365 595 266" style="fill: #fff; opacity: .25;"/>
    <g style="opacity: .5;">
      <path d="M628.71,649.89h-68.49c-.18-9.85-.27-15.85-.27-18,0-22.2,3.67-40.47,11.01-54.79,7.34-14.32,22.03-30.44,44.05-48.35,22.03-17.9,35.19-29.63,39.48-35.19,6.62-8.77,9.94-18.44,9.94-29.01,0-14.68-5.87-27.26-17.59-37.74-11.73-10.48-27.53-15.71-47.41-15.71s-35.19,5.46-48.08,16.38c-12.89,10.92-21.76,27.58-26.59,49.96l-69.3-8.6c1.97-32.05,15.62-59.27,40.96-81.66,25.34-22.38,58.6-33.58,99.79-33.58,43.33,0,77.8,11.33,103.41,33.98,25.61,22.65,38.41,49.02,38.41,79.1,0,16.65-4.7,32.41-14.1,47.27-9.4,14.87-29.5,35.1-60.3,60.7-15.94,13.25-25.83,23.91-29.68,31.96-3.85,8.06-5.6,22.47-5.24,43.25ZM560.22,751.42v-75.48h75.48v75.48h-75.48Z" style="fill: #fff;"/>
    </g>
  </g>
  <g id="Cursor">
    <g id="Arrow">
      <polygon points="1062.16 645.25 852.49 517.42 852.49 809.95 927.97 752.26 960.5 815.16 1018.13 771.13 986.68 708.22 1062.16 645.25" style="fill: #367cc4;"/>
      <polygon points="814.75 504.84 852.81 517.56 852.81 809.96 814.75 796.29 814.75 504.84" style="fill: #78befa;"/>
      <polygon points="921.46 802.57 960.5 815.16 927.97 752.26 904.18 770.4 921.46 802.57" style="fill: #78befa;"/>
    </g>
  </g>
  <g id="Part">
    <polygon points="343 729 263.76 755.88 436.78 826.28 520.52 797.87 343 729" style="fill: #e2e4e3;"/>
    <polygon points="520.52 1018.87 352.52 1081.87 352.52 969.46 436.78 935.57 436.78 826.28 520.52 797.87 520.52 1018.87" style="fill: #b4b6ba;"/>
    <polygon points="352.52 1081.87 175 1013 175 898.59 352.52 969.46 352.52 1081.87" style="fill: #d1d4d4;"/>
    <polygon points="352.52 969.46 175 898.59 263.76 864.7 436.78 935.57 352.52 969.46" style="fill: #e2e4e3;"/>
    <polygon points="263.76 864.7 436.78 935.57 436.78 826.28 263.76 755.88 263.76 864.7" style="fill: #d1d4d4;"/>
  </g>
</svg>